<svg fill="none" height="65" viewBox="0 0 69 65" width="69" xmlns="http://www.w3.org/2000/svg"><g fill="#3d4f59"><path d="m43.6697 5.80171c-.0039-1.30544-.5242-2.5563-1.4473-3.47939s-2.1739-1.443409-3.4794-1.44732h-8.7981c-1.3054.003911-2.5563.52423-3.4794 1.44732s-1.4434 2.17395-1.4473 3.47939l-7.0373 9.50199h32.7261z"/><path d="m4.78457 37.108h59.12053c1.1187-.0034 2.1906-.4494 2.9816-1.2404.7911-.791 1.237-1.8629 1.2404-2.9816v-3.5191l-17.4192-10.5529h-3.5958v9.318h-3.7153v-9.3223h-2.9566v6.568c-.0023.7461-.2996 1.4609-.827 1.9885-.5275.5276-1.2422.8252-1.9882.8277h-6.569c-.7461-.0023-1.461-.2998-1.9885-.8274-.5274-.5277-.8247-1.2427-.8268-1.9888v-6.568h-10.265l-17.414041 10.5528v3.5191c.002301 1.1196.447841 2.1928 1.239191 2.9848s1.86412 1.2384 2.98372 1.2416z"/><path d="m1.49835 45.508c2.14982 0 3.16585 1.283 4.45313 2.9051 1.40938 1.7775 3.16413 3.9909 6.48172 3.9909 3.3176 0 5.0715-2.2126 6.4818-3.9909 1.2872-1.623 2.3033-2.9051 4.4522-2.9051 2.149 0 3.1659 1.283 4.4532 2.9051 1.4094 1.7775 3.1641 3.9909 6.4817 3.9909s5.0715-2.2126 6.4817-3.9909c1.2873-1.623 2.3034-2.9051 4.4523-2.9051 2.149 0 3.1659 1.283 4.4531 2.9051 1.4103 1.7775 3.1642 3.9909 6.4835 3.9909 3.3194 0 5.0733-2.2126 6.4835-3.9909 1.2855-1.623 2.3033-2.9051 4.4531-2.9051.8295 0 1.5028-.9253 1.5028-2.0687 0-1.1433-.6733-2.0687-1.5028-2.0687-3.3141 0-5.0732 2.2126-6.4834 3.9909-1.2873 1.6231-2.3034 2.9051-4.4523 2.9051-2.149 0-3.1676-1.2829-4.454-2.9051-1.4094-1.7774-3.1641-3.9909-6.4817-3.9909s-5.0733 2.2126-6.4835 3.9909c-1.2856 1.6231-2.3016 2.9051-4.4479 2.9051-2.1464 0-3.1659-1.2829-4.4532-2.9051-1.4102-1.7774-3.1641-3.9909-6.4817-3.9909s-5.0733 2.2126-6.4818 3.9909c-1.2872 1.6231-2.3033 2.9051-4.4522 2.9051-2.149 0-3.16589-1.2829-4.45317-2.9051-1.40938-1.7774-3.1641-3.9909-6.48172-3.9909-.829399 0-1.50271.9262-1.50271 2.0687s.668946 2.0687 1.49835 2.0687z"/><path d="m67.1093 53.8407c-3.3141 0-5.0732 2.2144-6.4834 3.9918-1.2873 1.623-2.3034 2.9051-4.4523 2.9051-2.149 0-3.1676-1.2829-4.454-2.9051-1.4094-1.7774-3.1641-3.9918-6.4817-3.9918s-5.0733 2.2144-6.4835 3.9918c-1.2856 1.623-2.3016 2.9051-4.4479 2.9051-2.1464 0-3.1659-1.2829-4.4532-2.9051-1.4102-1.7774-3.1641-3.9918-6.4817-3.9918s-5.0733 2.2144-6.4818 3.9918c-1.2872 1.623-2.3033 2.9051-4.4522 2.9051-2.149 0-3.16589-1.2829-4.45317-2.9051-1.40938-1.7774-3.1641-3.9918-6.48172-3.9918-.829399 0-1.50271.9271-1.50271 2.0696s.673311 2.0687 1.50271 2.0687c2.14983 0 3.16586 1.2812 4.45314 2.9051 1.40937 1.7774 3.16412 3.9909 6.48175 3.9909 3.3176 0 5.0715-2.2126 6.4817-3.9909 1.2873-1.6239 2.3033-2.9051 4.4523-2.9051 2.1489 0 3.1659 1.2812 4.4531 2.9051 1.4094 1.7774 3.1641 3.9909 6.4818 3.9909 3.3176 0 5.0715-2.2126 6.4817-3.9909 1.2873-1.6239 2.3033-2.9051 4.4523-2.9051 2.1489 0 3.1658 1.2829 4.4531 2.9051 1.4103 1.7774 3.1641 3.9909 6.4835 3.9909s5.0732-2.2126 6.4835-3.9909c1.2855-1.6231 2.3033-2.9051 4.4531-2.9051.8294 0 1.5027-.9262 1.5027-2.0687s-.6776-2.0696-1.5071-2.0696z"/></g></svg>