<svg fill="none" height="59" viewBox="0 0 64 59" width="64" xmlns="http://www.w3.org/2000/svg"><g fill="#3d4f59"><path d="m40.0799 5.01883c-.0034-1.13112-.4542-2.21495-1.2541-3.01477-.7998-.79983-1.8836-1.250672-3.0147-1.25406h-7.6252c-1.1311.003388-2.2149.45423-3.0147 1.25406-.7999.79982-1.2507 1.88365-1.2541 3.01477l-6.0977 8.23397h28.3559z"/><path d="m6.38853 32.1419h51.22217c.9695-.0028 1.8985-.3891 2.5841-1.0746.6857-.6854 1.0722-1.6144 1.0752-2.5839v-3.048l-15.0962-9.1473h-3.1123v8.0829h-3.215v-8.0829h-2.5624v5.6912c-.0014.6465-.2587 1.2661-.7157 1.7233-.4569.4572-1.0763.7149-1.7228.7167h-5.692c-.6464-.0018-1.2658-.2595-1.7228-.7167-.4569-.4572-.7143-1.0768-.7157-1.7233v-5.6912h-8.8979l-15.08714 9.1473v3.0488c.00298.9693.38941 1.898 1.07488 2.5833.68547.6854 1.61429 1.0716 2.58359 1.0744z"/><path d="m59.8029 43.0417c-1.7148-.6248-3.4855-1.0839-5.2879-1.371-1.1331-.2085-2.4498-.3113-2.9136-1.3182-.0755-.1662-.383-.2871-.6043-.4125-2.724-1.5705-5.9866-2.1151-9.3724-2.4384-.7448-.0703-1.4851-.1625-2.2285-.2395-.509-.0728-1.0217-.1177-1.5357-.1345-3.3496-.0953-6.7019.0149-10.0379.3301-2.1689.2137-4.3211.572-6.4422 1.0727-1.8885.5092-3.6184 1.2087-4.6337 2.4883-.1995.2415-.4453.4406-.723.5856-.2776.145-.5814.2331-.8936.259-.5975.0944-1.2033.1843-1.8129.2198-3.0857.1837-6.13837.7358-9.09293 1.6446-1.88249.5771-3.37141 1.4398-4.22427 2.7829v2.1975c.686733.6637 1.44152 1.2532 2.25187 1.7586 2.20157 1.082 4.57479 1.7722 7.01325 2.0396.61566.0755.85208.2432 1.00248.6708.3922.9521 1.1111 1.7332 2.0275 2.2028 1.9331 1.1535 4.2779 1.6219 6.6083 2.1091 2.301.4103 4.6237.6878 6.9566.8309.5129.0461 1.0198.1625 1.5335.1738 4.807.1637 9.6195-.0384 14.3959-.6043 2.3691-.2592 4.6987-.8007 6.9392-1.6128 1.7435-.6799 3.4318-1.43 3.9742-2.9378.0615-.0979.1419-.1825.2366-.2486.0948-.0662.2018-.1127.3149-.1367.7478-.1753 1.5304-.275 2.2806-.4464 1.6859-.3383 3.3388-.8242 4.9396-1.452 1.3292-.6102 2.5266-1.4736 3.5255-2.5419v-2.6032c-1.1384-1.2906-2.5811-2.2765-4.1971-2.8683zm-1.0115 5.1368c-1.2587.5601-2.567 1.0014-3.9077 1.3182-1.2488.3722-2.5392.5864-3.8413.6376-.4147.0379-.8236.1238-1.2185.2561-1.0356.2561-1.6022.6542-1.4556 1.3748.2492 1.2291-.8703 1.6619-2.1152 2.0396-2.0745.6153-4.2031 1.0307-6.3568 1.2404-3.3731.3957-6.7716.5318-10.1656.4072-2.8134-.0564-5.6207-.2878-8.4054-.6927-1.9002-.277-3.7713-.7263-5.5901-1.3424-1.1573-.4313-1.2222-.5718-.7554-1.393.4351-.7607-.0808-1.572-1.3272-1.8885-.8622-.192-1.7343-.3368-2.6123-.4336-2.08979-.221-4.13597-.7468-6.07346-1.5607-.92009-.4275-.92765-.7644.02568-1.1761.89787-.3914 1.82383-.7149 2.77009-.9677 2.63549-.5628 5.30159-.9709 7.98469-1.2223.9908-.0795 1.9855-.0991 2.9786-.0589 1.0538-.0151 1.8485-.3407 2.168-1.0576.1201-.3102.1127-.6553-.0204-.9601-.1881-.4533.0794-.732.5847-.8937.9839-.3412 1.9877-.6217 3.0058-.84 3.2806-.5892 6.6053-.8983 9.9382-.9239 2.6213.17 5.2622.2584 7.8608.5387 1.6841.1719 3.3404.5525 4.9306 1.1331.6308.2357 1.1112.5046 1.2087 1.1082.1231.7554 1.0281 1.1331 2.2095 1.2955 2.6472.2558 5.2487.8622 7.7362 1.8032.1688.052.3322.1201.488.2032 1.3273.9465 1.4527 1.3461-.0438 2.0577z"/><path d="m36.2945 45.0647c.8483-.6474.4533-1.6959-.7244-1.9112-.6264-.1536-1.2873-.073-1.8583.2267-1.4671.8309-3.0217 1.5818-4.5325 2.3735-2.3438 1.2247-4.6823 2.4543-7.0155 3.6886-.6391.3392-1.2532.7026-1.8493 1.078-.1166.0663-.2185.1557-.2992.2628-.0808.1072-.1387.2297-.1703.3601-.0315.1303-.0361.2658-.0133.398s.0725.2583.1459.3706c.1987.4631.7781.6413 1.5154.6799.4278-.0915.8475-.2178 1.2547-.3777.9254-.4533 1.7956-.9655 2.7036-1.4353 3.1028-1.6141 6.209-3.2256 9.3188-4.8347.5314-.2507 1.0413-.5448 1.5244-.8793z"/><path d="m43.6454 43.1921c-.5799.1961-1.1422.441-1.6808.732-3.0115 1.5924-6.0153 3.1918-9.0113 4.7983-1.0137.5417-2.0396 1.0712-3.0216 1.64-.7554.4367-.9065 1.2087-.4132 1.6959.3396.2589.7426.4215 1.1668.4708.4241.0493.8537-.0165 1.2437-.1905.3182-.1351.6294-.2863.9322-.4533 2.5684-1.3466 5.1342-2.6945 7.6976-4.0437 1.5426-.8113 3.0874-1.6188 4.6209-2.4384.5378-.2871 1.0152-.6134.9276-1.0909-.0461-.9102-1.3416-1.4851-2.4619-1.1202z"/></g></svg>