<svg fill="none" height="65" viewBox="0 0 61 65" width="61" xmlns="http://www.w3.org/2000/svg"><g fill="#3d4f59"><path d="m38.0561 4.89632c-.0042-1.09837-.4425-2.15055-1.2191-2.92722-.7767-.77668-1.8289-1.214869-2.9273-1.2191h-7.4039c-1.0984.004231-2.1506.44242-2.9272 1.2191-.7767.77667-1.2149 1.82885-1.2191 2.92722l-5.9231 7.99548h27.5427z"/><path d="m5.33087 31.2414h49.75233c.9416-.0025 1.8439-.3776 2.5099-1.0432.6659-.6657 1.0413-1.5679 1.0442-2.5094v-2.9627l-14.6604-8.8841h-3.0261v7.8472h-3.1226v-7.8472h-2.4879v5.5287c-.0019.6276-.2521 1.2291-.696 1.6729-.4438.4439-1.0452.6941-1.6729.696h-5.5287c-.6277-.0019-1.2291-.2521-1.673-.696-.4438-.4438-.694-1.0453-.6959-1.6729v-5.5287h-8.6417l-14.65534 8.8841v2.9627c.0027.9416.37807 1.8439 1.04405 2.5096s1.56842 1.0407 2.51006 1.043z"/><path d="m17.2003 35.3154-16.451009 11.4006c-.379503.263-.63898.666-.721354 1.1203-.082374.4544.0191018.9228.28211 1.3023.263008.3795.666004.639 1.120323.7214.45433.0823.92277-.0191 1.30227-.2821l16.45026-11.4006c.3727-.2657.6258-.6674.7046-1.1183.0787-.4509-.0233-.9146-.284-1.2908-.2606-.3763-.6589-.6347-1.1087-.7195-.4498-.0847-.9149.0111-1.2945.2667z"/><path d="m17.2003 42.7581-15.44474 10.72c-.37491.2649-.63005.6672-.70994 1.1193-.079888.452.02195.9174.28336 1.2948s.66124.6363 1.11255.7204.91756-.0133 1.29738-.2712l15.44399-10.7215c.1913-.1287.355-.2942.4818-.4868s.2141-.4084.2567-.635c.0427-.2266.04-.4594-.008-.6849-.0481-.2255-.1404-.4393-.2717-.6288s-.299-.3511-.4932-.4753c-.1943-.1242-.4113-.2086-.6384-.2483-.2271-.0396-.4599-.0338-.6847.0173-.2249.051-.4374.1462-.6251.28z"/><path d="m23.2219 40.2008c-.1879-.1303-.3997-.2223-.6231-.2707-.2235-.0485-.4543-.0524-.6793-.0117-.225.0408-.4397.1254-.632.2492-.1923.1237-.3583.2842-.4886.4721s-.2222.3996-.2707.6231c-.0484.2234-.0524.4542-.0117.6792.0408.225.1255.4398.2492.6321.1238.1922.2842.3582.4721.4885l16.4495 11.4006c.3797.2631.8484.3646 1.3029.2822.4545-.0825.8577-.3421 1.1208-.7218s.3646-.8484.2822-1.3029c-.0825-.4545-.3421-.8577-.7218-1.1208z"/><path d="m23.2219 47.642c-.1879-.1303-.3997-.2223-.6231-.2707-.2235-.0485-.4543-.0524-.6793-.0117-.225.0408-.4397.1254-.632.2492-.1923.1237-.3583.2842-.4886.4721s-.2222.3996-.2707.6231c-.0484.2234-.0524.4542-.0117.6792.0408.225.1255.4398.2492.6321.1238.1922.2842.3582.4721.4885l16.4495 11.4006c.3797.2631.8484.3646 1.3029.2822.4545-.0825.8577-.3421 1.1208-.7218s.3646-.8484.2822-1.3029c-.0825-.4545-.3421-.8577-.7218-1.1208z"/><path d="m52.9925 52.6836c.7786-.1914 1.5096-.5407 2.1477-1.0262s1.1697-1.0969 1.5618-1.7962c.3922-.6993.6365-1.4718.718-2.2694.0814-.7976-.0019-1.6035-.2446-2.3676-.7807-2.0518-1.7081-4.0447-2.7749-5.9632-.8763-1.6643-1.9359-3.2328-2.9678-4.9329-.2446.3652-.3972.5894-.5418.8157-2.0182 2.9715-3.7294 6.1402-5.1074 9.4574-.4387 1.045-.5725 2.1928-.3858 3.3107.1867 1.1178.6862 2.16 1.4407 3.0056.7545.8457 1.7331 1.4603 2.8225 1.7727 1.0894.3125 2.2451.3099 3.3331-.0073z"/><path d="m55.5338 36.9607c.544 1.034 1.0859 2.0753 1.6007 3.1262l2.7559-1.9096c.188-.1302.3484-.2962.4721-.4884.1238-.1923.2085-.407.2493-.6319.0408-.225.0369-.4558-.0116-.6792-.0484-.2235-.1403-.4352-.2705-.6231-.1303-.1879-.2962-.3483-.4884-.4721-.1923-.1238-.407-.2085-.6319-.2493-.225-.0408-.4558-.0368-.6792.0116-.2235.0484-.4352.1403-.6231.2705z"/><path d="m41.4583 46.716c-.3048.2115-.5342.5147-.6546.8657-.1204.3509-.1255.7311-.0146 1.0851.1108.3541.3319.6635.6309.883.2991.2196.6604.3379 1.0314.3377.3541.001.6998-.1072.9902-.3096l.2922-.2023c-.0941-.271-.1724-.5473-.2345-.8274-.2336-1.0671-.2363-2.1718-.008-3.2401z"/><path d="m41.0202 56.5802c.1302.1879.2962.3482.4884.4719.1923.1237.407.2083.6319.249s.4557.0366.6791-.0119.435-.1405.6228-.2709l4.4297-3.067c-1.1062-.5328-2.0793-1.3063-2.848-2.2638l-3.5636 2.4683c-.1881.1303-.3487.2963-.4726.4887-.124.1923-.2088.4072-.2497.6323s-.037.4561.0114.6797c.0483.2237.1403.4356.2706.6237z"/><path d="m58.2788 42.5675c.2848.6704.552 1.3451.793 2.0301.1544.4427.2645.8996.3286 1.3641l.49-.3403c.3503-.2417.5997-.6035.7011-1.0168s.0477-.8494-.1509-1.2258c-.1986-.3763-.5284-.6668-.9268-.8163s-.8378-.1478-1.235.005z"/><path d="m58.8725 49.8889c-.6291 1.4727-1.6842 2.7236-3.0297 3.592-1.3456.8683-2.92 1.3144-4.5211 1.281l-9.8656 6.8358c-.369.2672-.6187.6684-.6953 1.1176-.0767.4491.0257.9104.2852 1.2849.2595.3746.6554.6325 1.1028.7185.4475.086.9108-.0068 1.2906-.2584l16.451-11.3999c.3072-.2123.538-.5178.6582-.8714.1202-.3535.1234-.7364.0093-1.092-.1141-.3555-.3396-.6649-.6431-.8825-.3035-.2175-.669-.3317-1.0423-.3256z"/></g></svg>