<svg fill="none" height="64" viewBox="0 0 64 64" width="64" xmlns="http://www.w3.org/2000/svg"><g fill="#3d4f59"><path d="m20.5293 21.2062 1.1518 4.5069h1.3537l1.1517-4.5069v4.5069h1.4955v-5.9094h-2.4l-.9196 3.5961-.9258-3.5961h-2.4019v5.9094h1.4955z"/><path d="m26.2535 25.7131h1.8605l.2879-.9746h2.0723l.2968.9746h1.9118l-2.2219-5.9094h-1.9917zm3.1947-4.3775.6512 2.1263h-1.2961z"/><path d="m37.9144 25.0823c.2616-.2439.466-.5425.5989-.8745.1634-.4718.2367-.97.2162-1.4689.002-.3866-.0471-.7718-.1462-1.1455-.0886-.3446-.2475-.667-.4669-.9471-.217-.2709-.4976-.4839-.8168-.6202-.4128-.1599-.8538-.2341-1.2962-.2179h-2.7119v5.9093h2.7119c.3684-.0063.7344-.0604 1.0889-.1612.3089-.0877.5914-.2506.8221-.474zm-1.1517-1.2811c-.0714.1873-.2058.3439-.3801.443-.2587.1017-.5368.145-.8142.1266h-.443v-3.2275h.4545c.1843-.0182.3702.0032.5455.0628s.3358.156.4707.2827c.2461.3813.3546.8351.3074 1.2864.0162.348-.0328.696-.1444 1.026z"/><path d="m41.5149 23.2094h2.8422v-1.2049h-2.8422v-.9409h3.0637v-1.2616h-4.8941v5.9093h4.9827v-1.3387h-3.1523z"/><path d="m29.6591 29.2888h-1.3954v4.5077h1.3954z"/><path d="m30.6682 33.7965h1.3103v-2.4753l1.6878 2.4753h1.3129v-4.5077h-1.3129v2.4904l-1.6975-2.494h-1.3006z"/><path d="m7.60504 42.5507h1.48574v.6768c-.2439.1511-.50392.2744-.77521.3677-.2293.0721-.46839.1083-.70876.1072-.22841.0126-.45678-.0256-.66866-.1118-.21187-.0863-.40197-.2184-.55661-.387-.33883-.4872-.49563-1.078-.44298-1.6691-.04758-.5697.10602-1.1381.43411-1.6063.1433-.1673.32265-.3.52459-.3881.20193-.088.4212-.1292.64133-.1204.28443-.0112.56555.0641.80621.2162.21538.1501.37367.3687.44918.6201l2.14402-.3827c-.1089-.4222-.3091-.8154-.5865-1.1517-.2633-.305-.60172-.5358-.98165-.6698-.57846-.1686-1.18055-.2416-1.78254-.2162-.67311-.0281-1.34427.0907-1.96682.3482-.60165.2794-1.09941.7421-1.42195 1.3218-.33642.629-.504 1.3344-.48638 2.0475-.01366.6869.13829 1.367.44297 1.9827.27264.5516.70931 1.0053 1.25008 1.2989.64887.3162 1.36605.4666 2.08731.4376.60843.0123 1.2151-.0696 1.79849-.2427.62141-.2214 1.20839-.5295 1.74359-.9152v-3.0583h-3.43311z"/><path d="m18.3091 39.4994v-1.5353h-5.9553v7.1921h6.0634v-1.6283h-3.8362v-1.4176h3.4553v-1.4662h-3.4553v-1.1447z"/><path d="m25.6404 43.0725c-.0889-.1575-.1931-.3059-.311-.443-.1029-.1398-.2218-.2671-.3544-.3792-.1789-.1162-.3738-.2057-.5785-.2658.2733-.054.5366-.1499.7806-.2844.2897-.1718.5314-.4141.7025-.7043.1765-.3151.2643-.6721.2543-1.033.0131-.4137-.1037-.8212-.334-1.1651-.2107-.311-.52-.5419-.878-.6556-.5131-.1365-1.0437-.1963-1.5743-.1772h-3.7042v7.1922h2.2326v-2.9236h.1967c.1943-.0024.3845.0562.5439.1674.1712.1549.3082.3438.4023.5546l1.188 2.1972h2.5108zm-1.8791-2.5179c-.0882.1171-.2167.1972-.3606.225-.1931.0502-.3902.0832-.5892.0984h-.9364v-1.4627h.9746c.2893-.0294.5804.0362.8292.1869.0744.0663.1328.1485.1708.2406.0381.092.0548.1915.0489.291.0045.1514-.0427.2998-.1338.4208z"/><path d="m31.454 42.3398-1.1278-4.3757h-2.9236v7.1921h1.8197v-5.4849l1.3998 5.4849h1.6479l1.4016-5.4849v5.4849h1.8206v-7.1921h-2.9236z"/><path d="m38.8092 43.9682h2.5241l.3597 1.188h2.3265l-2.7021-7.1921h-2.424l-2.7048 7.1921h2.2689zm1.2687-4.1401.7974 2.5852h-1.5797z"/><path d="m49.5239 41.9429-2.7065-3.9788h-2.0758v7.1921h2.0899v-3.9487l2.6933 3.9487h2.0944v-7.1921h-2.0944z"/><path d="m56.2864 40.3907-1.4494-2.4266h-2.4683l2.8005 4.1799v3.0122h2.2273v-3.0122l2.7961-4.1799h-2.455z"/><path d="m29.683.0850319h-4.8524v14.4552681h4.8524z"/><path d="m15.5547.0868101h-3.581v1.0852899c-.0437 6.24598-.0869 12.4914-.1294 18.7362h3.7104z"/><path d="m.123154 1.18982c-.0407536 6.23949-.0818095 12.47898-.123154 18.71848h3.4251v-19.8144052h-3.301946c0 .4066532.002658.7512902 0 1.0959252z"/><path d="m63.9933 19.2199c.0042-6.1562.0042-12.31272 0-18.469515 0-.222375-.0345-.442979-.0522-.6626962h-3.1469v19.8206112h3.1398c.0177-.2286.0593-.4581.0593-.6884z"/><path d="m45.686 15.9684c0 1.3121-.0142 2.6251-.0221 3.9372h2.8545c0-6.5112 0-13.02292 0-19.535285-.0127-.098416-.0347-.195424-.0656-.2897172h-2.804v.9045702c.0118 4.996792.0242 9.991232.0372 14.983232z"/><path d="m59.3634 19.9083c-.0107-.3491-.0311-.699-.0293-1.0481.0101-5.9005.0225-11.80122.0372-17.70228 0-.342863 0-.685731 0-1.0773232h-2.8129c-.0318.0934982-.054.1899762-.0664.2879462.0041 6.513547.0106 13.027057.0195 19.540657z"/><path d="m23.6913 5.3352c0-1.577.0142-3.15489-.0124-4.731894 0-.190481-.2126-.531566-.3491-.5430834-.7486-.05404333-1.5061-.0256989-2.3513-.0256989v14.5048763h2.711c.0006-3.069.0012-6.13702.0018-9.2042z"/><path d="m34.2483.0903457h-2.6888v.7973683l-.0231 13.656986h2.7119z"/><path d="m38.9572 14.5412v-14.451733h-2.6721c-.027.070662-.0463.144025-.0575.218826.0053 4.743407.0112 9.487697.0177 14.232907z"/><path d="m40.1001 14.5403h2.2831c0-4.72513-.0036-9.45169-.0107-14.179739-.0163-.115569-.046-.228842-.0886-.3375457-.4313.0195503-.8633.0165845-1.2943-.0088682-.7017-.0744203-.9374.1293579-.9321.7973679.0257 3.534965-.0106 7.069915-.0141 10.605785.0017 1.0392.0372 2.0811.0567 3.123z"/><path d="m54.6545.0938948h-1.8543v19.8144052h1.8543z"/><path d="m6.51531 18.8655c0-5.894 0-11.78851 0-17.68366v-1.0914943h-1.66028v19.8179543h1.71255c-.02392-.3464-.05227-.6946-.05227-1.0428z"/><path d="m10.1318.0797181h-.99229v4.4953419c0 5.11078-.00207 10.22184-.00621 15.33324h.9985z"/><path d="m44.381 14.5403c.0115-.1063.0319-.2109.0337-.3172 0-4.32345.002-8.6475.0062-12.97215v-1.1632612h-.9905v1.2961512 12.33166c0 .2755-.0346.5492-.0523.8239z"/><path d="m17.9804 14.5403h.9994v-14.4464052h-.9994z"/><path d="m51.5156 19.9092v-19.819733h-.8124c-.0291.09665-.0495.195669-.0612.295909.0036 6.508234.0095 13.016124.0178 19.523824z"/><path d="m24.8306 63.9952h4.8524v-14.5988h-4.8524z"/><path d="m11.9737 50.1938c-.0437 4.601-.0869 9.2018-.1294 13.8023h3.7104v-14.5997h-3.581z"/><path d="m.123154 50.2071c-.0407536 4.5963-.0818095 9.1924-.123154 13.7881h3.4251v-14.597h-3.301946c0 .3003.002658.5555 0 .8089z"/><path d="m60.7942 49.3964v14.5997h3.1398c.0317-.1674.0527-.3367.0629-.5068.0041-4.5361.0041-9.0713 0-13.6056-.0084-.1633-.0258-.3259-.0523-.4873z"/><path d="m48.4493 49.3955h-2.804v.6672c.0141 3.6785.0277 7.3572.0407 11.0363 0 .9666-.0142 1.9323-.0221 2.9006h2.8545c0-4.7971 0-9.5937 0-14.3897-.014-.074-.0373-.146-.0691-.2144z"/><path d="m56.4911 49.6011c.0041 4.7983.0106 9.5964.0195 14.3941h2.8528c-.0107-.2569-.0311-.5147-.0293-.7717.0101-4.3465.0225-8.6935.0372-13.0412 0-.2525 0-.5041 0-.7974h-2.8129c-.0321.0687-.0547.1414-.0673.2162z"/><path d="m23.329 49.3831c-.7487-.054-1.5062-.0257-2.3514-.0257v14.6369h2.711c0-3.0961 0-6.1925 0-9.2892 0-1.5947.0142-3.1833-.0124-4.7744-.0017-.1932-.209-.5369-.3472-.5476z"/><path d="m31.5603 50.1947-.023 13.7961h2.7119v-14.5935h-2.6889c0 .2959.0009.5484 0 .7974z"/><path d="m36.2276 49.6161c.0053 4.7931.0112 9.5858.0177 14.3782h2.7119v-14.5979h-2.6721c-.0268.0711-.0461.1447-.0575.2197z"/><path d="m42.2857 49.3521c-.4313.0199-.8633.0172-1.2944-.0079-.7017-.0754-.9373.1293-.932.8035.0257 3.5642-.0106 7.1293-.0142 10.6953 0 1.0507.0346 2.1015.0541 3.1522h2.2831c0-4.7676-.0036-9.5349-.0106-14.302-.0155-.1166-.0444-.231-.086-.3411z"/><path d="m52.8002 63.9952h1.8543v-14.597h-1.8543z"/><path d="m6.51266 50.2v-.8027h-1.66029v14.5988h1.71255c-.01772-.2561-.04961-.5121-.04961-.7681-.00296-4.3436-.00383-8.6862-.00265-13.028z"/><path d="m9.13951 52.6993c0 3.7653-.00207 7.5303-.00621 11.295h.9985v-14.6058h-.99229c0 1.1278.00177 2.221 0 3.3108z"/><path d="m43.4304 50.7041v12.4583c0 .2773-.0346.5546-.0523.8319h.9993c.0116-.1063.0319-.2135.0337-.3198 0-4.3707.0021-8.7391.0062-13.1051v-1.173h-.9905z"/><path d="m17.9804 63.9952h.9994v-14.597h-.9994z"/><path d="m50.6411 49.6135c.0036 4.793.0095 9.5866.0178 14.3808h.8558v-14.5979h-.8124c-.0287.0698-.0492.1426-.0612.2171z"/></g></svg>