<svg fill="none" height="43" viewBox="0 0 47 43" width="47" xmlns="http://www.w3.org/2000/svg"><g fill="#3d4f59"><path d="m28.3764 1.72459c-1.6534 1.71134-2.4446 3.74603-2.4111 6.49402.0125.47055.0555.93982.1288 1.40488.7757 4.08581 4.7143 5.80681 7.5987 3.33531 1.3044-1.1868 2.2386-2.7203 2.6918-4.41845.4532-1.69817.4064-3.48979-.1349-5.16233-1.32-3.720452-5.1118-4.51097-7.8733-1.65343z"/><path d="m20.9716 8.46088c-.0503.54788-.1444 1.09091-.2814 1.62402-.5832 1.943-1.5008 3.6948-3.7349 4.0751-2.2488.3823-3.8735-.8093-5.1094-2.5221-2.14911-2.9806-2.27157-7.29804-.3494-9.69227 1.7919-2.230147 4.4197-2.474347 6.6072-.61388 1.7817 1.51491 2.8708 4.05297 2.8679 7.12913z"/><path d="m5.95407 35.5658c.05783-2.3349.69791-4.8493 2.77024-6.6046 3.15889-2.7198 5.88849-5.8954 8.09729-9.4205 1.7312-2.6964 4.3668-3.8368 7.6595-3.5916.8078.031 1.6004.228 2.3276.5788.7272.3507 1.3732.8474 1.8972 1.4588 1.2892 1.4711 2.4474 3.0507 3.4613 4.7209 1.1762 2.1639 2.7681 4.078 4.6856 5.634 2.9476 2.2682 3.665 5.4607 3.3607 8.88-.3504 3.9391-4.407 6.5273-8.4652 5.5838-.9429-.2194-1.8769-.4749-2.8111-.7305-.8639-.2363-1.728-.4727-2.5996-.6806-2.767-.649-5.6666-.4563-8.3218.553-1.5457.5932-3.1769.9373-4.8319 1.0193-4.45086.096-7.1647-2.6727-7.22983-7.4008z"/><path d="m10.1624 19.5011c-.1021.7419-.27079 1.4732-.50399 2.1852-.99583 2.4869-3.33303 3.2818-5.70083 2.0159-2.964638-1.5839-4.671484-5.7431-3.669825-8.9418.836405-2.6727 3.630445-3.8044 6.062425-2.3648 2.56075 1.5183 3.61539 3.9275 3.81222 7.1055z"/><path d="m36.4825 19.3993c-.0603 2.5607 1.5873 4.3666 3.9541 4.3353 3.5226-.0473 7.153-4.6481 6.4828-8.216-.4845-2.5772-2.4694-3.7866-5.035-3.0627-2.8261.7944-5.3329 4.0163-5.4019 6.9434z"/></g></svg>