<svg fill="none" height="42" viewBox="0 0 46 42" width="46" xmlns="http://www.w3.org/2000/svg"><g fill="#3d505a"><path d="m28.8069 3.10248c-.0025-.82206-.3265-1.60974-.9014-2.191032-.5749-.581287-1.3538-.90895602-2.1668-.911448h-5.4781c-.8129.00249198-1.5919.330161-2.1668.911448-.5749.581292-.8989 1.368972-.9014 2.191032l-4.3842 5.98257h20.38z"/><path d="m4.5926 22.814h36.8141c.6968-.0019 1.3645-.2826 1.8574-.7807s.7709-1.1732.7731-1.8777v-2.2159l-10.8483-6.6475h-2.2381v5.8713h-2.3107v-5.8713h-1.842v4.1359c-.001.4698-.1858.92-.5142 1.2523s-.7735.5196-1.2381.5209h-4.0909c-.4646-.0013-.9097-.1886-1.2381-.5209-.3283-.3323-.5132-.7825-.5141-1.2523v-4.1359h-6.3966l-10.84256 6.6475v2.2159c.00208.7044.27975 1.3793.77235 1.8774.49259.4981 1.16008.7789 1.85671.781z"/><path d="m42.9828 30.7348c-1.2324-.4541-2.5051-.7877-3.8005-.9964-.8158-.1519-1.7609-.226-2.0937-.9578-.0553-.1207-.2752-.2086-.4312-.2994-1.9578-1.1418-4.3029-1.5393-6.7358-1.7718-.5354-.0509-1.0673-.1185-1.6013-.1737-.366-.0528-.7345-.0854-1.1039-.0974-2.4075-.0694-4.8168.0107-7.2145.2398-1.5588.1553-3.1056.4158-4.63.7798-1.2693.2372-2.4336.8694-3.3305 1.8081-.1436.1756-.3206.3204-.5204.4257-.1999.1054-.4186.1692-.6432.1877-.4313.0691-.8625.1337-1.30162.1599-2.2194.1325-4.41511.5331-6.54032 1.1933-1.21879.2849-2.296006 1.0026-3.03586 2.0225v1.5989c.493576.4825 1.0361.911 1.61856 1.2783 1.58241.7854 3.28802 1.2862 5.04035 1.4797.44273.0552.61234.1766.71871.4876.28239.6913.79914 1.2582 1.45756 1.5989 1.49022.769 3.09472 1.2868 4.75002 1.5327 1.6539.2977 3.3233.4989 5.0001.6025.3687.0334.7331.1184 1.1018.1264 3.4559.1189 6.9157-.028 10.3495-.4397 1.7026-.1883 3.377-.5819 4.9872-1.1722 1.2527-.492 2.4666-1.0393 2.8561-2.1352.0442-.0711.1022-.1326.1703-.1806.0682-.0481.1452-.0818.2265-.0992.5369-.1272 1.1003-.1998 1.6394-.3248 1.2118-.2459 2.3998-.599 3.5504-1.0553.9552-.4435 1.8157-1.0711 2.5335-1.8474v-1.8895c-.8188-.9369-1.8558-1.6523-3.0172-2.0814zm-.7266 3.7347c-.9047.407-1.845.7277-2.8087.9579-.8975.2703-1.8249.4259-2.7606.4629-.2982.0275-.5922.0899-.8761.1861-.7439.186-1.15.4753-1.0458.9992.1797.8932-.6253 1.2086-1.5179 1.4848-1.4908.447-3.0205.7488-4.5682.9012-2.4243.2875-4.867.3864-7.3064.2957-2.0222-.0408-4.0399-.2088-6.0416-.5029-1.3657-.2014-2.7104-.5281-4.0176-.976-.8315-.3132-.8783-.4157-.5412-1.0123.3127-.5524-.0582-1.1425-.95372-1.3729-.62054-.1395-1.24819-.2445-1.88016-.3146-1.50208-.1604-2.97285-.5424-4.36547-1.1338-.66122-.311-.66697-.5552.01868-.8546.64529-.2845 1.31076-.5196 1.99084-.7035 1.89425-.409 3.81049-.7055 5.73893-.8881.7122-.0578 1.4272-.0721 2.1411-.0429.3054.0394.6156-.0123.8923-.1486.2768-.1363.5082-.3514.6659-.6188.0861-.2255.0807-.4763-.0151-.6977-.1352-.3321.0567-.532.4204-.649.7069-.2479 1.4282-.4518 2.1598-.6104 2.3577-.4282 4.7471-.6529 7.1426-.6716 1.8837.1236 3.7818.1883 5.6491.3918 1.2106.1258 2.4011.4034 3.544.8263.4535.1715.7984.3633.8696.8052.0884.5472.7388.8241 1.5876.9448 1.9025.1852 3.7722.625 5.56 1.3081.1213.0371.2387.0858.3508.1454.9523.6773 1.0421.968-.0331 1.4883z"/><path d="m26.0865 32.2079c.6102-.4709.3263-1.2355-.5203-1.3888-.4505-.1112-.9257-.052-1.3361.1664-1.0544.6039-2.172 1.1497-3.2572 1.7246-1.6847.89-3.3656 1.7836-5.0426 2.681-.4592.2463-.9005.5087-1.3296.7834-.0838.0481-.1569.1131-.2149.1909s-.0997.1669-.1224.2616-.0259.1931-.0096.2891c.0164.0961.052.1877.1047.2693.1438.3365.5592.4658 1.0896.4942.3073-.0662.6087-.1575.9013-.2733.6648-.3299 1.2936-.7013 1.9405-1.0458 2.23-1.1729 4.4623-2.3444 6.697-3.5145.3833-.1818.7511-.3951 1.0996-.6381z"/><path d="m31.3698 30.8445c-.4168.1426-.821.3205-1.2082.532-2.1647 1.157-4.3235 2.3198-6.4763 3.4884-.7288.3932-1.4662.7783-2.172 1.1919-.5433.3168-.654.88-.2968 1.2354.2441.188.5337.3061.8385.342.3048.0357.6135-.012.8936-.1385.2287-.0981.4523-.208.6699-.3292 1.8456-.9787 3.6903-1.9584 5.5341-2.939 1.1082-.5901 2.2186-1.1766 3.3212-1.7718.3866-.2085.7295-.4455.6669-.7928-.0345-.6657-.9659-1.0829-1.7709-.8184z"/></g></svg>