<svg width="65" height="63" viewBox="0 0 65 63" fill="none" xmlns="http://www.w3.org/2000/svg">
<g clip-path="url(#clip0)">
<path d="M41.1194 9.97568C41.1165 9.03757 40.7266 8.13868 40.0348 7.47534C39.343 6.81199 38.4056 6.43809 37.4273 6.4353H25.564C24.5857 6.43809 23.6483 6.81199 22.9565 7.47534C22.2647 8.13868 21.8748 9.03757 21.8719 9.97568L19.2362 16.8018H43.7557L41.1194 9.97568Z" fill="#15ADC9"/>
<path d="M9.21767 32.4571H53.7736C54.612 32.4548 55.4154 32.1345 56.0084 31.5661C56.6014 30.9977 56.9357 30.2275 56.9385 29.4235V23.8707C56.9357 23.0668 56.6014 22.2965 56.0084 21.7281C55.4154 21.1598 54.612 20.8395 53.7736 20.8372L37.0762 19.7005V22.0167C37.0742 22.6867 36.7957 23.3287 36.3016 23.8025C35.8075 24.2763 35.138 24.5433 34.4393 24.5453H28.552C27.8533 24.5433 27.1837 24.2763 26.6897 23.8025C26.1956 23.3287 25.9171 22.6867 25.915 22.0167V19.6993L9.21767 20.8372C8.37926 20.8395 7.57585 21.1598 6.98288 21.7281C6.38992 22.2965 6.05556 23.0668 6.05283 23.8707V29.4235C6.05556 30.2275 6.38992 30.9977 6.98288 31.5661C7.57585 32.1345 8.37926 32.4548 9.21767 32.4571ZM41.6564 23.5335C41.6576 23.1315 41.8246 22.7464 42.121 22.4622C42.4174 22.178 42.819 22.0178 43.2382 22.0167H44.292C44.7112 22.0178 45.1128 22.178 45.4092 22.4622C45.7056 22.7464 45.8726 23.1315 45.8738 23.5335V27.4105C45.8726 27.8124 45.7056 28.1975 45.4092 28.4817C45.1128 28.7659 44.7112 28.9261 44.292 28.9272H43.2382C42.819 28.9261 42.4174 28.7659 42.121 28.4817C41.8246 28.1975 41.6576 27.8124 41.6564 27.4105V23.5335Z" fill="#15ADC9"/>
<path d="M24.6487 37.5117L19.7635 41.5061C19.5836 41.6705 19.4761 41.8946 19.4633 42.1326C19.4504 42.3705 19.5331 42.6041 19.6944 42.7854C19.8556 42.9667 20.0832 43.0818 20.3302 43.1072C20.5773 43.1325 20.8251 43.0661 21.0227 42.9217L25.9079 38.9273C26.013 38.8505 26.1006 38.754 26.1654 38.6436C26.2302 38.5333 26.2709 38.4114 26.2849 38.2855C26.299 38.1595 26.2861 38.0322 26.2471 37.9112C26.2081 37.7902 26.1437 37.6781 26.058 37.5817C25.9723 37.4854 25.867 37.4068 25.7486 37.3508C25.6301 37.2947 25.501 37.2625 25.3691 37.2559C25.2372 37.2494 25.1053 37.2687 24.9814 37.3127C24.8576 37.3566 24.7444 37.4244 24.6487 37.5117Z" fill="#15ADC9"/>
<path d="M18.8204 43.5012C18.6531 43.3136 18.415 43.1973 18.1584 43.1778C17.9018 43.1584 17.6476 43.2373 17.4517 43.3974L6.10464 52.6844C5.92472 52.8487 5.81729 53.0729 5.80444 53.3108C5.79158 53.5488 5.87429 53.7824 6.03554 53.9637C6.19679 54.1449 6.42433 54.2601 6.67139 54.2854C6.91845 54.3108 7.16626 54.2444 7.36385 54.0999L18.7109 44.813C18.9066 44.6528 19.028 44.4247 19.0485 44.1788C19.069 43.9329 18.987 43.6892 18.8204 43.5012Z" fill="#15ADC9"/>
<path d="M64.2087 37.6161C64.0416 37.4283 63.8036 37.3117 63.547 37.2921C63.2904 37.2724 63.0361 37.3512 62.84 37.5111L54.058 44.6968C53.878 44.8612 53.7706 45.0853 53.7578 45.3233C53.7449 45.5612 53.8276 45.7948 53.9888 45.9761C54.1501 46.1574 54.3776 46.2725 54.6247 46.2978C54.8718 46.3232 55.1196 46.2568 55.3172 46.1124L64.1005 38.9304C64.1976 38.8509 64.2775 38.7539 64.3356 38.6448C64.3936 38.5358 64.4286 38.4168 64.4387 38.2947C64.4487 38.1727 64.4336 38.0499 64.3941 37.9334C64.3546 37.817 64.2916 37.7092 64.2087 37.6161Z" fill="#15ADC9"/>
<path d="M34.3726 37.5117L27.7967 42.8881C27.6137 43.0517 27.5036 43.2767 27.4893 43.5162C27.475 43.7557 27.5575 43.9913 27.7198 44.1739C27.8821 44.3565 28.1116 44.472 28.3605 44.4964C28.6094 44.5208 28.8585 44.4522 29.0559 44.3049L35.6318 38.9273C35.7368 38.8505 35.8244 38.754 35.8892 38.6436C35.954 38.5333 35.9947 38.4114 36.0088 38.2855C36.0228 38.1595 36.0099 38.0322 35.9709 37.9112C35.9319 37.7902 35.8676 37.6781 35.7819 37.5817C35.6962 37.4854 35.5909 37.4068 35.4724 37.3508C35.3539 37.2947 35.2248 37.2625 35.0929 37.2559C34.961 37.2494 34.8291 37.2687 34.7053 37.3127C34.5814 37.3566 34.4682 37.4244 34.3726 37.5117Z" fill="#15ADC9"/>
<path d="M26.8504 44.8844C26.6833 44.6966 26.4453 44.5801 26.1887 44.5604C25.9321 44.5407 25.6778 44.6195 25.4817 44.7794L11.9583 55.8353C11.7783 55.9997 11.6709 56.2238 11.658 56.4618C11.6452 56.6997 11.7279 56.9333 11.8891 57.1146C12.0504 57.2959 12.2779 57.411 12.525 57.4364C12.7721 57.4617 13.0199 57.3953 13.2175 57.2509L26.7409 46.195C26.9362 46.0348 27.0573 45.807 27.0779 45.5614C27.0984 45.3157 27.0166 45.0723 26.8504 44.8844Z" fill="#15ADC9"/>
<path d="M36.4563 45.9099C36.6871 45.9098 36.9103 45.831 37.0859 45.6875L45.353 38.9273C45.458 38.8505 45.5456 38.754 45.6105 38.6436C45.6753 38.5333 45.7159 38.4114 45.73 38.2855C45.744 38.1595 45.7312 38.0322 45.6922 37.9112C45.6532 37.7902 45.5888 37.6781 45.5031 37.5817C45.4174 37.4854 45.3121 37.4068 45.1936 37.3508C45.0752 37.2947 44.9461 37.2625 44.8142 37.2559C44.6823 37.2494 44.5504 37.2687 44.4265 37.3127C44.3027 37.3566 44.1894 37.4244 44.0938 37.5117L35.8267 44.2707C35.6762 44.3945 35.5687 44.5594 35.5187 44.7435C35.4687 44.9275 35.4787 45.1218 35.5472 45.3002C35.6158 45.4786 35.7396 45.6327 35.9021 45.7417C36.0646 45.8507 36.258 45.9093 36.4563 45.9099Z" fill="#15ADC9"/>
<path d="M34.881 46.2676C34.714 46.0798 34.476 45.9633 34.2193 45.9436C33.9627 45.9239 33.7085 46.0027 33.5124 46.1627L21.6801 55.8366C21.5002 56.0009 21.3928 56.2251 21.3799 56.463C21.3671 56.701 21.4498 56.9346 21.611 57.1159C21.7723 57.2971 21.9998 57.4123 22.2469 57.4376C22.494 57.463 22.7418 57.3966 22.9393 57.2521L34.7716 47.5782C34.9668 47.418 35.088 47.1902 35.1085 46.9446C35.129 46.699 35.0472 46.4556 34.881 46.2676Z" fill="#15ADC9"/>
<path d="M55.1831 37.6161C55.016 37.4283 54.778 37.3117 54.5214 37.2921C54.2648 37.2724 54.0105 37.3512 53.8144 37.5111L35.9803 52.0931C35.8003 52.2574 35.6929 52.4816 35.68 52.7195C35.6672 52.9575 35.7499 53.1911 35.9111 53.3724C36.0724 53.5536 36.2999 53.6688 36.547 53.6941C36.7941 53.7195 37.0419 53.6531 37.2395 53.5086L55.0736 38.9266C55.2689 38.7665 55.39 38.5387 55.4105 38.293C55.4311 38.0474 55.3493 37.804 55.1831 37.6161Z" fill="#15ADC9"/>
<path d="M33.6665 53.9838L31.3994 55.8366C31.2195 56.0009 31.1121 56.2251 31.0993 56.463C31.0864 56.701 31.1691 56.9346 31.3303 57.1159C31.4916 57.2971 31.7191 57.4123 31.9662 57.4376C32.2133 57.463 32.4611 57.3966 32.6586 57.2521L34.9257 55.4006C35.1087 55.237 35.2188 55.012 35.2332 54.7725C35.2475 54.533 35.1649 54.2974 35.0026 54.1148C34.8403 53.9322 34.6109 53.8167 34.362 53.7923C34.1131 53.7679 33.864 53.8365 33.6665 53.9838Z" fill="#15ADC9"/>
<path d="M51.7242 46.5993L40.1763 55.8285C40.0693 55.9037 39.9794 55.9992 39.9123 56.1089C39.8452 56.2187 39.8023 56.3405 39.7861 56.4668C39.77 56.5931 39.781 56.7213 39.8185 56.8433C39.856 56.9654 39.9192 57.0788 40.0042 57.1766C40.0892 57.2743 40.1941 57.3543 40.3126 57.4117C40.431 57.4691 40.5605 57.5025 40.6929 57.5101C40.8254 57.5176 40.9581 57.4991 41.0828 57.4556C41.2075 57.4121 41.3216 57.3445 41.418 57.2571L52.9672 48.0279C53.0731 47.9522 53.1619 47.8566 53.228 47.747C53.2941 47.6373 53.3362 47.5158 53.3518 47.39C53.3673 47.2642 53.3559 47.1367 53.3182 47.0153C53.2806 46.8938 53.2176 46.781 53.1329 46.6838C53.0483 46.5865 52.9438 46.5068 52.826 46.4495C52.7081 46.3923 52.5794 46.3587 52.4475 46.3508C52.3156 46.3429 52.1835 46.3608 52.0591 46.4036C51.9348 46.4463 51.8208 46.5129 51.7242 46.5993Z" fill="#15ADC9"/>
<path d="M15.9023 37.5117L7.11901 44.6968C7.01287 44.7732 6.92415 44.8695 6.85834 44.98C6.79252 45.0905 6.751 45.2127 6.73633 45.3392C6.72167 45.4656 6.73415 45.5936 6.77304 45.7152C6.81193 45.8369 6.8764 45.9496 6.96245 46.0464C7.04851 46.1433 7.15434 46.2222 7.27341 46.2783C7.39249 46.3344 7.52228 46.3666 7.65481 46.3727C7.78733 46.3789 7.91978 46.359 8.04397 46.3142C8.16816 46.2694 8.28147 46.2007 8.37691 46.1123L17.1615 38.9304C17.2666 38.8536 17.3542 38.757 17.419 38.6467C17.4838 38.5364 17.5245 38.4145 17.5385 38.2886C17.5526 38.1626 17.5397 38.0353 17.5007 37.9143C17.4617 37.7933 17.3974 37.6812 17.3116 37.5848C17.2259 37.4885 17.1206 37.4099 17.0022 37.3539C16.8837 37.2978 16.7546 37.2656 16.6227 37.259C16.4908 37.2525 16.3589 37.2718 16.235 37.3158C16.1112 37.3597 15.998 37.4275 15.9023 37.5148V37.5117Z" fill="#15ADC9"/>
<path d="M8.24476 37.6161C8.07768 37.4283 7.83969 37.3117 7.58307 37.2921C7.32645 37.2724 7.07218 37.3512 6.87609 37.5111L0.355956 42.8894C0.176037 43.0537 0.0686206 43.2779 0.055768 43.5158C0.0429154 43.7537 0.125618 43.9874 0.286869 44.1686C0.448119 44.3499 0.675666 44.4651 0.922726 44.4904C1.16979 44.5157 1.41757 44.4494 1.61516 44.3049L8.13529 38.9266C8.33056 38.7665 8.45171 38.5387 8.47223 38.293C8.49274 38.0474 8.41096 37.804 8.24476 37.6161Z" fill="#15ADC9"/>
</g>
<defs>
<clipPath id="clip0">
<rect width="64.3872" height="61.697" fill="white" transform="translate(0.0544548 0.647095)"/>
</clipPath>
</defs>
</svg>
