<svg width="65" height="63" viewBox="0 0 65 63" fill="none" xmlns="http://www.w3.org/2000/svg">
<path d="M39.7708 6.32652C39.7668 5.33314 39.3549 4.38154 38.6249 3.6791C37.8948 2.97667 36.9058 2.58036 35.8734 2.57654H28.9141C27.8817 2.58036 26.8927 2.97667 26.1626 3.6791C25.4326 4.38154 25.0207 5.33314 25.0167 6.32652L19.4494 13.5577H45.3381L39.7708 6.32652Z" fill="#15ADC9"/>
<path d="M9.01074 30.1533H55.7754C56.6604 30.151 57.5086 29.8118 58.1345 29.2098C58.7605 28.6078 59.1134 27.7918 59.1161 26.9403V24.2608L45.336 16.2259H42.4916V23.323H39.5566V16.2259H37.2181V21.2261C37.2162 21.7938 36.9811 22.3377 36.5639 22.7392C36.1467 23.1406 35.5814 23.3669 34.9914 23.3686H29.7947C29.2047 23.3669 28.6394 23.1406 28.2222 22.7392C27.805 22.3377 27.5699 21.7938 27.5681 21.2261V16.2259H19.4453L5.67007 24.2608V26.9403C5.6726 27.7919 6.02543 28.6079 6.65141 29.21C7.2774 29.8121 8.12565 30.1512 9.01074 30.1533Z" fill="#15ADC9"/>
<path d="M20.1674 33.8379L4.70429 44.1488C4.34758 44.3866 4.10369 44.7511 4.02626 45.162C3.94883 45.5729 4.04421 45.9965 4.29143 46.3398C4.53864 46.683 4.91744 46.9177 5.34448 46.9922C5.77152 47.0667 6.21183 46.9749 6.56854 46.737L22.0309 36.4262C22.3813 36.186 22.6192 35.8226 22.6932 35.4148C22.7672 35.0071 22.6713 34.5876 22.4263 34.2474C22.1813 33.9071 21.8069 33.6734 21.3841 33.5967C20.9614 33.5201 20.5242 33.6067 20.1674 33.8379Z" fill="#15ADC9"/>
<path d="M20.1674 40.5692L5.65014 50.2645C5.29774 50.5041 5.05792 50.8679 4.98283 51.2767C4.90774 51.6856 5.00346 52.1065 5.24917 52.4478C5.49488 52.7891 5.87071 53.0233 6.29491 53.0993C6.71912 53.1754 7.15737 53.0873 7.51439 52.8541L22.0309 43.1574C22.2107 43.041 22.3647 42.8913 22.4838 42.7172C22.603 42.543 22.685 42.3478 22.7251 42.1428C22.7653 41.9379 22.7627 41.7273 22.7175 41.5234C22.6724 41.3194 22.5856 41.1261 22.4622 40.9547C22.3387 40.7833 22.1812 40.6372 21.9986 40.5248C21.816 40.4125 21.612 40.3362 21.3985 40.3003C21.185 40.2644 20.9663 40.2697 20.7549 40.3159C20.5436 40.362 20.3438 40.4481 20.1674 40.5692Z" fill="#15ADC9"/>
<path d="M25.8274 38.2563C25.6507 38.1385 25.4517 38.0553 25.2417 38.0114C25.0316 37.9676 24.8147 37.964 24.6032 38.0009C24.3917 38.0378 24.1899 38.1143 24.0091 38.2263C23.8284 38.3382 23.6724 38.4833 23.5499 38.6532C23.4275 38.8232 23.341 39.0147 23.2955 39.2168C23.2499 39.4189 23.2462 39.6276 23.2845 39.8311C23.3228 40.0346 23.4024 40.2288 23.5187 40.4027C23.635 40.5766 23.7858 40.7267 23.9624 40.8446L39.4241 51.1554C39.781 51.3934 40.2215 51.4851 40.6488 51.4106C41.076 51.336 41.455 51.1012 41.7023 50.7578C41.9496 50.4144 42.045 49.9905 41.9675 49.5795C41.89 49.1684 41.646 48.8037 41.2891 48.5658L25.8274 38.2563Z" fill="#15ADC9"/>
<path d="M25.8274 44.9862C25.6507 44.8684 25.4517 44.7852 25.2417 44.7414C25.0316 44.6976 24.8147 44.694 24.6032 44.7308C24.3917 44.7677 24.1899 44.8443 24.0091 44.9562C23.8284 45.0681 23.6724 45.2132 23.5499 45.3831C23.4275 45.5531 23.341 45.7446 23.2955 45.9467C23.2499 46.1488 23.2462 46.3575 23.2845 46.561C23.3228 46.7645 23.4024 46.9587 23.5187 47.1326C23.635 47.3065 23.7858 47.4566 23.9624 47.5745L39.4241 57.8853C39.781 58.1233 40.2215 58.2151 40.6488 58.1405C41.076 58.0659 41.455 57.8311 41.7023 57.4877C41.9496 57.1443 42.045 56.7205 41.9675 56.3094C41.89 55.8983 41.646 55.5337 41.2891 55.2957L25.8274 44.9862Z" fill="#15ADC9"/>
<path d="M53.8103 49.5459C54.5421 49.3728 55.2292 49.0569 55.8289 48.6178C56.4287 48.1787 56.9284 47.6258 57.297 46.9933C57.6656 46.3608 57.8953 45.6622 57.9718 44.9408C58.0483 44.2194 57.9701 43.4906 57.7419 42.7995C57.0081 40.9439 56.1364 39.1415 55.1336 37.4063C54.31 35.9012 53.314 34.4825 52.3441 32.945C52.1142 33.2752 51.9707 33.478 51.8348 33.6827C49.9379 36.3702 48.3294 39.236 47.0342 42.2361C46.6218 43.1812 46.496 44.2193 46.6715 45.2303C46.847 46.2413 47.3165 47.1838 48.0257 47.9486C48.7349 48.7135 49.6547 49.2693 50.6787 49.5519C51.7027 49.8345 52.7889 49.8322 53.8116 49.5452L53.8103 49.5459Z" fill="#15ADC9"/>
<path d="M56.1989 35.3259C56.7103 36.2611 57.2196 37.2029 57.7035 38.1533L60.2939 36.4262C60.4706 36.3084 60.6213 36.1583 60.7377 35.9845C60.854 35.8106 60.9336 35.6164 60.972 35.413C61.0103 35.2095 61.0066 35.0008 60.9611 34.7987C60.9156 34.5966 60.8292 34.4051 60.7068 34.2352C60.5844 34.0652 60.4284 33.9202 60.2477 33.8082C60.067 33.6963 59.8652 33.6197 59.6538 33.5828C59.4423 33.5459 59.2254 33.5494 59.0153 33.5932C58.8053 33.637 58.6063 33.7202 58.4297 33.8379L56.1989 35.3259Z" fill="#15ADC9"/>
<path d="M42.9687 44.1488C42.6821 44.34 42.4665 44.6143 42.3534 44.9316C42.2402 45.249 42.2354 45.5929 42.3396 45.9131C42.4438 46.2333 42.6516 46.5131 42.9327 46.7117C43.2138 46.9103 43.5534 47.0173 43.9022 47.0171C44.2349 47.0179 44.5599 46.9202 44.8329 46.737L45.1075 46.5541C45.0191 46.309 44.9455 46.0591 44.8871 45.8058C44.6675 44.8407 44.665 43.8416 44.8796 42.8754L42.9687 44.1488Z" fill="#15ADC9"/>
<path d="M42.5569 53.07C42.6793 53.2399 42.8353 53.3849 43.016 53.4968C43.1967 53.6087 43.3985 53.6852 43.6099 53.722C43.8213 53.7588 44.0382 53.7552 44.2482 53.7113C44.4582 53.6674 44.6571 53.5842 44.8336 53.4663L48.9973 50.6924C47.9575 50.2105 47.0429 49.511 46.3203 48.6451L42.9707 50.8774C42.7939 50.9952 42.643 51.1454 42.5265 51.3193C42.41 51.4933 42.3303 51.6876 42.2918 51.8912C42.2534 52.0948 42.257 52.3037 42.3025 52.506C42.348 52.7082 42.4344 52.8999 42.5569 53.07Z" fill="#15ADC9"/>
<path d="M58.7791 40.3968C59.0468 41.0031 59.298 41.6133 59.5245 42.2328C59.6696 42.6332 59.773 43.0465 59.8333 43.4665L60.2939 43.1588C60.6231 42.9402 60.8576 42.613 60.9529 42.2392C61.0482 41.8654 60.9978 41.4709 60.8111 41.1305C60.6244 40.7902 60.3144 40.5275 59.9399 40.3922C59.5654 40.257 59.1524 40.2586 58.7791 40.3968Z" fill="#15ADC9"/>
<path d="M59.3371 47.0184C58.7458 48.3503 57.7541 49.4816 56.4893 50.267C55.2246 51.0523 53.7447 51.4558 52.2398 51.4255L42.9666 57.6079C42.6197 57.8496 42.3851 58.2124 42.313 58.6186C42.2409 59.0249 42.3372 59.4421 42.5811 59.7808C42.825 60.1195 43.1972 60.3528 43.6177 60.4306C44.0383 60.5084 44.4738 60.4244 44.8308 60.1969L60.2939 49.8867C60.5827 49.6946 60.7996 49.4183 60.9125 49.0986C61.0255 48.7788 61.0286 48.4326 60.9213 48.111C60.814 47.7894 60.6021 47.5096 60.3168 47.3128C60.0315 47.1161 59.688 47.0128 59.3371 47.0184Z" fill="#15ADC9"/>
</svg>
