<svg width="65" height="63" viewBox="0 0 65 63" fill="none" xmlns="http://www.w3.org/2000/svg">
<path d="M39.7771 10.1403C39.774 9.15859 39.363 8.21791 38.6338 7.52373C37.9045 6.82954 36.9164 6.43824 35.8851 6.4353H28.933C27.9017 6.43824 26.9136 6.82954 26.1843 7.52373C25.4551 8.21791 25.0441 9.15859 25.041 10.1403L19.4815 17.2868H45.3345L39.7771 10.1403Z" fill="#15ADC9"/>
<path d="M9.05961 33.681H55.7606C56.6445 33.6786 57.4915 33.3433 58.1166 32.7484C58.7417 32.1534 59.0941 31.3472 59.0968 30.5058V27.8603L45.3332 19.9211H42.4956V26.9365H39.5643V19.9211H37.2281V24.8607C37.2269 25.4218 36.9923 25.9595 36.5756 26.3564C36.159 26.7532 35.5943 26.9769 35.0049 26.9784H29.8153C29.2259 26.9769 28.6612 26.7532 28.2446 26.3564C27.8279 25.9595 27.5933 25.4218 27.5921 24.8607V19.9211H19.4795L5.72406 27.8603V30.5064C5.72679 31.3477 6.07911 32.1538 6.70407 32.7486C7.32904 33.3434 8.17588 33.6786 9.05961 33.681Z" fill="#15ADC9"/>
<path d="M57.7593 43.1412C56.1959 42.5989 54.5814 42.2004 52.9382 41.9512C51.9051 41.7703 50.7046 41.6811 50.2817 40.8071C50.2128 40.6629 49.9325 40.558 49.7307 40.4492C47.2472 39.0861 44.2725 38.6134 41.1856 38.3328C40.5065 38.2718 39.8316 38.1918 39.1539 38.1249C38.6897 38.0618 38.2223 38.0228 37.7536 38.0082C34.6997 37.9255 31.6434 38.0212 28.6017 38.2947C26.6243 38.4801 24.6621 38.7912 22.7282 39.2258C21.0064 39.6677 19.4292 40.2748 18.5035 41.3854C18.3216 41.595 18.0975 41.7678 17.8444 41.8936C17.5912 42.0195 17.3142 42.0959 17.0296 42.1184C16.4848 42.2004 15.9325 42.2784 15.3767 42.3092C12.5634 42.4687 9.78017 42.9478 7.08639 43.7365C5.37007 44.2375 4.01257 44.9862 3.23499 46.1519V48.0592C3.8611 48.6352 4.54927 49.1468 5.28809 49.5855C7.29533 50.5246 9.45908 51.1236 11.6823 51.3557C12.2436 51.4213 12.4592 51.5668 12.5963 51.9379C12.9539 52.7643 13.6093 53.4422 14.4448 53.8498C16.2073 54.8509 18.3451 55.2574 20.4699 55.6803C22.5677 56.0364 24.6854 56.2772 26.8124 56.4015C27.2801 56.4415 27.7422 56.5425 28.2106 56.5523C32.5933 56.6944 36.981 56.519 41.3358 56.0278C43.4957 55.8029 45.6197 55.3329 47.6625 54.628C49.2521 54.0379 50.7914 53.3869 51.2859 52.0782C51.3419 51.9933 51.4153 51.9199 51.5016 51.8625C51.588 51.805 51.6856 51.7647 51.7887 51.7439C52.4705 51.5917 53.184 51.5052 53.868 51.3564C55.4051 51.0628 56.9121 50.6411 58.3716 50.0962C59.5834 49.5666 60.6752 48.8172 61.5859 47.89V45.6307C60.548 44.5105 59.2327 43.6548 57.7593 43.1412ZM56.8371 47.5996C55.6895 48.0856 54.4967 48.4686 53.2743 48.7437C52.1357 49.0667 50.9592 49.2526 49.7721 49.297C49.394 49.3299 49.0211 49.4045 48.6611 49.5193C47.7169 49.7415 47.2003 50.0871 47.3339 50.7125C47.5612 51.7793 46.5405 52.1549 45.4055 52.4828C43.5141 53.0168 41.5733 53.3773 39.6098 53.5593C36.5344 53.9027 33.4359 54.0209 30.3415 53.9127C27.7764 53.8637 25.2169 53.6629 22.678 53.3115C20.9455 53.0711 19.2395 52.6812 17.5813 52.1464C16.5262 51.7721 16.4669 51.6501 16.8926 50.9374C17.2893 50.2772 16.8189 49.573 15.6825 49.2983C14.8964 49.1316 14.1013 49.006 13.3008 48.922C11.3955 48.7302 9.52989 48.2738 7.76342 47.5674C6.92454 47.1963 6.91765 46.9039 7.78684 46.5466C8.60545 46.2069 9.44968 45.9262 10.3124 45.7067C12.7153 45.2183 15.1461 44.8641 17.5923 44.6459C18.4957 44.5769 19.4025 44.5599 20.308 44.5948C21.2688 44.5817 21.9933 44.2991 22.2847 43.6769C22.3941 43.4076 22.3874 43.1081 22.2661 42.8436C22.0946 42.4502 22.3384 42.2083 22.7992 42.0679C23.6961 41.7718 24.6114 41.5283 25.5396 41.3389C28.5306 40.8275 31.5619 40.5592 34.6006 40.537C36.9905 40.6845 39.3983 40.7613 41.7676 41.0045C43.3031 41.1537 44.8131 41.4841 46.263 41.988C46.8381 42.1925 47.2761 42.4259 47.3649 42.9498C47.4772 43.6054 48.3023 43.9332 49.3795 44.0742C51.793 44.2963 54.1649 44.8225 56.4328 45.6392C56.5867 45.6844 56.7356 45.7434 56.8777 45.8156C58.0878 46.6371 58.2022 46.9839 56.8378 47.6015L56.8371 47.5996Z" fill="#15ADC9"/>
<path d="M36.3259 44.897C37.0994 44.3352 36.7391 43.4251 35.6654 43.2383C35.0943 43.1049 34.4918 43.1749 33.9711 43.435C32.6336 44.1562 31.2162 44.8079 29.8387 45.495C27.7018 46.558 25.5697 47.6251 23.4425 48.6965C22.8598 48.9908 22.2999 49.3062 21.7564 49.6321C21.6501 49.6896 21.5572 49.7672 21.4836 49.8602C21.41 49.9531 21.3572 50.0595 21.3284 50.1726C21.2996 50.2858 21.2955 50.4034 21.3163 50.5181C21.337 50.6328 21.3823 50.7423 21.4493 50.8397C21.6304 51.2416 22.1587 51.3964 22.8309 51.4298C23.2209 51.3504 23.6035 51.2408 23.9748 51.102C24.8185 50.7086 25.612 50.2641 26.4398 49.8563C29.2687 48.4554 32.1008 47.0567 34.936 45.6602C35.4206 45.4426 35.8854 45.1873 36.3259 44.897Z" fill="#15ADC9"/>
<path d="M43.028 43.2717C42.4993 43.442 41.9866 43.6545 41.4955 43.907C38.7498 45.2891 36.0112 46.6773 33.2796 48.0716C32.3554 48.5417 31.4201 49.0013 30.5247 49.495C29.836 49.874 29.6982 50.544 30.148 50.9669C30.4576 51.1916 30.8251 51.3327 31.2118 51.3755C31.5985 51.4183 31.9902 51.3612 32.3457 51.2102C32.6359 51.093 32.9196 50.9617 33.1956 50.8168C35.5373 49.648 37.8767 48.4781 40.2138 47.3072C41.6202 46.603 43.0287 45.9021 44.4268 45.1908C44.9172 44.9416 45.3525 44.6584 45.2726 44.244C45.2306 43.454 44.0494 42.955 43.028 43.2717Z" fill="#15ADC9"/>
</svg>
