<svg width="65" height="63" viewBox="0 0 65 63" fill="none" xmlns="http://www.w3.org/2000/svg">
<path d="M39.8521 8.16943C39.849 7.19868 39.4371 6.26853 38.7062 5.58211C37.9754 4.89568 36.985 4.50877 35.9514 4.50586H28.9856C27.952 4.50877 26.9616 4.89568 26.2308 5.58211C25.4999 6.26853 25.088 7.19868 25.0849 8.16943L19.5131 15.2352H45.4239L39.8521 8.16943Z" fill="#15ADC9"/>
<path d="M9.06498 31.4492H55.8734C56.7591 31.4466 57.6078 31.115 58.2341 30.5268C58.8604 29.9386 59.2134 29.1415 59.2162 28.3097V25.6928L45.4246 17.8456H42.5776V24.7745H39.636V17.8423H37.2952V22.7264C37.2933 23.2812 37.058 23.8127 36.6404 24.2051C36.2228 24.5974 35.6569 24.8187 35.0662 24.8205H29.8653C29.2745 24.8188 28.7086 24.5976 28.2909 24.2053C27.8733 23.8129 27.6379 23.2812 27.6363 22.7264V17.8423H19.509L5.72152 25.6896V28.3064C5.72334 29.139 6.0761 29.937 6.70264 30.5259C7.32919 31.1148 8.17855 31.4468 9.06498 31.4492Z" fill="#15ADC9"/>
<path d="M6.46314 36.2749C8.16525 36.2749 8.96969 37.2289 9.98888 38.4352C11.1047 39.7569 12.4941 41.4029 15.1208 41.4029C17.7475 41.4029 19.1361 39.7576 20.2527 38.4352C21.2719 37.2283 22.0763 36.2749 23.7777 36.2749C25.4791 36.2749 26.2843 37.2289 27.3035 38.4352C28.4193 39.7569 29.8087 41.4029 32.4354 41.4029C35.0621 41.4029 36.4507 39.7576 37.5672 38.4352C38.5864 37.2283 39.3909 36.2749 41.0923 36.2749C42.7937 36.2749 43.5988 37.2289 44.618 38.4352C45.7346 39.7569 47.1232 41.4029 49.7513 41.4029C52.3794 41.4029 53.768 39.7576 54.8846 38.4352C55.9024 37.2283 56.7082 36.2749 58.4103 36.2749C59.067 36.2749 59.6001 35.5868 59.6001 34.7366C59.6001 33.8864 59.067 33.1983 58.4103 33.1983C55.7864 33.1983 54.3936 34.8436 53.2771 36.166C52.2579 37.3729 51.4534 38.3263 49.752 38.3263C48.0506 38.3263 47.2441 37.3723 46.2256 36.166C45.1097 34.8443 43.7204 33.1983 41.0937 33.1983C38.467 33.1983 37.077 34.8436 35.9604 36.166C34.9426 37.3729 34.1381 38.3263 32.4388 38.3263C30.7394 38.3263 29.9322 37.3723 28.9131 36.166C27.7965 34.8443 26.4079 33.1983 23.7812 33.1983C21.1545 33.1983 19.7645 34.8436 18.6493 36.166C17.6301 37.3729 16.8256 38.3263 15.1242 38.3263C13.4228 38.3263 12.6177 37.3723 11.5985 36.166C10.4826 34.8443 9.0933 33.1983 6.46659 33.1983C5.80992 33.1983 5.27682 33.887 5.27682 34.7366C5.27682 35.5862 5.80646 36.2749 6.46314 36.2749Z" fill="#15ADC9"/>
<path d="M58.4103 41.7609C55.7864 41.7609 54.3936 43.4075 53.2771 44.7292C52.2579 45.9362 51.4534 46.8895 49.752 46.8895C48.0506 46.8895 47.2441 45.9355 46.2256 44.7292C45.1097 43.4075 43.7204 41.7609 41.0937 41.7609C38.467 41.7609 37.077 43.4075 35.9604 44.7292C34.9426 45.9362 34.1381 46.8895 32.4388 46.8895C30.7394 46.8895 29.9322 45.9355 28.9131 44.7292C27.7965 43.4075 26.4079 41.7609 23.7812 41.7609C21.1545 41.7609 19.7645 43.4075 18.6493 44.7292C17.6301 45.9362 16.8256 46.8895 15.1242 46.8895C13.4228 46.8895 12.6177 45.9355 11.5985 44.7292C10.4826 43.4075 9.0933 41.7609 6.46659 41.7609C5.80992 41.7609 5.27682 42.4503 5.27682 43.2999C5.27682 44.1494 5.80992 44.8382 6.46659 44.8382C8.1687 44.8382 8.97314 45.7909 9.99234 46.9985C11.1082 48.3202 12.4975 49.9662 15.1242 49.9662C17.7509 49.9662 19.1396 48.3208 20.2561 46.9985C21.2753 45.7909 22.0797 44.8382 23.7812 44.8382C25.4826 44.8382 26.2877 45.7909 27.3069 46.9985C28.4228 48.3202 29.8121 49.9662 32.4388 49.9662C35.0655 49.9662 36.4541 48.3208 37.5707 46.9985C38.5899 45.7909 39.3943 44.8382 41.0958 44.8382C42.7972 44.8382 43.6023 45.7922 44.6215 46.9985C45.7381 48.3202 47.1267 49.9662 49.7548 49.9662C52.3829 49.9662 53.7715 48.3208 54.888 46.9985C55.9058 45.7915 56.7117 44.8382 58.4138 44.8382C59.0705 44.8382 59.6035 44.1494 59.6035 43.2999C59.6035 42.4503 59.067 41.7609 58.4103 41.7609Z" fill="#15ADC9"/>
<path d="M58.4103 50.3241C55.7864 50.3241 54.3936 51.9695 53.2771 53.2925C52.2579 54.4994 51.4534 55.4514 49.752 55.4514C48.0506 55.4514 47.2441 54.4987 46.2256 53.2925C45.1097 51.9695 43.7204 50.3241 41.0937 50.3241C38.467 50.3241 37.077 51.9695 35.9604 53.2925C34.9426 54.4994 34.1381 55.4514 32.4388 55.4514C30.7394 55.4514 29.9322 54.4987 28.9131 53.2925C27.7965 51.9695 26.4079 50.3241 23.7812 50.3241C21.1545 50.3241 19.7645 51.9695 18.6493 53.2925C17.6301 54.4994 16.8256 55.4514 15.1242 55.4514C13.4228 55.4514 12.6177 54.4987 11.5985 53.2925C10.4826 51.9695 9.0933 50.3241 6.46659 50.3241C5.80992 50.3241 5.27682 51.0122 5.27682 51.8631C5.27682 52.714 5.80992 53.4014 6.46659 53.4014C8.1687 53.4014 8.97314 54.3541 9.99234 55.5617C11.1082 56.8834 12.4975 58.5294 15.1242 58.5294C17.7509 58.5294 19.1396 56.8841 20.2561 55.5617C21.2753 54.3541 22.0797 53.4014 23.7812 53.4014C25.4826 53.4014 26.2877 54.3541 27.3069 55.5617C28.4228 56.8834 29.8121 58.5294 32.4388 58.5294C35.0655 58.5294 36.4541 56.8841 37.5707 55.5617C38.5899 54.3541 39.3943 53.4014 41.0958 53.4014C42.7972 53.4014 43.6023 54.3554 44.6215 55.5617C45.7381 56.8834 47.1267 58.5294 49.7548 58.5294C52.3829 58.5294 53.7715 56.8841 54.888 55.5617C55.9058 54.3548 56.7117 53.4014 58.4138 53.4014C59.0705 53.4014 59.6035 52.7133 59.6035 51.8631C59.6035 51.0129 59.067 50.3241 58.4103 50.3241Z" fill="#15ADC9"/>
</svg>
