<svg width="49" height="50" viewBox="0 0 49 50" fill="none" xmlns="http://www.w3.org/2000/svg">
<path d="M43.7039 19.939L46.8496 23.7062C47.4694 24.4484 47.4694 25.5277 46.8496 26.2699L43.7039 30.0372C43.0258 30.8493 42.697 31.8971 42.7897 32.9512L43.2272 37.9287C43.314 38.9165 42.6639 39.8188 41.6993 40.0491L37.2847 41.1031C36.2036 41.3612 35.2787 42.0575 34.7317 43.025L32.4281 47.099C31.9189 47.9995 30.8071 48.3631 29.8643 47.9375L25.8726 46.1358C24.8231 45.6621 23.6203 45.6636 22.5721 46.14L18.5824 47.9531C17.6389 48.3819 16.5241 48.0189 16.014 47.1168L13.7139 43.0489C13.1669 42.0814 12.2419 41.3851 11.1609 41.127L6.74564 40.0728C5.78127 39.8426 5.13116 38.9406 5.21774 37.9529L5.65624 32.9505C5.74861 31.8968 5.41984 30.8494 4.74187 30.0375L1.59307 26.2665C0.974158 25.5253 0.973206 24.4477 1.59081 23.7054L4.7464 19.9127C5.42158 19.1012 5.7486 18.0557 5.65617 17.0041L5.21902 12.0308C5.132 11.0408 5.78502 10.1372 6.75223 9.90904L11.1526 8.87123C12.2381 8.61522 13.1674 7.91765 13.7163 6.94684L16.0175 2.87709C16.5266 1.97664 17.6384 1.61302 18.5813 2.03858L22.5772 3.8422C23.6234 4.31444 24.8221 4.31444 25.8684 3.8422L29.8643 2.03858C30.8071 1.61301 31.9189 1.97664 32.4281 2.87709L34.7317 6.95112C35.2787 7.9186 36.2036 8.61486 37.2847 8.87297L41.6993 9.92701C42.6639 10.1573 43.314 11.0596 43.2272 12.0474L42.7897 17.0249C42.697 18.079 43.0258 19.1268 43.7039 19.939ZM20.9501 34.4275V34.6599C20.9501 36.4674 22.4153 37.9326 24.2228 37.9326C26.0303 37.9326 27.4955 36.4674 27.4955 34.6599V34.4275C27.4955 32.6201 26.0303 31.1548 24.2228 31.1548C22.4153 31.1548 20.9501 32.6201 20.9501 34.4275ZM20.9501 15.3162V25.1042C20.9501 26.9117 22.4153 28.377 24.2228 28.377C26.0303 28.377 27.4955 26.9117 27.4955 25.1042V15.3162C27.4955 13.5087 26.0303 12.0435 24.2228 12.0435C22.4153 12.0435 20.9501 13.5087 20.9501 15.3162Z" stroke="#15ADC9" stroke-width="2"/>
</svg>
