<svg fill="none" height="64" viewBox="0 0 64 64" width="64" xmlns="http://www.w3.org/2000/svg"><path d="m61.1382 13.7683c-.2861-.2387-.6252-.4051-.989-.4854-.3638-.0802-.7415-.0719-1.1014.0243-2.4586.7874-4.8374.3322-7.2241-.3522-1.622-.4651-3.2765-.8113-4.9064-1.2505-.3986-.125-.8151-.1829-1.2326-.1715l-1.4858-.3814-.293-.4604-.0485.0359c-.3442-.8459-.6824-1.69508-1.0346-2.53696-.1308-.40271-.3754-.75894-.7042-1.02565-.3289-.26672-.7279-.43253-1.149-.47739-.7592-.14321-1.5076-.33858-2.2399-.58473-1.2904.85118-2.4765 1.79937-3.6738 2.6944l-12.2342-3.15154c-.0804-.37343-.1614-.74489-.2378-1.11367l-1.0366-.53156h-.6339c-1.8047 1.13557-3.6546 2.20937-5.4054 3.42003-4.4418 3.07067-8.85382 6.18377-13.23619 9.33907-.83763.739-1.598744 1.5604-2.27181 2.4519v2.5342c1.4193.6027 2.81202 1.2838 4.26521 1.7894 2.39208.8319 4.82669 1.5449 7.23869 2.3203.4259.1369.8306.3369 1.2711.517.0525.4824.097.8871.1661 1.5229-3.93958-.9123-7.54697-2.3561-11.38558-3.5303-.04975.3745-.07328.7519-.07043 1.1297.26247 3.2239.23056 6.5117.89835 9.6513.74753 3.5163.60798 7.0513.98672 10.565.01493.6215.22156 1.2232.59159 1.7228.37004.4995.88541.8726 1.47558 1.068 3.62223 1.266 7.25467 2.4995 10.89727 3.7004.5486.1147 1.1073.1749 1.6678.1794 2.3655.2658 4.7296.5442 6.9569.8013.2002.259.3816.5319.5429.8167.1934.4171.4775.7859.8315 1.0792.3541.2934.7692.504 1.215.6165 2.0493.6399 4.1038 1.2625 6.153 1.901 2.0751.6479 4.1456 1.3083 6.2181 1.9622h1.4784c2.2592-.6592 4.1934-1.9442 6.1656-3.1682 1.0698-.6645 2.2837-1.0957 3.3482-1.7642 1.3968-.8722 2.7437-1.8216 4.0347-2.8439 1.2159-.9674 2.313-2.0864 3.4791-3.1196.9123-.8087 1.0632-1.9496 1.2625-3.026.21-1.1236.2179-2.2838.3322-3.4266.1867-1.8858.3867-3.7709.7143-5.6168.2322-.6788.4183-1.3725.5568-2.0764.5456-4.0752 1.0486-8.157 1.5602-12.2368.002-.2252-.0125-.4501-.0432-.6731-1.0631.7461-2.0033 1.3953-2.9309 2.0671-4.7616 3.4393-9.5203 6.8836-14.2761 10.3331-.7093.5554-1.5352.9429-2.4157 1.1334-.8805.1904-1.7927.1789-2.6681-.0337-4.3137-1.01-8.6221-2.0452-12.9305-3.0745-.1538-.0605-.3022-.1336-.4439-.2186-.0219-.4073-.0458-.8964-.079-1.5489.5541.0897.9242.1329 1.285.2114 3.8783.8739 7.7559 1.7515 11.6328 2.6326 1.1896.347 2.4507.367 3.6506.0577.7048-.2017 1.3738-.5121 1.9828-.9202 5.8583-4.2047 11.7014-8.4301 17.5292-12.676.2996-.243.5851-.5028.8552-.7781v-2.1117c-.7317-1.1665-1.7082-2.16-2.8618-2.9117zm-37.7304 34.0811c-.831.2414-1.7133.2426-2.545.0036-.8317-.2391-1.5788-.7085-2.1548-1.3542-.5761-.6458-.9577-1.4413-1.1007-2.2948-.1429-.8534-.0415-1.7299.2927-2.5281 1.0526-2.534 2.3599-4.9544 3.9018-7.2241.1103-.1741.2266-.3429.4133-.6233.7887 1.2991 1.5947 2.4971 2.2671 3.7682.8162 1.4655 1.5255 2.988 2.1223 4.5556.1854.5838.2489 1.1994.1866 1.8087-.0624.6093-.2492 1.1993-.5489 1.7334s-.7059 1.001-1.1935 1.3717-1.0461.6373-1.6409.7833zm1.5216-22.9373c-3.8499 0-6.9722-2.6473-6.9722-5.9138s3.123-5.9137 6.9722-5.9137c3.8493 0 6.9709 2.6485 6.9709 5.9137s-3.1216 5.9164-6.9702 5.9164z" fill="#3d505a"/></svg>