<svg fill="none" height="64" viewBox="0 0 64 64" width="64" xmlns="http://www.w3.org/2000/svg"><g fill="#3d505a"><path d="m43.4336 4.43617c-.0035-1.17547-.472-2.30179-1.3032-3.13298-.8312-.831191-1.9575-1.29969979-3.133-1.30319h-14.2541c-1.1755.00349021-2.3018.471999-3.133 1.30319-.8312.83119-1.2997 1.95751-1.3032 3.13298l-3.1668 8.55323h29.4608z"/><path d="m5.10267 32.6059h53.53533c1.0073-.0029 1.9727-.4042 2.6851-1.1164.7125-.7122 1.1143-1.6773 1.1175-2.6847v-6.9578c-.0032-1.0074-.405-1.9725-1.1175-2.6847-.7124-.7122-1.6778-1.1135-2.6851-1.1164l-20.0624-1.4242v2.9022c-.0025.8395-.3371 1.6439-.9307 2.2376-.5937.5936-1.3982.9283-2.2377.9307h-7.0738c-.8395-.0024-1.6439-.3371-2.2376-.9307-.5936-.5937-.9283-1.3981-.9307-2.2376v-2.9038l-20.06243 1.4258c-1.00738.0029-1.97269.4042-2.68516 1.1164s-1.11421 1.6773-1.11749 2.6847v6.9578c.00328 1.0074.40502 1.9725 1.11749 2.6847s1.67778 1.1135 2.68516 1.1164zm38.97603-11.1815c.0015-.5036.2022-.9862.5583-1.3423s.8387-.5568 1.3423-.5582h1.2663c.5036.0014.9862.2021 1.3423.5582s.5568.8387.5582 1.3423v4.858c-.0014.5036-.2021.9862-.5582 1.3423s-.8387.5568-1.3423.5582h-1.2663c-.5036-.0014-.9862-.2021-1.3423-.5582s-.5568-.8387-.5583-1.3423z"/><path d="m23.6435 38.9395-5.8697 5.0051c-.2162.2059-.3453.4868-.3607.785-.0155.2981.0839.5908.2776.818.1938.2271.4672.3714.7641.4031.2968.0318.5945-.0514.832-.2324l5.8697-5.0051c.1262-.0962.2315-.2171.3093-.3554.0779-.1383.1268-.291.1437-.4488s.0014-.3173-.0455-.469c-.0468-.1516-.1241-.292-.2271-.4128-.103-.1207-.2295-.2192-.3719-.2894-.1423-.0702-.2974-.1106-.4559-.1188s-.317.016-.4658.0711-.2849.14-.3998.2494z"/><path d="m16.6406 46.4444c-.201-.2351-.487-.3808-.7953-.4052-.3084-.0243-.6138.0747-.8492.2752l-13.63383 11.6369c-.21617.2059-.34526.4867-.36071.7849-.015439.2981.08393.5909.27768.818s.46715.3714.764.4032c.29685.0317.59459-.0515.832-.2325l13.63386-11.6367c.2351-.2008.3809-.4866.4056-.7947.0246-.3082-.0739-.6135-.2741-.8491z"/><path d="m35.327 38.9395-7.901 6.7368c-.2199.205-.3522.4869-.3694.787s.082.5953.277.8241c.195.2287.4707.3735.7697.4041.2991.0306.5984-.0554.8356-.24l7.9011-6.7383c.1262-.0962.2314-.2171.3093-.3554s.1268-.291.1437-.4488.0014-.3173-.0455-.469c-.0469-.1516-.1241-.292-.2271-.4128-.103-.1207-.2296-.2192-.3719-.2894s-.2975-.1106-.4559-.1188c-.1585-.0082-.317.016-.4658.0711s-.2849.14-.3998.2494z"/><path d="m26.2889 48.1777c-.2007-.2354-.4867-.3814-.795-.406-.3084-.0247-.6139.074-.8495.2744l-16.24884 13.8533c-.21618.206-.34526.4869-.36071.785-.01544.2981.08393.5909.27768.818.19374.2271.46715.3714.764.4032.29685.0317.59459-.0514.832-.2325l16.24887-13.8533c.2346-.2007.3802-.4861.4048-.7939.0247-.3078-.0736-.6128-.2733-.8482z"/><path d="m37.8307 49.4626c.2773-.0001.5455-.0989.7565-.2786l9.9332-8.4708c.1262-.0962.2314-.2171.3093-.3554s.1268-.291.1436-.4488c.0169-.1578.0014-.3173-.0454-.469-.0469-.1516-.1242-.292-.2272-.4128-.1029-.1207-.2295-.2192-.3718-.2894s-.2975-.1106-.456-.1188c-.1584-.0082-.3169.016-.4657.0711-.1489.0551-.2849.14-.3998.2494l-9.9331 8.4692c-.181.1551-.3101.3618-.3701.5923-.0601.2306-.0481.4741.0342.6977.0824.2235.2312.4166.4264.5531.1953.1366.4277.2101.6659.2108z"/><path d="m35.938 49.9109c-.2008-.2353-.4867-.3814-.7951-.406-.3083-.0247-.6138.074-.8494.2745l-14.2168 12.1216c-.2162.2059-.3453.4868-.3607.7849-.0154.2982.0839.5909.2777.8181.1937.2271.4671.3714.764.4031.2968.0318.5946-.0514.832-.2324l14.2167-12.1217c.2347-.2007.3802-.4861.4049-.7939.0246-.3077-.0736-.6127-.2733-.8482z"/><path d="m60.3315 39.0703c-.2008-.2354-.4867-.3814-.795-.406-.3084-.0247-.6139.074-.8495.2744l-21.4283 18.2716c-.2162.2059-.3452.4868-.3607.785-.0154.2981.0839.5909.2777.818.1937.2271.4671.3714.764.4032.2968.0317.5946-.0515.832-.2325l21.4283-18.2716c.2346-.2007.3802-.4861.4048-.7939.0247-.3078-.0736-.6128-.2733-.8482z"/><path d="m34.4787 59.5794-2.724 2.3216c-.2161.2059-.3452.4868-.3606.785-.0155.2981.0839.5908.2776.818.1937.2271.4672.3714.764.4031.2969.0318.5946-.0514.832-.2324l2.724-2.32c.2198-.205.3522-.487.3694-.7871s-.0821-.5952-.277-.824c-.195-.2288-.4707-.3736-.7698-.4042-.299-.0305-.5983.0554-.8356.24z"/><path d="m56.1755 50.3265-13.8751 11.5644c-.1286.0942-.2366.2138-.3172.3514-.0806.1375-.1322.2902-.1516.4484-.0194.1583-.0061.3188.0389.4718.0451.1529.121.295.2231.4175s.2282.2228.3705.2947c.1423.0718.2979.1138.4571.1232.1591.0095.3185-.0137.4684-.0683.1498-.0545.2869-.1391.4027-.2487l13.8767-11.5644c.1273-.0948.234-.2146.3134-.352.0795-.1374.1301-.2896.1487-.4472.0186-.1577.0049-.3175-.0403-.4696-.0452-.1522-.1209-.2935-.2226-.4154s-.2272-.2217-.3688-.2935c-.1416-.0717-.2964-.1138-.4548-.1237s-.3172.0126-.4666.0661c-.1495.0536-.2864.137-.4025.2453z"/><path d="m13.1345 38.9395-10.55343 9.0031c-.12754.0957-.23413.2164-.31321.3549-.07908.1384-.12897.2915-.14659.45-.01763.1584-.00262.3188.0441.4712.04673.1524.12419.2937.22759.415s.23055.2202.37363.2905c.14307.0704.29902.1106.45825.1184.15923.0077.31837-.0172.46759-.0734.14922-.0561.28536-.1422.40004-.2529l10.55503-8.9992c.1262-.0962.2314-.2172.3093-.3554.0779-.1383.1267-.291.1436-.4488s.0014-.3174-.0454-.469c-.0469-.1516-.1242-.2921-.2272-.4128s-.2295-.2192-.3718-.2894-.2975-.1106-.456-.1188-.3169.016-.4658.0711c-.1488.0551-.2848.14-.3997.2494z"/></g></svg>