<svg fill="none" height="54" viewBox="0 0 150 54" width="150" xmlns="http://www.w3.org/2000/svg" xmlns:xlink="http://www.w3.org/1999/xlink"><clipPath id="a"><path d="m0 0h150v54h-150z"/></clipPath><g clip-path="url(#a)"><path d="m28.1476 0v3.29175h-6.5775v27.45825h-7.02v-27.45825h-6.68999v-3.29175zm98.7224 26.433c2.04 3.6052 4.935 4.9868 9.053 4.9868 5.085 0 9.015-3.0683 9.015-8.3251 0-8.286-11.1-7.0545-11.1-11.391 0-1.84345.922-3.14245 2.925-3.14245 2.505 0 3.66 1.76175 4.777 3.68025l2.813-2.187c-2.04-3.33675-4.433-4.875-8.438-4.875-5.122 0-8.632 3.33675-8.632 8.4352 0 7.9725 10.867 7.0171 10.867 11.391 0 1.881-1.237 3.0308-3.24 3.0308-2.235 0-3.66-1.9928-4.545-3.7545zm-20.302 4.2997h-3.623l8.633-24.85045h7.012l9.323 24.85045h-7.785l-2.738-7.2112h-8.4zm6.435-19.2142-2.85 8.6295h6.127l-3.195-8.6295zm-35.5654 19.2135h3.6975v-15.6082h.075l6.6225 15.6089h.8475l6.585-15.7582h.1125v15.7575h7.0124v-24.84975h-6.9374l-5.3925 13.04105-5.5875-13.04105h-7.05v24.84975zm-28.4325-12.432c-.035-2.6367.7149-5.2242 2.1543-7.4336 1.4394-2.20942 3.5033-3.9409 5.9293-4.97433 2.4259-1.03343 5.1044-1.32213 7.6949-.82939 2.5904.49274 4.9759 1.74466 6.853 3.5966 1.8771 1.85192 3.1612 4.22022 3.6889 6.80382s.2752 5.2657-.7253 7.7054c-1.0006 2.4397-2.704 4.5268-4.8938 5.9959-2.1897 1.4691-4.7669 2.2539-7.4038 2.2546-1.7386.0267-3.4651-.2931-5.0788-.9407s-3.0823-1.6101-4.3201-2.8313c-1.2377-1.2212-2.22-2.6766-2.8893-4.2814-.6694-1.6048-1.0125-3.3268-1.0093-5.0656zm7.6275 0c0 3.7995.8475 10.125 5.6625 10.125s5.6625-6.33 5.6625-10.125-.8475-10.125-5.6625-10.125-5.6625 6.33-5.6625 10.125zm-23.88 12.432v-11.082h7.4775v11.085h7.0125v-24.85275h-7.0125v10.39275h-7.4775v-10.39275h-7.0125v24.85045h7.0125z" fill="#3d505a"/><path d="m145.59 32.9798c.159.0042.317-.0236.465-.0819.148-.0582.283-.1457.396-.2571s.203-.2446.264-.3915.091-.3046.09-.4635l-.022-27.32855c-.003-.1506-.036-.29909-.099-.43621-.062-.13712-.152-.25993-.264-.36077s-.243-.17755-.386-.22534-.294-.06563-.444-.05243l-114.96.015v-3.3449971h115.477c0-.05250001 3.886-.05250016 3.886 3.3442471v29.65725c0 3.1125-3.233 3.1125-3.233 3.1125h-143.43c-.42495.0197-.84954-.0459-1.24868-.1931s-.76473-.3728-1.07517-.6637c-.310433-.2909-.559416-.641-.732231-1.0297s-.26595645-.8082-.273919-1.2335v-29.73975c.0375-.03675.0675001-3.2617471 3.33-3.2617471h2.19v3.3442471h-1.0575c-.28522.02199-.55232.14836-.7502.35496-.19787.20659-.31263.47889-.3223.76479l.0075 27.4028c-.0043.1417.02055.2829.073.4146.05244.1318.13137.2514.23191.3515.10053.1.22053.1783.35256.2301s.27329.076.41503.071z" fill="#c9252c"/><g fill="#3d505a"><path d="m6.675 48.9247c-.075-1.515-.1575-3.2025-.1125-4.494h-.06c-.2325 1.275-.5175 2.6348-.8475 3.9863l-1.29 5.3827h-.795l-1.23-5.1592c-.36-1.4633-.66-2.874-.885-4.2h-.0375c.015 1.344-.06 2.9407-.1275 4.575l-.2025 4.8517h-1.0875l.63-11.475h1.32l1.23 5.2403c.36 1.515.63 2.6347.8475 3.9487h.045c.2025-1.314.4425-2.4.7875-3.9487l1.1925-5.2403h1.35l.615 11.475h-1.125z"/><path d="m10.845 50.4247-.69 3.441h-1.17746l2.42246-11.475h1.335l2.3625 11.475h-1.1925l-.69-3.441zm2.19-1.0597-.5475-2.9153c-.1575-.8137-.3-1.7692-.4275-2.6205h-.045c-.1275.8663-.285 1.8585-.4425 2.6205l-.5475 2.9115z"/><path d="m16.4326 42.5573c.5245-.1614 1.0714-.2374 1.62-.225.4518-.0288.9048.0331 1.3324.1818.4276.1488.8212.3815 1.1576.6844.8175.7688 1.4325 2.25 1.4325 4.6433 0 2.6197-.6 4.05-1.275 4.8517-.3622.4132-.814.7383-1.3209.9504-.5069.2122-1.0555.3057-1.6041.2736-.4479.0084-.8954-.0308-1.335-.117v-11.2432zm1.1925 10.2487c.1507.0288.3041.0413.4575.0375 1.335 0 2.625-1.05 2.625-4.9567 0-2.8965-.8175-4.479-2.52-4.479-.1922-.0052-.3842.0175-.57.0675v9.3307z"/><path d="m27.2926 48.4163h-2.6625v4.3072h3.0225v1.1422h-4.23v-11.4809h4.0425v1.14h-2.835v3.777h2.6625z"/><path d="m32.6774 42.3848v11.475h-1.215v-11.475z"/><path d="m34.6125 53.8583v-11.4735h1.1325l1.95 5.382c.4425 1.239.9901 2.7547 1.3501 4.0012h.0299c-.0975-1.8067-.1425-3.2842-.1425-5.2777v-4.1055h1.0876v11.475h-1.1326l-2.0175-5.5163c-.4951-1.276-.9207-2.5779-1.275-3.9h-.03c.0975 1.53.1275 2.9933.1275 5.4495v3.9637z"/><path d="m49.5975 53.5673c-.5948.247-1.2311.3789-1.875.3885-.4742.0192-.9465-.0703-1.3807-.2618s-.8188-.4799-1.1243-.843c-.7725-.888-1.29-2.4705-1.275-4.575.015-4.479 2.1225-5.994 3.9975-5.994.5167-.0221 1.0305.0884 1.4925.321l-.27 1.1197c-.3743-.1949-.7935-.2876-1.215-.2684-1.32 0-2.7525 1.1422-2.7525 4.6949 0 3.5385 1.245 4.6808 2.52 4.6808.255.0219.5112-.0245.7425-.1342v-3.75h-1.3725v-1.0891h2.505v5.7106z"/><path d="m55.1176 48.4163h-2.6625v4.3072h3.0225v1.1422h-4.23v-11.4809h4.0425v1.14h-2.835v3.777h2.6625z"/><path d="m56.835 42.5572c.5636-.158 1.1471-.2337 1.7325-.225.4335-.0389.8703.0134 1.2824.1535.4121.1402.7902.3651 1.1101.6603.5211.6302.7861 1.4334.7425 2.25.0428.6069-.0963 1.2128-.3996 1.7402s-.7569.9525-1.3029 1.2208v.0375c.7875.2535 1.1925 1.0747 1.4175 2.568.1206.9815.3263 1.9507.615 2.8965h-1.23c-.2724-.9245-.4631-1.8712-.57-2.829-.2325-1.5795-.69-2.1653-1.7325-2.1653h-.4725v4.9868h-1.1925zm1.2 5.2928h.5175c1.1475 0 1.92-.918 1.92-2.2995 0-1.329-.5025-2.1428-1.7925-2.1645-.2172-.0088-.4344.0139-.645.0675z"/><path d="m69.6826 48.9248c-.075-1.515-.1575-3.2025-.1125-4.494h-.06c-.2325 1.275-.5175 2.6347-.8475 3.9862l-1.29 5.3828h-.7875l-1.23-5.1585c-.36-1.4633-.66-2.874-.885-4.2h-.045c.015 1.344-.06 2.9407-.1275 4.575l-.2025 4.8517h-1.0875l.63-11.475h1.32l1.23 5.2403c.36 1.515.63 2.6347.8475 3.9487h.045c.2025-1.314.4425-2.4.7875-3.9487l1.1925-5.2403h1.35l.615 11.475h-1.125z"/><path d="m73.8526 50.4247-.69 3.441h-1.1775l2.4225-11.475h1.335l2.3625 11.475h-1.1925l-.69-3.441zm2.19-1.0597-.5475-2.9115c-.1575-.8138-.3-1.7693-.4275-2.6205h-.045c-.1275.8662-.285 1.8585-.4425 2.6205l-.5475 2.9115z"/><path d="m79.4399 53.8583v-11.4735h1.1325l1.95 5.382c.4425 1.239.99 2.7547 1.35 4.0012h.03c-.0975-1.8067-.1425-3.2842-.1425-5.2777v-4.1055h1.0875v11.475h-1.1325l-2.0175-5.5163c-.4951-1.276-.9207-2.5779-1.275-3.9h-.03c.0975 1.53.1275 2.9933.1275 5.4495v3.9637z"/><path d="m88.2826 53.8583v-4.8525l-2.3475-6.621h1.29l.945 2.874c.255.7987.5475 1.7017.7875 2.5905h.03c.2025-.888.4875-1.7543.7725-2.6348l.9-2.829h1.26l-2.4225 6.5693v4.9042z"/><path d="m91.3875 53.0047c-.0139-.1177-.0041-.237.029-.3508s.0887-.2199.1636-.3118c.0748-.0919.1674-.1678.2722-.2233.1047-.0555.2196-.0893.3377-.0996.4725 0 .8025.3885.8025.9855s-.3.9855-.8175.9855c-.4425.003-.7875-.3855-.7875-.9855z"/><path d="m96.8476 52.3432c.4496.2917.9717.452 1.5075.4628.2496.0073.4979-.0392.7279-.1365.2301-.0973.4364-.243.6051-.4271.1687-.1842.2957-.4026.3719-.6403.077-.2377.102-.4891.073-.7371-.024-.4807-.1642-.9486-.4085-1.3633s-.5855-.764-.9944-1.0179c-.8475-.627-1.995-1.7018-1.995-3.18-.0317-.3857.0173-.7737.1438-1.1393.1264-.3657.3276-.701.5908-.9847.2631-.2837.5824-.5095.9376-.663.3551-.1535.7384-.2314 1.1253-.2288.5244-.0136 1.0404.1349 1.4774.4252l-.285 1.125c-.368-.2602-.8093-.3963-1.2599-.3884-.2112-.0022-.4206.0394-.615.122s-.3696.2045-.5147.358c-.145.1535-.2568.3353-.3283.5341-.0715.1987-.1011.4101-.087.6209 0 1.1422.5475 1.5825 1.56 2.3662.5559.3549 1.0159.842 1.3379 1.4178.322.5759.496 1.2225.507 1.8822 0 1.9785-1.275 3.2175-2.9774 3.2175-.6274.0084-1.244-.1626-1.7775-.4928z"/><path d="m103.98 42.3848v11.475h-1.215v-11.475z"/><path d="m105.915 53.8583v-11.4735h1.133l1.95 5.382c.442 1.239.99 2.7547 1.35 4.0012h.03c-.098-1.8067-.143-3.2842-.143-5.2777v-4.1055h1.088v11.475h-1.133l-2.017-5.5163c-.496-1.276-.921-2.5779-1.275-3.9h-.03c.097 1.53.127 2.9933.127 5.4495v3.9637z"/><path d="m117.862 53.6565c-.477.2251-1.002.3302-1.53.306-2.062 0-3.555-1.8067-3.555-5.7 0-4.5307 2.078-5.9715 3.765-5.9715.454-.0308.907.0702 1.305.291l-.27 1.1048c-.325-.1703-.69-.2525-1.057-.2385-1.133 0-2.468 1.194-2.468 4.695s1.193 4.6657 2.505 4.6657c.381.0004.757-.0809 1.103-.2385z"/><path d="m122.963 48.4163h-2.663v4.3072h3.023v1.1422h-4.23v-11.4809h4.042v1.14h-2.835v3.777h2.663z"/><path d="m129.142 44.1232h-.03l-1.702 1.05-.24-1.023 2.152-1.3582h.99v11.0662h-1.177v-9.735z"/><path d="m133.297 52.8735c.256-.0016.511-.0367.758-.1043.541-.147 1.029-.4479 1.402-.8662.695-.9062 1.11-1.996 1.193-3.135h-.03c-.187.2757-.437.5029-.729.6626-.292.1596-.618.2472-.951.2554-1.275 0-2.22-1.275-2.22-3.2843 0-2.025 1.005-3.75 2.58-3.75 1.747 0 2.565 2.0078 2.565 4.4415.082 1.8047-.389 3.5912-1.35 5.1211-.547.8353-1.392 1.4307-2.363 1.665-.277.0702-.561.1052-.847.1042v-1.11zm.615-6.5693c0 1.62.57 2.4 1.388 2.4.283-.0231.554-.1287.778-.3039.224-.1751.391-.4121.482-.6815.077-.223.11-.4589.097-.6946 0-2.3287-.615-3.3367-1.432-3.3367-.615-.003-1.328.7057-1.313 2.6167z"/><path d="m143.94 48.312c0 4.0312-1.177 5.688-2.662 5.688-1.59 0-2.55-2.0453-2.55-5.6505 0-3.7253 1.02-5.688 2.692-5.688 1.658 0 2.52 2.1277 2.52 5.6505zm-3.997.015c-.015 2.6722.412 4.5457 1.417 4.5457.975 0 1.373-1.8884 1.373-4.5457 0-2.5905-.39-4.5458-1.373-4.5458-.982 0-1.417 1.8735-1.417 4.5428z"/><path d="m150 48.312c0 4.0312-1.177 5.688-2.662 5.688-1.59 0-2.55-2.0453-2.55-5.6505 0-3.7253 1.02-5.688 2.692-5.688 1.658 0 2.52 2.1277 2.52 5.6505zm-3.997.015c-.015 2.6722.412 4.5457 1.417 4.5457.975 0 1.373-1.8884 1.373-4.5457 0-2.5905-.39-4.5458-1.373-4.5458-.982 0-1.417 1.8735-1.417 4.5428z"/></g></g></svg>