<svg fill="none" height="64" viewBox="0 0 65 64" width="65" xmlns="http://www.w3.org/2000/svg"><g fill="#24306c"><path d="m39.8522 7.7976c-.0031-1.00626-.4151-1.97044-1.1459-2.68198-.7309-.71153-1.7212-1.11261-2.7548-1.11562h-6.9659c-1.0336.00301-2.024.40409-2.7548 1.11562-.7309.71154-1.1428 1.67572-1.1459 2.68198l-5.5717 7.3243h25.9107z"/><path d="m9.06501 31.9291h46.80839c.8857-.0027 1.7344-.3464 2.3607-.9562.6263-.6097.9794-1.4359.9821-2.2982v-2.7126l-13.7916-8.1344h-2.847v7.1825h-2.9416v-7.1858h-2.3408v5.0628c-.0018.575-.2372 1.126-.6548 1.5327s-.9835.6361-1.5742.638h-5.2009c-.5907-.0018-1.1567-.2311-1.5744-.6378-.4176-.4067-.6529-.9578-.6546-1.5329v-5.0628h-8.1273l-13.78745 8.1343v2.7126c.00182.863.35458 1.6902.98112 2.3007.62655.6105 1.47591.9546 2.36234.9571z"/><path d="m6.46317 36.9314c1.70211 0 2.50655.9889 3.52574 2.2393 1.11589 1.37 2.50519 3.0762 5.13189 3.0762s4.0153-1.7055 5.1319-3.0762c1.0192-1.2511 1.8236-2.2393 3.525-2.2393 1.7015 0 2.5066.9889 3.5258 2.2393 1.1159 1.37 2.5052 3.0762 5.1319 3.0762s4.0153-1.7055 5.1319-3.0762c1.0192-1.2511 1.8236-2.2393 3.525-2.2393s2.5066.9889 3.5258 2.2393c1.1165 1.37 2.5052 3.0762 5.1333 3.0762 2.628 0 4.0167-1.7055 5.1332-3.0762 1.0178-1.2511 1.8236-2.2393 3.5258-2.2393.6566 0 1.1897-.7133 1.1897-1.5946 0-.8814-.5331-1.5946-1.1897-1.5946-2.624 0-4.0167 1.7055-5.1333 3.0762-1.0192 1.2511-1.8237 2.2393-3.5251 2.2393s-2.5079-.9889-3.5264-2.2393c-1.1159-1.37-2.5052-3.0762-5.1319-3.0762s-4.0167 1.7055-5.1333 3.0762c-1.0178 1.2511-1.8222 2.2393-3.5216 2.2393-1.6993 0-2.5065-.9889-3.5257-2.2393-1.1166-1.37-2.5052-3.0762-5.1319-3.0762s-4.0167 1.7055-5.1319 3.0762c-1.0192 1.2511-1.8236 2.2393-3.525 2.2393-1.7015 0-2.5066-.9889-3.5258-2.2393-1.1159-1.37-2.50517-3.0762-5.13188-3.0762-.65667 0-1.18976.7139-1.18976 1.5946 0 .8806.52963 1.5946 1.18631 1.5946z"/><path d="m58.4104 42.618c-2.624 0-4.0167 1.7069-5.1333 3.077-1.0192 1.251-1.8237 2.2393-3.5251 2.2393s-2.5079-.9889-3.5264-2.2393c-1.1159-1.3701-2.5052-3.077-5.1319-3.077s-4.0167 1.7069-5.1333 3.077c-1.0178 1.251-1.8222 2.2393-3.5216 2.2393-1.6993 0-2.5065-.9889-3.5257-2.2393-1.1166-1.3701-2.5052-3.077-5.1319-3.077s-4.0167 1.7069-5.1319 3.077c-1.0192 1.251-1.8236 2.2393-3.525 2.2393-1.7015 0-2.5066-.9889-3.5258-2.2393-1.1159-1.3701-2.50517-3.077-5.13188-3.077-.65667 0-1.18976.7146-1.18976 1.5953s.53309 1.5946 1.18976 1.5946c1.70211 0 2.50655.9876 3.52575 2.2393 1.11583 1.3701 2.50513 3.0763 5.13193 3.0763 2.6267 0 4.0153-1.7056 5.1318-3.0763 1.0192-1.2517 1.8237-2.2393 3.5251-2.2393s2.5066.9876 3.5258 2.2393c1.1158 1.3701 2.5051 3.0763 5.1318 3.0763s4.0154-1.7056 5.1319-3.0763c1.0192-1.2517 1.8237-2.2393 3.5251-2.2393s2.5065.9889 3.5257 2.2393c1.1166 1.3701 2.5052 3.0763 5.1333 3.0763s4.0167-1.7056 5.1333-3.0763c1.0178-1.2511 1.8236-2.2393 3.5257-2.2393.6567 0 1.1898-.7139 1.1898-1.5946s-.5366-1.5953-1.1932-1.5953z"/><path d="m58.4104 51.4946c-2.624 0-4.0167 1.7055-5.1333 3.0769-1.0192 1.2511-1.8237 2.2379-3.5251 2.2379s-2.5079-.9875-3.5264-2.2379c-1.1159-1.3714-2.5052-3.0769-5.1319-3.0769s-4.0167 1.7055-5.1333 3.0769c-1.0178 1.2511-1.8222 2.2379-3.5216 2.2379-1.6993 0-2.5065-.9875-3.5257-2.2379-1.1166-1.3714-2.5052-3.0769-5.1319-3.0769s-4.0167 1.7055-5.1319 3.0769c-1.0192 1.2511-1.8236 2.2379-3.525 2.2379-1.7015 0-2.5066-.9875-3.5258-2.2379-1.1159-1.3714-2.50517-3.0769-5.13188-3.0769-.65667 0-1.18976.7132-1.18976 1.5952s.53309 1.5946 1.18976 1.5946c1.70211 0 2.50655.9876 3.52575 2.2393 1.11583 1.3701 2.50513 3.0763 5.13193 3.0763 2.6267 0 4.0153-1.7055 5.1318-3.0763 1.0192-1.2517 1.8237-2.2393 3.5251-2.2393s2.5066.9876 3.5258 2.2393c1.1158 1.3701 2.5051 3.0763 5.1318 3.0763s4.0154-1.7055 5.1319-3.0763c1.0192-1.2517 1.8237-2.2393 3.5251-2.2393s2.5065.9889 3.5257 2.2393c1.1166 1.3701 2.5052 3.0763 5.1333 3.0763s4.0167-1.7055 5.1333-3.0763c1.0178-1.251 1.8236-2.2393 3.5257-2.2393.6567 0 1.1898-.7132 1.1898-1.5946 0-.8813-.5366-1.5952-1.1932-1.5952z"/></g></svg>