<svg fill="none" height="50" viewBox="0 0 49 50" width="49" xmlns="http://www.w3.org/2000/svg"><path d="m46.8496 23.7062c.6198.7422.6198 1.8215 0 2.5637l-3.1457 3.7673c-.6781.8121-1.0069 1.8599-.9142 2.914l.4375 4.9775c.0868.9878-.5633 1.8901-1.5279 2.1204l-4.4146 1.054c-1.0811.2581-2.006.9544-2.553 1.9219l-2.3036 4.074c-.5092.9005-1.621 1.2641-2.5638.8385l-3.9917-1.8017c-1.0495-.4737-2.2523-.4722-3.3005.0042l-3.9896 1.8131c-.9436.4288-2.0584.0658-2.5685-.8363l-2.3001-4.0679c-.547-.9675-1.472-1.6638-2.553-1.9219l-4.41526-1.0542c-.96437-.2302-1.61448-1.1322-1.5279-2.1199l.4385-5.0024c.09237-1.0537-.2364-2.1011-.91437-2.913l-3.1488-3.771c-.618912-.7412-.619864-1.8188-.00226-2.5611l3.15559-3.7927c.67518-.8115 1.0022-1.857.90977-2.9086l-.43715-4.9733c-.08702-.99.566-1.8936 1.53321-2.12176l4.40037-1.03781c1.0855-.25601 2.0148-.95358 2.5637-1.92439l2.3012-4.06975c.5091-.90045 1.6209-1.26407 2.5638-.83851l3.9959 1.80362c1.0462.47224 2.2449.47224 3.2912 0l3.9959-1.80362c.9428-.42557 2.0546-.06195 2.5638.83851l2.3036 4.07403c.547.96748 1.4719 1.66374 2.553 1.92185l4.4146 1.05404c.9646.23029 1.6147 1.13259 1.5279 2.12039l-.4375 4.9775c-.0927 1.0541.2361 2.1019.9142 2.9141zm-22.6268 14.2264c1.8075 0 3.2727-1.4652 3.2727-3.2727v-.2324c0-1.8074-1.4652-3.2727-3.2727-3.2727s-3.2727 1.4653-3.2727 3.2727v.2324c0 1.8075 1.4652 3.2727 3.2727 3.2727zm0-9.5556c1.8075 0 3.2727-1.4653 3.2727-3.2728v-9.788c0-1.8075-1.4652-3.2727-3.2727-3.2727s-3.2727 1.4652-3.2727 3.2727v9.788c0 1.8075 1.4652 3.2728 3.2727 3.2728z" stroke="#24306c" stroke-width="2"/></svg>