<svg fill="none" height="64" viewBox="0 0 65 64" width="65" xmlns="http://www.w3.org/2000/svg" xmlns:xlink="http://www.w3.org/1999/xlink"><clipPath id="a"><path d="m.054459 0h64.3872v63.9543h-64.3872z"/></clipPath><g clip-path="url(#a)" fill="#24306c"><path d="m41.1194 9.6699c-.0029-.97243-.3928-1.9042-1.0846-2.59182-.6918-.68761-1.6292-1.07519-2.6075-1.07808h-11.8633c-.9783.00289-1.9157.39047-2.6075 1.07808-.6918.68762-1.0817 1.61939-1.0846 2.59182l-2.6357 7.0758h24.5195z"/><path d="m9.21768 32.9738h44.55592c.8384-.0024 1.6418-.3344 2.2348-.9236.593-.5891.9273-1.3876.9301-2.221v-5.7559c-.0028-.8334-.3371-1.6318-.9301-2.221-.593-.5891-1.3964-.9211-2.2348-.9235l-16.6974-1.1783v2.4009c-.002.6946-.2805 1.3601-.7746 1.8512s-1.1636.7679-1.8623.7699h-5.8873c-.6987-.002-1.3682-.2788-1.8623-.7699s-.7726-1.1566-.7747-1.8512v-2.4021l-16.69732 1.1795c-.83842.0024-1.64182.3344-2.23479.9235-.59297.5892-.92732 1.3876-.93005 2.221v5.7559c.00273.8334.33708 1.6319.93005 2.221.59297.5892 1.39637.9212 2.23479.9236zm32.43872-9.2501c.0012-.4166.1682-.8158.4646-1.1104s.698-.4607 1.1172-.4619h1.0538c.4192.0012.8208.1673 1.1172.4619s.4634.6938.4646 1.1104v4.0189c-.0012.4166-.1682.8158-.4646 1.1104s-.698.4606-1.1172.4618h-1.0538c-.4192-.0012-.8208-.1672-1.1172-.4618s-.4634-.6938-.4646-1.1104z"/><path d="m24.6487 38.2134-4.8852 4.1405c-.1799.1703-.2874.4027-.3002.6494-.0129.2466.0698.4888.2311.6767.1612.1879.3888.3072.6358.3335.2471.0263.4949-.0425.6925-.1923l4.8852-4.1405c.1051-.0796.1927-.1797.2575-.294.0648-.1144.1055-.2408.1195-.3713.0141-.1305.0012-.2625-.0378-.388-.039-.1254-.1033-.2416-.1891-.3415-.0857-.0999-.191-.1813-.3094-.2394-.1185-.058-.2476-.0915-.3795-.0983s-.2638.0132-.3877.0588c-.1238.0456-.237.1158-.3327.2064z"/><path d="m18.8204 44.4219c-.1673-.1944-.4054-.315-.662-.3352-.2566-.0201-.5108.0618-.7067.2277l-11.34705 9.6267c-.17992.1704-.28735.4028-.30021.6494-.01285.2466.06985.4888.2311.6767s.3888.3073.63586.3335c.24706.0263.49486-.0425.69245-.1922l11.34705-9.6268c.1957-.166.3171-.4025.3376-.6574s-.0615-.5075-.2281-.7024z"/><path d="m64.2087 38.3215c-.1671-.1946-.4051-.3154-.6617-.3358s-.5109.0612-.707.227l-8.782 7.4486c-.18.1704-.2874.4027-.3002.6494-.0129.2466.0698.4888.2311.6767.1612.1879.3888.3073.6358.3335.2471.0263.4949-.0425.6925-.1922l8.7833-7.4448c.0972-.0823.177-.1829.2351-.296.058-.113.093-.2364.1031-.3629.01-.1265-.0051-.2538-.0446-.3745s-.1025-.2325-.1854-.329z"/><path d="m34.3726 38.2134-6.5759 5.5731c-.183.1696-.2931.4028-.3074.651-.0143.2483.0683.4925.2305.6818.1623.1892.3918.309.6407.3343s.498-.0458.6954-.1985l6.5759-5.5744c.105-.0796.1926-.1797.2574-.294.0648-.1144.1055-.2408.1196-.3713.014-.1305.0011-.2625-.0379-.388-.039-.1254-.1033-.2416-.189-.3415s-.191-.1813-.3095-.2394c-.1185-.058-.2476-.0915-.3795-.0983s-.2638.0132-.3876.0588c-.1239.0456-.2371.1158-.3327.2064z"/><path d="m26.8504 45.8558c-.1671-.1947-.4051-.3155-.6617-.3359s-.5109.0613-.707.2271l-13.5234 11.4604c-.18.1703-.2874.4027-.3002.6493-.0129.2467.0698.4888.2311.6767.1612.1879.3888.3073.6358.3336.2471.0262.4949-.0426.6925-.1923l13.5234-11.4604c.1953-.166.3164-.4022.337-.6568.0205-.2546-.0613-.5069-.2275-.7017z"/><path d="m36.4563 46.9188c.2308-.0001.454-.0818.6296-.2305l8.2671-7.0076c.1051-.0796.1927-.1797.2575-.294.0648-.1144.1055-.2408.1195-.3713.0141-.1305.0012-.2625-.0378-.388-.039-.1254-.1033-.2416-.1891-.3415-.0857-.0999-.191-.1813-.3094-.2394-.1185-.058-.2476-.0915-.3795-.0983s-.2638.0132-.3877.0588c-.1238.0456-.237.1158-.3327.2064l-8.2671 7.0063c-.1505.1282-.258.2992-.308.49-.05.1907-.04.3921.0285.5771.0686.185.1924.3447.3549.4576.1625.113.3559.1738.5542.1744z"/><path d="m34.881 47.2896c-.167-.1947-.405-.3155-.6616-.3359-.2567-.0204-.5109.0613-.707.2271l-11.8323 10.0278c-.1799.1704-.2873.4028-.3002.6494-.0128.2466.0699.4888.2311.6767.1613.1879.3888.3073.6359.3335.2471.0263.4949-.0425.6925-.1922l11.8322-10.0279c.1952-.166.3164-.4022.3369-.6568s-.0613-.5069-.2275-.7017z"/><path d="m55.1831 38.3215c-.1671-.1946-.4051-.3154-.6617-.3358s-.5109.0612-.707.227l-17.8341 15.1155c-.18.1703-.2874.4027-.3003.6494-.0128.2466.0699.4888.2312.6767.1612.1879.3887.3072.6358.3335s.4949-.0425.6925-.1923l17.8341-15.1155c.1953-.166.3164-.4021.337-.6567.0205-.2546-.0613-.507-.2275-.7018z"/><path d="m33.6665 55.2881-2.2671 1.9205c-.1799.1704-.2873.4028-.3001.6494-.0129.2467.0698.4888.231.6767.1613.1879.3888.3073.6359.3335.2471.0263.4949-.0425.6924-.1922l2.2671-1.9193c.183-.1696.2931-.4028.3075-.6511.0143-.2483-.0683-.4925-.2306-.6817-.1623-.1893-.3917-.309-.6406-.3343s-.498.0458-.6955.1985z"/><path d="m51.7242 47.6334-11.5479 9.5669c-.107.0779-.1969.1769-.264.2907s-.11.24-.1262.371c-.0161.1309-.0051.2637.0324.3902.0375.1266.1007.2441.1857.3454.085.1014.1899.1843.3084.2438.1184.0594.2479.0942.3803.102.1325.0078.2652-.0114.3899-.0565s.2388-.1152.3352-.2058l11.5492-9.5668c.106-.0785.1947-.1776.2608-.2912.0661-.1137.1083-.2396.1238-.37s.0041-.2626-.0336-.3885c-.0376-.1259-.1006-.2428-.1853-.3436-.0846-.1009-.1891-.1835-.3069-.2428-.1179-.0594-.2466-.0942-.3785-.1024-.1318-.0082-.264.0104-.3884.0547-.1243.0443-.2383.1134-.3349.2029z"/><path d="m15.9023 38.2134-8.78328 7.4479c-.10615.0792-.19486.1791-.26067.2936-.06582.1145-.10734.2412-.12201.3723-.01467.131-.00218.2637.03671.3898s.10335.2429.18941.3433.19188.1822.31096.2404c.11908.0581.24887.0915.38139.0979.13253.0064.26497-.0143.38916-.0607s.2375-.1176.33295-.2093l8.78458-7.4447c.1051-.0796.1927-.1797.2575-.294.0648-.1144.1055-.2407.1195-.3713.0141-.1305.0012-.2625-.0378-.388-.039-.1254-.1033-.2416-.189-.3415-.0858-.0998-.1911-.1813-.3095-.2394-.1185-.058-.2476-.0915-.3795-.0983s-.2638.0132-.3877.0588c-.1238.0456-.237.1158-.3327.2064z"/><path d="m8.24477 38.3215c-.16709-.1946-.40507-.3154-.66169-.3358s-.51089.0612-.70698.227l-6.520137 5.5751c-.179918.1703-.2873347.4027-.3001874.6493-.0128526.2467.0698504.4888.2311004.6767.161251.1879.388798.3073.635858.3336.247056.0262.494846-.0426.692436-.1923l6.52013-5.5751c.19527-.166.31642-.4021.33694-.6567.02051-.2546-.06128-.507-.22747-.7018z"/></g></svg>