<svg fill="none" height="64" viewBox="0 0 65 64" width="65" xmlns="http://www.w3.org/2000/svg"><g fill="#24306c"><path d="m39.585 9.84056c-.0031-1.01764-.4141-1.99273-1.1434-2.71232-.7292-.71958-1.7174-1.12519-2.7486-1.12824h-6.9521c-1.0313.00305-2.0195.40866-2.7487 1.12824-.7292.71959-1.1403 1.69468-1.1434 2.71232l-5.5594 7.40794h25.853z"/><path d="m8.86748 34.2425h46.70102c.8839-.0025 1.7309-.35 2.356-.9667s.9775-1.4525.9802-2.3247v-2.7423l-13.7637-8.2296h-2.8376v7.272h-2.9312v-7.272h-2.3362v5.1203c-.0013.5816-.2359 1.139-.6525 1.5504s-.9814.6432-1.5707.6448h-5.1896c-.5894-.0016-1.1542-.2334-1.5708-.6448s-.6512-.9688-.6525-1.5504v-5.1203h-8.1126l-13.75538 8.2296v2.743c.00273.872.35505 1.7076.98001 2.3242.62497.6165 1.47181.964 2.35555.9665z"/><path d="m57.5672 44.0488c-1.5635-.5621-3.1779-.9752-4.8212-1.2335-1.0331-.1876-2.2335-.28-2.6564-1.1859-.0689-.1496-.3492-.2583-.551-.3711-2.4836-1.413-5.4582-1.903-8.5451-2.1939-.6791-.0632-1.3541-.1461-2.0318-.2154-.4641-.0655-.9316-.1059-1.4002-.121-3.0539-.0857-6.1103.0134-9.1519.297-1.9774.1922-3.9396.5146-5.8735.9651-1.7218.4581-3.299 1.0874-4.2247 2.2387-.1819.2172-.4061.3963-.6592.5268s-.5301.2097-.8147.233c-.5448.085-1.0972.1658-1.653.1978-2.8133.1653-5.59647.662-8.29024 1.4795-1.71633.5193-3.07383 1.2954-3.85141 2.5038v1.977c.62611.5971 1.31428 1.1274 2.0531 1.5822 2.00724.9734 4.17099 1.5943 6.39425 1.835.5613.0679.7769.2188.9139.6035.3576.8566 1.0131 1.5592 1.8486 1.9817 1.7625 1.0378 3.9003 1.4592 6.025 1.8976 2.0979.3691 4.2156.6187 6.3426.7476.4676.0414.9298.1461 1.3981.1563 4.3827.1472 8.7704-.0346 13.1252-.5437 2.16-.2332 4.284-.7203 6.3267-1.451 1.5896-.6117 3.1289-1.2866 3.6235-2.6431.056-.0881.1293-.1641.2157-.2237.0864-.0595.184-.1013.287-.1229.6819-.1577 1.3954-.2474 2.0793-.4017 1.5371-.3043 3.0441-.7414 4.5037-1.3062 1.2118-.549 2.3036-1.3258 3.2143-2.2869v-2.342c-1.038-1.1612-2.3533-2.0482-3.8266-2.5806zm-.9222 4.6215c-1.1477.5038-2.3405.9008-3.5629 1.1859-1.1385.3349-2.3151.5276-3.5022.5736-.3781.0341-.7509.1114-1.1109.2304-.9443.2304-1.4608.5886-1.3272 1.2369.2273 1.1058-.7934 1.4952-1.9284 1.835-1.8915.5536-3.8322.9273-5.7958 1.116-3.0753.356-6.1739.4784-9.2682.3663-2.5652-.0508-5.1246-.2589-7.6636-.6232-1.7325-.2492-3.4384-.6534-5.0966-1.2077-1.0552-.3881-1.1144-.5145-.6888-1.2533.3967-.6843-.0737-1.4142-1.2101-1.699-.786-.1728-1.5811-.303-2.3816-.3901-1.9054-.1989-3.77095-.6719-5.53742-1.4041-.83888-.3847-.84577-.6878.02342-1.0582.81861-.3521 1.66284-.6431 2.5256-.8706 2.4028-.5063 4.8336-.8735 7.2799-1.0996.9033-.0715 1.8102-.0892 2.7157-.0531.9608-.0135 1.6853-.3065 1.9766-.9514.1095-.2791.1028-.5896-.0186-.8638-.1715-.4078.0724-.6586.5331-.804.897-.307 1.8122-.5594 2.7405-.7558 2.991-.5301 6.0222-.8081 9.061-.8311 2.3899.1529 4.7977.2324 7.1669.4845 1.5355.1547 3.0456.4972 4.4954 1.0195.5751.212 1.0132.454 1.102.997.1123.6796.9374 1.0194 2.0145 1.1655 2.4136.2302 4.7854.7757 7.0534 1.6223.1538.0468.3028.1081.4449.1828 1.2101.8516 1.3244 1.2111-.04 1.8513z"/><path d="m36.1338 45.8689c.7734-.5825.4132-1.5258-.6605-1.7195-.5711-.1382-1.1736-.0657-1.6943.2039-1.3375.7476-2.7549 1.4231-4.1324 2.1354-2.1369 1.1019-4.269 2.2081-6.3963 3.3186-.5826.3051-1.1426.6321-1.686.9698-.1064.0596-.1992.1401-.2728.2365-.0737.0963-.1265.2066-.1553.3239-.0287.1173-.0329.2392-.0121.3581s.0661.2324.133.3334c.1812.4166.7094.577 1.3816.6117.3901-.0823.7727-.196 1.144-.3399.8437-.4077 1.6371-.8685 2.465-1.2912 2.8288-1.4522 5.6609-2.902 8.4962-4.3496.4845-.2256.9494-.4902 1.3899-.7911z"/><path d="m42.8358 44.1841c-.5287.1765-1.0413.3968-1.5324.6585-2.7458 1.4327-5.4844 2.8717-8.2159 4.317-.9243.4873-1.8596.9637-2.7549 1.4755-.6888.3928-.8265 1.0874-.3768 1.5257.3097.2329.6772.3792 1.0639.4236.3867.0443.7783-.0149 1.1339-.1714.2901-.1215.5738-.2576.8499-.4078 2.3417-1.2115 4.6811-2.4242 7.0182-3.638 1.4064-.7299 2.8148-1.4565 4.213-2.1939.4903-.2582.9256-.5518.8457-.9813-.042-.819-1.2232-1.3362-2.2446-1.0079z"/></g></svg>