<svg fill="none" height="64" viewBox="0 0 64 64" width="64" xmlns="http://www.w3.org/2000/svg"><g fill="#3d4f59"><path d="m20.5293 21.2065 1.1518 4.5069h1.3537l1.1517-4.5069v4.5069h1.4955v-5.9093h-2.4l-.9196 3.5961-.9258-3.5961h-2.4019v5.9093h1.4955z"/><path d="m26.2535 25.7134h1.8605l.2879-.9746h2.0723l.2968.9746h1.9118l-2.2219-5.9093h-1.9917zm3.1947-4.3775.6512 2.1263h-1.2961z"/><path d="m37.9144 25.0826c.2616-.2439.466-.5425.5989-.8744.1634-.4718.2367-.9701.2162-1.469.002-.3866-.0471-.7718-.1462-1.1455-.0886-.3445-.2475-.667-.4669-.9471-.217-.2709-.4976-.4839-.8168-.6201-.4128-.16-.8538-.2341-1.2962-.218h-2.7119v5.9093h2.7119c.3684-.0062.7344-.0604 1.0889-.1612.3089-.0877.5914-.2505.8221-.474zm-1.1517-1.2811c-.0714.1873-.2058.344-.3801.443-.2587.1018-.5368.145-.8142.1267h-.443v-3.2276h.4545c.1843-.0182.3702.0032.5455.0628s.3358.156.4707.2828c.2461.3812.3546.8351.3074 1.2864.0162.3479-.0328.6959-.1444 1.0259z"/><path d="m41.5149 23.2097h2.8422v-1.2049h-2.8422v-.9409h3.0637v-1.2616h-4.8941v5.9093h4.9827v-1.3387h-3.1523z"/><path d="m29.6591 29.2891h-1.3954v4.5077h1.3954z"/><path d="m30.6682 33.7968h1.3103v-2.4753l1.6878 2.4753h1.3129v-4.5077h-1.3129v2.4904l-1.6975-2.4939h-1.3006z"/><path d="m7.60504 42.551h1.48574v.6768c-.2439.1511-.50392.2744-.77521.3677-.2293.0721-.46839.1083-.70876.1072-.22841.0126-.45678-.0256-.66866-.1118-.21187-.0863-.40197-.2184-.55661-.387-.33883-.4872-.49563-1.078-.44298-1.6691-.04758-.5697.10602-1.1381.43411-1.6063.1433-.1673.32265-.3.52459-.3881.20193-.088.4212-.1292.64133-.1204.28443-.0112.56555.0642.80621.2162.21538.1501.37367.3687.44918.6201l2.14402-.3827c-.1089-.4222-.3091-.8154-.5865-1.1517-.2633-.3049-.60172-.5358-.98165-.6698-.57846-.1686-1.18055-.2416-1.78254-.2162-.67311-.0281-1.34427.0907-1.96682.3482-.60165.2794-1.09941.7421-1.42195 1.3218-.33642.629-.504 1.3344-.48638 2.0475-.01366.6869.13829 1.367.44297 1.9827.27264.5516.70931 1.0053 1.25008 1.2988.64887.3163 1.36605.4667 2.08731.4377.60843.0123 1.2151-.0696 1.79849-.2427.62141-.2214 1.20839-.5295 1.74359-.9152v-3.0583h-3.43311z"/><path d="m18.3091 39.4997v-1.5353h-5.9553v7.1921h6.0634v-1.6283h-3.8362v-1.4176h3.4553v-1.4662h-3.4553v-1.1447z"/><path d="m25.6404 43.0728c-.0889-.1575-.1931-.3059-.311-.443-.1029-.1398-.2218-.2671-.3544-.3792-.1789-.1162-.3738-.2057-.5785-.2658.2733-.054.5366-.1499.7806-.2844.2897-.1718.5314-.4141.7025-.7043.1765-.3151.2643-.672.2543-1.033.0131-.4137-.1037-.8211-.334-1.1651-.2107-.311-.52-.5419-.878-.6556-.5131-.1365-1.0437-.1962-1.5743-.1772h-3.7042v7.1922h2.2326v-2.9236h.1967c.1943-.0024.3845.0562.5439.1674.1712.1549.3082.3438.4023.5546l1.188 2.1972h2.5108zm-1.8791-2.5179c-.0882.1171-.2167.1972-.3606.225-.1931.0502-.3902.0832-.5892.0984h-.9364v-1.4627h.9746c.2893-.0294.5804.0362.8292.1869.0744.0663.1328.1485.1708.2406.0381.092.0548.1915.0489.291.0045.1514-.0427.2998-.1338.4208z"/><path d="m31.454 42.3401-1.1278-4.3757h-2.9236v7.1921h1.8197v-5.4849l1.3998 5.4849h1.6479l1.4016-5.4849v5.4849h1.8206v-7.1921h-2.9236z"/><path d="m38.8092 43.9685h2.5241l.3597 1.188h2.3265l-2.7021-7.1921h-2.424l-2.7048 7.1921h2.2689zm1.2687-4.1401.7974 2.5852h-1.5797z"/><path d="m49.5239 41.9432-2.7065-3.9788h-2.0758v7.1921h2.0899v-3.9487l2.6933 3.9487h2.0944v-7.1921h-2.0944z"/><path d="m56.2864 40.391-1.4494-2.4266h-2.4683l2.8005 4.1799v3.0122h2.2273v-3.0122l2.7961-4.1799h-2.455z"/><path d="m29.683.085398h-4.8524v14.455202h4.8524z"/><path d="m15.5547.0871762h-3.581v1.0852838c-.0437 6.24598-.0869 12.49134-.1294 18.73614h3.7104z"/><path d="m.123154 1.19019c-.0407536 6.23948-.0818095 12.47891-.123154 18.71841h3.4251v-19.8143391h-3.301946c0 .4066531.002658.7512891 0 1.0959291z"/><path d="m63.9933 19.2202c.0042-6.1562.0042-12.31266 0-18.46945 0-.222375-.0345-.442978-.0522-.6626951h-3.1469v19.8205451h3.1398c.0177-.2286.0593-.458.0593-.6884z"/><path d="m45.686 15.9688c0 1.3121-.0142 2.6251-.0221 3.9372h2.8545c0-6.5112 0-13.02297 0-19.535319-.0127-.098416-.0347-.195424-.0656-.2897171h-2.804v.9045691c.0118 4.996777.0242 9.991167.0372 14.983267z"/><path d="m59.3634 19.9086c-.0107-.349-.0311-.699-.0293-1.0481.0101-5.9004.0225-11.80117.0372-17.70221 0-.342868 0-.685735 0-1.0773271h-2.8129c-.0318.0934971-.054.1899761-.0664.2879461.0041 6.513531.0106 13.027091.0195 19.540591z"/><path d="m23.6913 5.33556c0-1.577.0142-3.15489-.0124-4.731889 0-.19048-.2126-.5315649-.3491-.5430823-.7486-.05404323-1.5061-.0256989-2.3513-.0256989v14.5048102h2.711c.0006-3.0689.0012-6.13697.0018-9.20414z"/><path d="m34.2483.0907118h-2.6888v.7973672l-.0231 13.657021h2.7119z"/><path d="m38.9572 14.5415v-14.4516669h-2.6721c-.027.0706619-.0463.1440239-.0575.2188249.0053 4.743402.0112 9.487682.0177 14.232842z"/><path d="m40.1001 14.5406h2.2831c0-4.72507-.0036-9.45163-.0107-14.179673-.0163-.115569-.046-.228842-.0886-.3375455-.4313.0195503-.8633.0165844-1.2943-.0088682-.7017-.0744202-.9374.1293577-.9321.7973667.0257 3.53496-.0106 7.06991-.0141 10.60572.0017 1.0393.0372 2.0811.0567 3.123z"/><path d="m54.6545.0942609h-1.8543v19.8143391h1.8543z"/><path d="m6.51531 18.8659c0-5.894 0-11.78856 0-17.6837v-1.0914882h-1.66028v19.8178882h1.71255c-.02392-.3464-.05227-.6946-.05227-1.0427z"/><path d="m10.1318.0800842h-.99229v4.4953358c0 5.11077-.00207 10.22188-.00621 15.33318h.9985z"/><path d="m44.381 14.5406c.0115-.1063.0319-.2108.0337-.3171 0-4.3235.002-8.64755.0062-12.97218v-1.1632651h-.9905v1.2961451 12.3316c0 .2755-.0346.5493-.0523.8239z"/><path d="m17.9804 14.5406h.9994v-14.4463391h-.9994z"/><path d="m51.5156 19.9095v-19.8196669h-.8124c-.0291.0966499-.0495.1956689-.0612.2959079.0036 6.508219.0095 13.016159.0178 19.523759z"/><path d="m24.8306 63.9955h4.8524v-14.5988h-4.8524z"/><path d="m11.9737 50.1941c-.0437 4.601-.0869 9.2018-.1294 13.8023h3.7104v-14.5997h-3.581z"/><path d="m.123154 50.2074c-.0407536 4.5963-.0818095 9.1923-.123154 13.7881h3.4251v-14.597h-3.301946c0 .3003.002658.5555 0 .8089z"/><path d="m60.7942 49.3967v14.5997h3.1398c.0317-.1675.0527-.3367.0629-.5068.0041-4.5361.0041-9.0713 0-13.6056-.0084-.1633-.0258-.326-.0523-.4873z"/><path d="m48.4493 49.3958h-2.804v.6672c.0141 3.6784.0277 7.3572.0407 11.0363 0 .9666-.0142 1.9323-.0221 2.9006h2.8545c0-4.7971 0-9.5937 0-14.3897-.014-.074-.0373-.146-.0691-.2144z"/><path d="m56.4911 49.6014c.0041 4.7983.0106 9.5963.0195 14.3941h2.8528c-.0107-.257-.0311-.5148-.0293-.7717.0101-4.3465.0225-8.6936.0372-13.0412 0-.2525 0-.5041 0-.7974h-2.8129c-.0321.0687-.0547.1414-.0673.2162z"/><path d="m23.329 49.3834c-.7487-.054-1.5062-.0257-2.3514-.0257v14.6369h2.711c0-3.0961 0-6.1925 0-9.2892 0-1.5948.0142-3.1833-.0124-4.7745-.0017-.1931-.209-.5368-.3472-.5475z"/><path d="m31.5603 50.195-.023 13.796h2.7119v-14.5934h-2.6889c0 .2959.0009.5484 0 .7974z"/><path d="m36.2276 49.6164c.0053 4.793.0112 9.5858.0177 14.3782h2.7119v-14.5979h-2.6721c-.0268.071-.0461.1447-.0575.2197z"/><path d="m42.2857 49.3524c-.4313.0199-.8633.0172-1.2944-.008-.7017-.0753-.9373.1294-.932.8036.0257 3.5642-.0106 7.1293-.0142 10.6952 0 1.0508.0346 2.1015.0541 3.1523h2.2831c0-4.7676-.0036-9.535-.0106-14.302-.0155-.1166-.0444-.2311-.086-.3411z"/><path d="m52.8002 63.9955h1.8543v-14.597h-1.8543z"/><path d="m6.51266 50.2003v-.8027h-1.66029v14.5988h1.71255c-.01772-.2561-.04961-.5121-.04961-.7682-.00296-4.3435-.00383-8.6862-.00265-13.0279z"/><path d="m9.13951 52.6996c0 3.7653-.00207 7.5303-.00621 11.295h.9985v-14.6059h-.99229c0 1.1279.00177 2.2211 0 3.3109z"/><path d="m43.4304 50.7044v12.4583c0 .2773-.0346.5546-.0523.8319h.9993c.0116-.1063.0319-.2135.0337-.3198 0-4.3708.0021-8.7391.0062-13.1051v-1.173h-.9905z"/><path d="m17.9804 63.9955h.9994v-14.597h-.9994z"/><path d="m50.6411 49.6138c.0036 4.793.0095 9.5866.0178 14.3808h.8558v-14.5979h-.8124c-.0287.0698-.0492.1426-.0612.2171z"/></g></svg>