<svg fill="none" height="64" viewBox="0 0 64 64" width="64" xmlns="http://www.w3.org/2000/svg"><g fill="#3d4f59"><path d="m40.7317 7.59525c-.0036-1.21761-.489-2.38432-1.3499-3.2453-.861-.86099-2.0277-1.3463-3.2453-1.34995h-8.2063c-1.2176.00365-2.3843.48896-3.2453 1.34995-.861.86098-1.3462 2.02769-1.3499 3.2453l-6.5638 8.86265h30.5243z"/><path d="m4.46267 36.7953h55.14303c1.0434-.0032 2.0432-.4191 2.781-1.157.7378-.7378 1.1537-1.7375 1.1569-2.781v-3.2823l-16.2472-9.8429h-3.354v8.691h-3.4653v-8.6951h-2.7576v6.1262c-.0022.6959-.2795 1.3626-.7715 1.8547-.4919.4921-1.1586.7696-1.8544.772h-6.127c-.6959-.0021-1.3627-.2796-1.8547-.7718-.492-.4921-.7692-1.159-.7712-1.8549v-6.1262h-9.5744l-16.242428 9.8429v3.2824c.002146 1.0442.417715 2.0452 1.155818 2.7839.73811.7387 1.73871 1.1551 2.78298 1.1581z"/><path d="m1.39754 42.8483c2.00519 0 2.95286 1.1966 4.15353 2.7096 1.31456 1.6579 2.95125 3.7224 6.04563 3.7224 3.0944 0 4.7303-2.0637 6.0457-3.7224 1.2007-1.5138 2.1483-2.7096 4.1527-2.7096s2.9529 1.1966 4.1536 2.7096c1.3145 1.6579 2.9512 3.7224 6.0456 3.7224s4.7303-2.0637 6.0456-3.7224c1.2007-1.5138 2.1484-2.7096 4.1528-2.7096s2.9528 1.1966 4.1535 2.7096c1.3154 1.6579 2.9513 3.7224 6.0473 3.7224 3.0961 0 4.7319-2.0637 6.0473-3.7224 1.199-1.5138 2.1483-2.7096 4.1535-2.7096.7736 0 1.4016-.8631 1.4016-1.9296 0-1.0664-.628-1.9295-1.4016-1.9295-3.0911 0-4.7319 2.0638-6.0473 3.7224-1.2006 1.5139-2.1483 2.7097-4.1527 2.7097s-2.9545-1.1966-4.1543-2.7097c-1.3146-1.6578-2.9513-3.7224-6.0457-3.7224s-4.7319 2.0638-6.0473 3.7224c-1.199 1.5139-2.1467 2.7097-4.1486 2.7097-2.002 0-2.9529-1.1966-4.1536-2.7097-1.3153-1.6578-2.9512-3.7224-6.0456-3.7224s-4.7319 2.0638-6.0457 3.7224c-1.2007 1.5139-2.1483 2.7097-4.1527 2.7097-2.00437 0-2.95288-1.1966-4.15355-2.7097-1.31456-1.6578-2.95122-3.7224-6.04564-3.7224-.773599 0-1.40161.8639-1.40161 1.9295 0 1.0657.62394 1.9296 1.39754 1.9296z"/><path d="m62.5943 49.7294c-3.0911 0-4.7319 2.0653-6.0473 3.7232-1.2006 1.5138-2.1483 2.7096-4.1527 2.7096s-2.9545-1.1966-4.1543-2.7096c-1.3146-1.6579-2.9513-3.7232-6.0457-3.7232s-4.7319 2.0653-6.0473 3.7232c-1.199 1.5138-2.1467 2.7096-4.1486 2.7096-2.002 0-2.9529-1.1966-4.1536-2.7096-1.3153-1.6579-2.9512-3.7232-6.0456-3.7232s-4.7319 2.0653-6.0457 3.7232c-1.2007 1.5138-2.1483 2.7096-4.1527 2.7096-2.00437 0-2.95288-1.1966-4.15355-2.7096-1.31456-1.6579-2.95122-3.7232-6.04564-3.7232-.773599 0-1.40161.8647-1.40161 1.9303s.628011 1.9295 1.40161 1.9295c2.00519 0 2.95286 1.195 4.15353 2.7097 1.31456 1.6578 2.95125 3.7224 6.04566 3.7224 3.0944 0 4.7303-2.0638 6.0457-3.7224 1.2006-1.5147 2.1483-2.7097 4.1527-2.7097 2.0043 0 2.9529 1.195 4.1535 2.7097 1.3146 1.6578 2.9512 3.7224 6.0457 3.7224 3.0944 0 4.7303-2.0638 6.0456-3.7224 1.2007-1.5147 2.1484-2.7097 4.1528-2.7097 2.0043 0 2.9528 1.1966 4.1535 2.7097 1.3154 1.6578 2.9512 3.7224 6.0473 3.7224 3.096 0 4.7319-2.0638 6.0473-3.7224 1.199-1.5139 2.1483-2.7097 4.1535-2.7097.7736 0 1.4016-.8639 1.4016-1.9295s-.6321-1.9303-1.4057-1.9303z"/></g></svg>