<svg fill="none" height="64" viewBox="0 0 65 64" width="65" xmlns="http://www.w3.org/2000/svg"><g fill="#455b66"><path d="m60.5275 16.5507c-.1101-.1998-.2585-.3758-.4367-.5181s-.3828-.2481-.6019-.3114c-.2191-.0632-.4485-.0826-.6752-.0571-.2266.0255-.446.0954-.6456.2058-.1996.1103-.3755.2589-.5177.4372s-.2478.3829-.3109.6021c-.0631.2191-.0824.4486-.0568.6752.0257.2266.0957.446.2061.6456 2.3215 4.2182 3.5384 8.9551 3.5376 13.77-.0084 7.5633-3.0166 14.8144-8.3647 20.1625-5.348 5.348-12.5991 8.3562-20.1624 8.3646-7.5633-.0084-14.8144-3.0166-20.1625-8.3646-5.34804-5.3481-8.35625-12.5992-8.36462-20.1625.00913-7.5628 3.01767-14.8132 8.36562-20.1606 5.348-5.34745 12.5987-8.35525 20.1615-8.36362 4.5446-.0153 9.0256 1.06735 13.0619 3.15584.2027.10473.4239.16851.6512.18769.2273.01917.4561-.00664.6734-.07593.2173-.0693.4188-.18073.5931-.32794.1742-.14721.3177-.32731.4223-.53.1045-.20273.1682-.42408.1872-.6514.019-.22731-.0069-.45615-.0764-.67344-.0694-.21729-.1809-.41877-.3282-.59295-.1473-.17417-.3275-.31762-.5303-.42215-4.5336-2.32879-9.5567-3.54416367-14.6535-3.5455-8.4839.00970345-16.6176 3.38424-22.6167 9.3833-5.99906 5.9991-9.373597 14.1328-9.3833 22.6167.009324 8.4841 3.38374 16.618 9.38289 22.6171 5.99911 5.9992 14.13301 9.3736 22.61711 9.3829 8.4841-.0093 16.618-3.3837 22.6171-9.3829 5.9992-5.9991 9.3736-14.133 9.3829-22.6171.0002-5.4024-1.3663-10.7171-3.9725-15.4493z"/><path d="m32.4993 17.7512c.6735.0009 1.3461.0489 2.0128.1438.4598.0644.9263-.0562 1.2974-.3353.371-.2791.6161-.6939.6817-1.1535.0646-.4597-.0559-.9262-.3351-1.297s-.6941-.6156-1.1537-.6807c-.8292-.1173-1.6656-.1764-2.5031-.1768-4.7059.0053-9.2175 1.8771-12.5451 5.2047-3.3276 3.3275-5.1993 7.8391-5.2046 12.545.0049 4.7062 1.8765 9.2182 5.2041 12.5461 3.3276 3.3278 7.8394 5.1998 12.5456 5.2051 4.7061-.0055 9.2178-1.8775 12.5454-5.2054 3.3275-3.3278 5.1992-7.8397 5.2043-12.5458.0007-1.2007-.1197-2.3984-.3594-3.5749-.0459-.2254-.1357-.4396-.2644-.6302-.1287-.1907-.2937-.3541-.4856-.4809-.1918-.1269-.4068-.2147-.6327-.2584-.2258-.0437-.458-.0425-.6834.0036-.4549.0927-.8543.3623-1.1105.7494-.2561.3872-.348.8603-.2553 1.3152.1922.9464.2885 1.9098.2875 2.8755-.0043 3.7781-1.5071 7.4001-4.1786 10.0716s-6.2936 4.1743-10.0716 4.1787c-3.7782-.0042-7.4003-1.5069-10.0719-4.1784-2.6715-2.6716-4.1742-6.2938-4.1784-10.0719.0042-3.7788 1.5075-7.4015 4.18-10.0731 2.6725-2.6715 6.2958-4.1736 10.0746-4.1764z"/><path d="m53.765 7.12333 1.5578-.41981-21.6201 21.62018.4198-1.5578c.1202-.4483.0577-.9259-.1738-1.328-.2316-.4022-.6132-.6961-1.0612-.8172-.4482-.1204-.9259-.058-1.3282.1736-.4022.2316-.696.6134-.817 1.0615l-2.1206 7.8781c-.08.2972-.0803.6103-.0008.9076s.236.5685.4537.7861c.328.3278.7727.5119 1.2364.5118.154.0002.3072-.0201.4558-.0604l7.8782-2.1206c.4479-.1211.8296-.415 1.0611-.8172.2316-.4021.2941-.8797.1739-1.328-.1209-.4481-.4148-.8298-.817-1.0614s-.8799-.294-1.3282-.1736l-1.5563.4198 21.6194-21.62013-.4184 1.55783c-.1206.4478-.0584.9253.1729 1.3273.2314.402.6129.6957 1.0607.8164.1491.0406.3028.0613.4572.0618.3846-.0002.7584-.127 1.0636-.3609s.5249-.5618.6251-.9331l2.1221-7.87958c.0798-.29699.08-.60977.0005-.90684s-.2359-.56797-.4534-.78539c-.2173-.21767-.4882-.37411-.7853-.45351-.2972-.0794-.61-.07894-.9069.00134l-7.8796 2.12069c-.448.12104-.8295.41498-1.0608.81722s-.2935.87987-.1728 1.32791c.1207.44753.4141.82886.8158 1.06027.4016.23142.8787.29401 1.3264.17402z"/></g></svg>