<svg fill="none" height="64" viewBox="0 0 62 64" width="62" xmlns="http://www.w3.org/2000/svg"><g fill="#455b66"><path d="m36.2284 10.861v-2.36404h1.8288c.3136.02949.6297-.0113.926-.11951.2962-.1082.5653-.28114.7881-.50655.2228-.2254.3939-.49774.501-.79766.1072-.29992.1478-.62005.119-.93766.0065-1.29036.0065-2.58008 0-3.86913.0162-.30141-.0304-.60288-.1368-.88485-.1064-.28196-.2702-.538099-.4807-.751785-.2104-.213686-.463-.380141-.7411-.488534-.2782-.1083942-.5758-.1563094-.8734-.14063606-3.4036 0-6.8059.00259636-10.2069.00779765-.303-.02553359-.6079.01602941-.8934.12180641-.2856.105777-.545.27323-.7602.490736-.2153.217507-.3812.479865-.4863.768835s-.1468.59764-.1223.90459c-.0103 1.31202-.0077 2.62406 0 3.93609-.0193.30695.027.61452.1358.90167.1089.28715.2776.54712.4948.76213.2172.215.4776.37997.7635.48365s.5906.14362.8931.11706c.6272-.0039 1.2538 0 1.8655 0 .0234.09779.0404.19705.0508.29713.0064.48892-.018.98043.0192 1.46676.0353.4701-.1187.6541-.6002.7243-4.0121.5703-7.8359 2.0864-11.164 4.4263-1.7162 1.1834-3.2779 2.5815-4.6483 4.161 1.8378 2.1118 3.6475 4.1903 5.4481 6.2591.0549-.0162.1075-.0393.1567-.0689.095-.091.188-.1853.2753-.2854 4.1592-4.754 9.3583-6.9197 15.6076-6.2962 4.2888.4547 8.2732 2.4558 11.2264 5.6383 2.9532 3.1824 4.6784 7.3341 4.8607 11.6976.2061 6.2247-2.0651 11.4598-6.9773 15.2268-6.0156 4.6162-12.5885 5.1942-19.37 1.7958-3.0204-1.5617-5.5408-3.9602-7.2676-6.9163-1.7269-2.956-2.5893-6.348-2.4867-9.7812.0128-.4551.1579-.6118.622-.6027 1.4926.0267 2.9851.0117 4.4776.0052.4712 0 1.0059.119 1.2653-.4551.2529-.5617-.244-.8355-.4917-1.2034-.0133-.018-.0277-.0352-.0431-.0514-3.009-3.4788-6.018-6.9574-9.027-10.4357-.7003-.8088-1.0271-.814-1.7332 0-3.06978 3.5416-6.13314 7.0889-9.190071 10.6418-.246176.284-.372288.6545-.351141 1.0318.089872.5019.602792.4785 1.027112.4772 1.71014-.0039 3.41963 0 5.17919 0-.26868 6.6711 1.94338 13.2014 6.19901 18.3005 4.2555 5.099 10.2449 8.3956 16.7844 9.2382s13.1531-.8301 18.5337-4.6875c5.3807-3.8574 9.1367-9.6187 10.5259-16.1454 1.4382-6.3128.4601-12.943-2.7373-18.5543-4.369-7.7968-11.0908-12.1984-19.7859-13.5383z"/><path d="m33.4231 32.0393c-.7349-.0561-1.4733.0456-2.1667.2985s-1.3263.6513-1.8571 1.1691c-.5309.5178-.9478 1.1433-1.2235 1.8355-.2757.6923-.4039 1.4357-.3762 2.1816.0276.7459.2105 1.4775.5367 2.1469.3261.6694.7882 1.2614 1.3559 1.7374s1.2283.8252 1.9385 1.0247 1.454.2449 2.1827.1331c.3162-.0294.6335.0428.9071.2061 2.1229 1.2457 4.2188 2.5356 6.3552 3.7632.4297.1574.8816.2439 1.3384.2561-.0328-.448-.1304-.8888-.2895-1.3081-1.1779-2.1033-2.4227-4.1676-3.607-6.2682-.219-.3657-.3227-.7903-.2973-1.2171.0873-.713.0311-1.4365-.1652-2.1269s-.5286-1.3334-.9768-1.8902c-.4483-.5568-1.0033-1.0159-1.6315-1.3496s-1.3166-.5351-2.0237-.5921z"/><path d="m60.9849 14.2268c-1.6909-1.7446-3.4004-3.4708-5.1285-5.17852-.3371-.25383-.7036-.46497-1.0913-.62871-.3992.15692-.7784.36143-1.1298.60921-.7479.68462-1.4585 1.41412-2.1486 2.16052-.1676.1482-.3011.3318-.3913.5379-.0901.206-.1347.4295-.1306.6549.0041.2253.0568.447.1544.6495.0975.2025.2376.381.4105.523 1.6618 1.7112 3.3379 3.4081 5.0283 5.0907.1364.1635.3054.296.4958.3887.1905.0928.3982.1437.6094.1494.2113.0057.4214-.0339.6165-.1162.195-.0823.3707-.2055.5155-.3614.7704-.7217 1.5201-1.4785 2.2321-2.2632.1493-.1436.2674-.3171.3468-.5095s.1184-.3994.1144-.6079c-.004-.2084-.0508-.4138-.1375-.6029s-.2114-.3579-.3661-.4955z"/></g></svg>