<svg fill="none" height="64" viewBox="0 0 52 64" width="52" xmlns="http://www.w3.org/2000/svg"><g fill="#455b66"><path d="m50.7046 24.2073c1.8278-3.0676.3656-6.5699-2.957-7.1945-1.9649-.3701-3.7279.4813-4.9454 2.4273-1.2099 1.9347-2.2845 3.9624-3.6177 5.8059-1.7114 2.3658-3.77 2.7603-6.2722 1.3635-.871-.5081-1.6817-1.1128-2.4167-1.8027-1.7686-1.608-3.4799-3.2787-5.2183-4.9212-3.8613-3.6513-7.708-7.3165-11.5938-10.93957-.3588-.35761-.7849-.64068-1.2538-.83291-.4689-.19224-.9714-.28985-1.4782-.2871-.5069.00274-1.00823.10575-1.47504.30305s-.88981.48501-1.24467.84649c-.349.36552-.62178.79666-.80252 1.26834-.18074.4717-.26581.9746-.2503 1.4794s.13126 1.0015.34062 1.4612c.20936.4598.50816.8734.87894 1.2169.47943.4963.99217.9626 1.49236 1.4376 6.81731 6.4778 13.63331 12.9561 20.44811 19.4348.807.7096 1.3701 1.6546 1.6096 2.7014s.1432 2.1424-.2752 3.1316c-.8343 2.262-2.5858 3.4131-5.0082 3.5187-.3485.0151-.692.0629-1.0922.0974.2284 1.9228-.1088 3.5816-1.415 4.9595-1.3357 1.4069-3.0458 1.7933-4.9705 1.7274.3574 3.1788-.8871 5.351-3.8649 6.5907 1.1526 2.4807 3.2405 4.4057 5.8084 5.3551 2.568.9494 5.4077.8463 7.8999-.2868 3.9139-1.777 7.79-3.635 11.6283-5.574 2.4061-1.2008 4.2534-3.2853 5.1543-5.8164.901-2.5311.7857-5.3123-.3216-7.7604-.7046-1.6004-1.4432-3.1914-2.2763-4.7277-.2797-.434-.4184-.9436-.3967-1.4593.0216-.5156.2023-1.012.5175-1.4211 2.528-3.99 4.951-8.0478 7.3682-12.1026z"/><path d="m17.9248 48.9511c.5445.4858 1.2305.7845 1.9574.8524.727.0678 1.4567-.0988 2.0819-.4754 1.3433-.6787 2.0076-1.8386 2.0687-3.8191-.1605-.3739-.2976-1.329-.8463-1.8625-3.9197-3.8096-7.8747-7.5867-11.9253-11.2568-1.43447-1.3007-3.74046-.9375-5.04662.4775-.64575.6852-1.00572 1.5904-1.00666 2.5313-.00093.9409.35728 1.8468 1.00167 2.5332 3.84551 3.7337 7.75051 7.4068 11.71521 11.0194z"/><path d="m28.3413 42.5859c1.3521-.6786 2.0304-1.8165 2.3034-3.4653-.3785-.8974-.8358-1.7595-1.3665-2.5762-.6988-.8004-1.4591-1.5452-2.2739-2.2276-2.9319-2.7779-5.8406-5.5815-8.8084-8.3174-.3522-.3675-.7759-.6592-1.245-.8573-.4692-.198-.9741-.2982-1.4834-.2943-.5094.0038-1.0126.1115-1.4787.3166-.4662.2051-.8854.5031-1.2321.8759-1.2936 1.3195-1.4961 3.7701-.1554 5.0833 3.8367 3.7538 7.7376 7.4401 11.7026 11.059.5416.489 1.2258.792 1.9524.8646.7265.0726 1.4571-.0891 2.085-.4613z"/><path d="m17.6592 52.326c-.1799-.4254-.3089-1.3881-.8562-1.9254-3.3724-3.3057-6.785-6.5788-10.30395-9.7293-1.42885-1.2774-3.58633-.9318-4.91325.4399-1.266522 1.3095-1.5269514 3.6444-.23463 4.9325 3.34908 3.3302 6.80195 6.5587 10.29703 9.7331 1.1098 1.0085 2.5676.9344 3.9059.2998 1.3823-.6548 1.9856-1.8455 2.1051-3.7506z"/><path d="m38.1155 12.7369c.66.7973 1.4345.754 2.2367.164 1.4024-1.0343 2.8369-2.0289 4.2154-3.09461.3832-.38741.7188-.81899.9998-1.28562-.3266-.51084-.5128-1.15997-.8896-1.30072-.2804-.10685-.5795-.15586-.8794-.1442-.2998.01166-.5942.08378-.8654.21208-1.5534.99342-3.0275 2.11879-4.4916 3.24667-.7682.5906-1.0029 1.3855-.3259 2.2024z"/><path d="m30.3528 8.5451c.6254-.18284 1.0695-.97833 1.3564-1.25669-.2668-2.28782-.4806-4.02137-.6643-5.75562-.1064-1.015407-.6676-1.601704-1.6561-1.5263022-1.0318.0798002-1.413.8169002-1.313 1.8078022.1745 1.73843.3536 3.47682.5373 5.21525.1101 1.04808.66 1.82785 1.7397 1.51556z"/><path d="m36.3142 9.29786c1.0803-1.98181 1.9907-4.05598 3.0496-6.29982-.4524-.50267-.7959-1.21898-1.2458-1.29313-.3154-.0426-.6365-.00965-.9367.09611s-.5709.2813-.7897.51215c-.9492 1.76613-1.7666 3.59986-2.4456 5.48615-.0295.31615.0191.63468.1415.92772s.3149.5516.5606.75307c.3612.25448 1.5007.1225 1.6661-.18225z"/><path d="m23.7697 9.44935c.2895.24977.6357.42522 1.0085.51107.3728.08588.7609.07958 1.1307-.01841.9884-.45932.84-1.46846.2347-2.30668-1.023-1.4163-2.0353-2.84081-3.1175-4.20998-.2926-.28633-.6367-.5148-1.0143-.67352-1.6075.02702-2.2304 1.19383-1.4615 2.37387.9561 1.52457 2.0326 2.97039 3.2194 4.32365z"/></g></svg>