<svg fill="none" height="41" viewBox="0 0 57 41" width="57" xmlns="http://www.w3.org/2000/svg" xmlns:xlink="http://www.w3.org/1999/xlink"><linearGradient id="a" gradientUnits="userSpaceOnUse" x1="28.5" x2="28.5" y1="40.098" y2="0"><stop offset="0" stop-color="#e52d27"/><stop offset="1" stop-color="#bf171d"/></linearGradient><clipPath id="b"><path d="m0 0h57v40.096h-57z"/></clipPath><g clip-path="url(#b)"><path d="m22.612 27.4391 15.4-7.98-15.4-8.036z" fill="#fff"/><path d="m22.612 11.4231 13.5 9.018 1.9-.982z" fill="#420000" opacity=".12"/><path d="m56.431 8.65s-.558-3.929-2.266-5.659c-1.5108-1.52544-3.5622-2.393564-5.709-2.416-7.98-.57499994-19.945-.575-19.945-.575h-.022s-11.965.00000006-19.945.575c-2.14684.022436-4.19822.89056-5.709 2.416-1.708 1.73-2.266 5.659-2.266 5.659-.354415 3.0626-.5443539 6.142-.569 9.225v4.325c.0246461 3.083.214585 6.1624.569 9.225 0 0 .558 3.929 2.266 5.659 2.171 2.271 5.017 2.2 6.284 2.439 4.559.435 19.381.575 19.381.575s11.976-.017 19.956-.6c2.147-.0215 4.1988-.8897 5.709-2.416 1.708-1.73 2.266-5.659 2.266-5.659.3541-3.062.544-6.1407.569-9.223v-4.325c-.0246-3.083-.2146-6.1624-.569-9.225zm-33.818 18.79v-16.017l15.4 8.036z" fill="url(#a)"/></g></svg>