<svg fill="none" height="65" viewBox="0 0 42 65" width="42" xmlns="http://www.w3.org/2000/svg"><g fill="#455b66"><path d="m41.4344 19.7051c-.4604-7.2489-3.744-12.83984-9.7982-16.73348-2.5624-1.64842-5.4354-2.367907-8.3507-2.97241346h-3.3562c-2.2642.65654246-4.6661 1.02015346-6.7692 2.02744346-6.03033 2.89084-9.68211 7.68128-10.23158 14.60835-.13958 1.7577.83557 2.9378 2.26356 2.9827 1.38947.0424 2.1657-1.0394 2.49411-2.6673.37895-1.8661.77239-3.873 1.74312-5.4476 5.49789-8.91919 19.47399-9.31491 25.35339 1.6382 3.2027 5.9647 2.4037 12.1826.0757 18.2566-1.5909 4.1512-4.618 7.2971-7.5605 10.4642-2.8763 3.0395-5.1936 6.5788-6.8419 10.4501-.7381 1.787-1.8237 3.404-3.1914 4.7538-4.1639 3.9707-9.90243 2.3127-11.57737-3.196-.24631-.8088-.35494-1.66-.5362-2.4906-.07991-.6157-.39357-1.1752-.87386-1.5587-.48028-.3834-1.08902-.5605-1.69601-.4932-.3039.0321-.59859.125-.86714.2732-.26855.1483-.50569.349-.6978.5906-.192117.2417-.335431.5196-.421722.8177s-.113875.6107-.081144.9197c.373893 3.9604 1.705256 7.5406 4.976816 9.9188 1.42042 1.0342 3.27285 1.455 4.93013 2.1552h2.796c.1193-.0706.2343-.1882.3587-.2023 4.4659-.521 7.6787-2.9596 9.8583-6.8353 1.1273-2.0043 1.7892-4.3137 3.0947-6.1671 2.1283-2.982 4.4304-5.8317 6.8936-8.5338 5.7688-6.4164 8.5642-13.8773 8.0128-22.5588z"/><path d="m25.8688 14.83c2.3166.4086 3.4168 1.6703 3.9126 4.502.0385.5646.1385 1.123.2981 1.6651.2518.4035.5656.7631.9297 1.0652.2526-.3508.7023-.6926.72-1.0562.0795-1.1747.0448-2.3545-.1036-3.5223-.5874-3.9829-3.2507-6.9965-6.8507-7.4262-4.3756-.52231-7.1463.2306-9.4054 4.8013-.3666.6587-.6768 1.3482-.9272 2.0609-.9609 3.2225-2.7513 6.1251-5.18587 8.4072-2.47135 2.3962-1.96421 4.3189 1.10587 5.8035 2.6893 1.299 3.0278 4.0536.7276 6.0187-.6404.548-1.36295 1.0009-1.97305 1.5797-1.55431 1.4776-1.63326 3.3341-1.07369 5.2479.49453 1.6946 1.8701 2.5497 3.86334 2.7045 2.4853.1927 4.3251-.9829 5.7726-2.8452 2.9356-3.7787 3.2141-7.9832 1.9118-12.4917-.7301-2.5266-1.1741-5.1392-1.8132-8.0063.4654-1.7988.7313-3.8461 1.5265-5.6532 1.0503-2.3956 3.6871-3.3643 6.5646-2.8549z"/></g></svg>