<svg fill="none" height="24" viewBox="0 0 24 24" width="24" xmlns="http://www.w3.org/2000/svg"><g stroke="#d0021b" stroke-linecap="round" stroke-linejoin="round"><path clip-rule="evenodd" d="m13.1043 4.17701 1.8274 3.65075c.1791.3584.5248.60691.9256.66442l4.088.58844c1.0101.14582 1.412 1.36988.681 2.07128l-2.9561 2.8405c-.2905.2794-.4228.6809-.354 1.0752l.6976 4.0102c.1718.992-.884 1.7489-1.7868 1.2796l-3.6538-1.8947c-.3582-.1859-.7872-.1859-1.1464 0l-3.6538 1.8947c-.90277.4693-1.95861-.2876-1.78576-1.2796l.69661-4.0102c.06872-.3943-.06352-.7958-.35403-1.0752l-2.95614-2.8405c-.73096-.7014-.32904-1.92546.68098-2.07128l4.08799-.58844c.40089-.05751.74763-.30602.92672-.66442l1.82633-3.65075c.452-.90268 1.7566-.90268 2.2086 0z" fill-rule="evenodd" stroke-width="1.5"/><path d="m11.9948 16.0001v-4" stroke-width="1.5"/><path d="m11.9899 8.20435h.01" stroke-width="2"/></g></svg>