<svg fill="none" height="64" viewBox="0 0 78 64" width="78" xmlns="http://www.w3.org/2000/svg"><g fill="#3d4f59"><path d="m49.3408 4.43617c-.0035-1.17547-.472-2.30179-1.3032-3.13298-.8312-.831191-1.9575-1.29969979-3.133-1.30319h-14.2542c-1.1754.00349021-2.3017.471999-3.1329 1.30319-.8312.83119-1.2997 1.95751-1.3032 3.13298l-3.1668 8.55323h29.4608z"/><path d="m11.0099 32.6059h53.5353c1.0073-.0029 1.9727-.4042 2.6851-1.1164.7125-.7122 1.1142-1.6773 1.1175-2.6847v-6.9578c-.0033-1.0074-.405-1.9725-1.1175-2.6847-.7124-.7122-1.6778-1.1135-2.6851-1.1164l-20.0624-1.4242v2.9022c-.0025.8395-.3371 1.6439-.9308 2.2376-.5936.5936-1.3981.9282-2.2376.9307h-7.0738c-.8395-.0025-1.644-.3371-2.2376-.9307-.5937-.5937-.9283-1.3981-.9307-2.2376v-2.9038l-20.0624 1.4258c-1.0074.0029-1.97273.4042-2.6852 1.1164s-1.1142 1.6773-1.11749 2.6847v6.9578c.00329 1.0074.40502 1.9725 1.11749 2.6847s1.6778 1.1135 2.6852 1.1164zm38.976-11.1815c.0015-.5036.2022-.9862.5583-1.3423s.8387-.5568 1.3423-.5582h1.2662c.5037.0014.9863.2021 1.3424.5582s.5568.8387.5582 1.3423v4.858c-.0014.5036-.2021.9862-.5582 1.3423s-.8387.5568-1.3424.5583h-1.2662c-.5036-.0015-.9862-.2022-1.3423-.5583s-.5568-.8387-.5583-1.3423z"/><path d="m29.5507 38.9395-5.8697 5.0051c-.2162.2059-.3453.4868-.3607.785-.0155.2981.0839.5908.2776.818.1938.2271.4672.3714.764.4031.2969.0318.5946-.0514.832-.2324l5.8698-5.0051c.1262-.0962.2315-.2172.3093-.3554.0779-.1383.1268-.291.1437-.4488s.0014-.3173-.0455-.469c-.0468-.1516-.1241-.292-.2271-.4128-.103-.1207-.2295-.2192-.3719-.2894-.1423-.0702-.2974-.1106-.4559-.1188s-.317.016-.4658.0711-.2849.14-.3998.2494z"/><path d="m22.5478 46.4444c-.201-.2351-.487-.3808-.7954-.4052-.3083-.0243-.6137.0747-.8491.2752l-13.63383 11.6369c-.21618.2059-.34527.4867-.36071.7849-.01544.2981.08393.5909.27768.818.19374.2271.46715.3714.764.4032.29685.0317.59459-.0515.832-.2325l13.63386-11.6368c.235-.2007.3809-.4865.4056-.7946.0246-.3082-.0739-.6135-.2741-.8491z"/><path d="m77.0832 39.0703c-.2008-.2354-.4867-.3814-.795-.406-.3084-.0247-.6139.074-.8495.2744l-10.5519 9.0039c-.2162.2059-.3452.4868-.3607.785-.0154.2981.0839.5908.2777.818.1937.2271.4671.3714.764.4031.2968.0318.5946-.0514.832-.2324l10.5534-8.9992c.1168-.0996.2127-.2211.2825-.3578.0697-.1367.1118-.2857.1239-.4387.012-.1529-.0062-.3068-.0536-.4527s-.1231-.281-.2228-.3976z"/><path d="m41.2342 38.9395-7.901 6.7368c-.2199.205-.3522.4869-.3694.787s.082.5953.277.8241c.1949.2287.4707.3735.7697.4041.2991.0306.5984-.0554.8356-.24l7.9011-6.7383c.1262-.0962.2314-.2172.3093-.3554.0779-.1383.1268-.291.1437-.4488s.0014-.3173-.0455-.469c-.0469-.1516-.1242-.292-.2271-.4128-.103-.1207-.2296-.2192-.3719-.2894s-.2975-.1106-.4559-.1188c-.1585-.0082-.317.016-.4658.0711s-.2849.14-.3998.2494z"/><path d="m32.1961 48.1777c-.2008-.2354-.4867-.3814-.795-.406-.3084-.0247-.6139.074-.8495.2744l-16.2488 13.8533c-.2162.2059-.3453.4869-.3608.785-.0154.2981.084.5909.2777.818.1938.2271.4672.3714.764.4032.2969.0317.5946-.0514.832-.2325l16.2489-13.8533c.2346-.2007.3802-.4861.4048-.7939.0247-.3078-.0736-.6128-.2733-.8482z"/><path d="m43.7379 49.4626c.2773-.0001.5455-.0989.7565-.2786l9.9332-8.4708c.1262-.0962.2314-.2172.3093-.3554.0779-.1383.1267-.291.1436-.4488s.0014-.3173-.0454-.469c-.0469-.1516-.1242-.292-.2272-.4128-.103-.1207-.2295-.2192-.3718-.2894s-.2975-.1106-.456-.1188c-.1584-.0082-.3169.016-.4657.0711-.1489.0551-.2849.14-.3998.2494l-9.9331 8.4692c-.181.1551-.3101.3618-.3702.5923-.06.2306-.048.4741.0343.6977.0824.2236.2312.4166.4264.5531.1953.1366.4277.2101.6659.2108z"/><path d="m41.8452 49.9109c-.2008-.2353-.4867-.3814-.7951-.406-.3083-.0247-.6138.074-.8494.2745l-14.2168 12.1216c-.2162.2059-.3453.4868-.3607.7849-.0155.2982.0839.5909.2777.8181.1937.2271.4671.3714.764.4031.2968.0318.5946-.0514.832-.2324l14.2167-12.1217c.2347-.2007.3802-.4861.4049-.7939.0246-.3077-.0736-.6127-.2733-.8482z"/><path d="m66.2387 39.0703c-.2008-.2354-.4867-.3814-.795-.406-.3084-.0247-.6139.074-.8495.2744l-21.4283 18.2716c-.2162.2059-.3453.4868-.3607.785-.0154.2981.0839.5909.2777.818.1937.2271.4671.3714.764.4032.2968.0317.5946-.0515.832-.2325l21.4283-18.2716c.2346-.2007.3802-.4861.4048-.7939.0247-.3078-.0736-.6128-.2733-.8482z"/><path d="m40.3859 59.5794-2.724 2.3216c-.2161.2059-.3452.4868-.3607.785-.0154.2981.0839.5908.2777.818.1937.2271.4671.3714.764.4031.2968.0318.5946-.0514.832-.2324l2.724-2.32c.2198-.205.3522-.487.3694-.7871s-.0821-.5952-.277-.824c-.195-.2288-.4707-.3736-.7698-.4042-.299-.0305-.5983.0554-.8356.24z"/><path d="m62.0827 50.3265-13.8751 11.5644c-.1286.0942-.2366.2138-.3172.3514-.0806.1375-.1322.2902-.1516.4484-.0194.1583-.0061.3188.0389.4718.0451.1529.121.295.2231.4175s.2282.2228.3705.2947c.1423.0718.2979.1138.4571.1232.1591.0095.3185-.0137.4684-.0683.1498-.0545.2869-.1391.4027-.2487l13.8767-11.5644c.1273-.0948.234-.2146.3134-.352.0795-.1374.1301-.2896.1487-.4472.0186-.1577.0049-.3175-.0403-.4696-.0452-.1522-.1209-.2935-.2226-.4154s-.2272-.2217-.3688-.2935c-.1416-.0717-.2964-.1138-.4548-.1237s-.3172.0126-.4666.0661c-.1495.0536-.2864.137-.4025.2453z"/><path d="m19.0417 38.9395-10.55344 9.0031c-.12753.0957-.23412.2164-.3132.3549-.07908.1384-.12897.2915-.14659.45-.01763.1584-.00263.3188.0441.4712s.12419.2937.22758.415c.1034.1213.23056.2202.37363.2905.14308.0704.29902.1106.45826.1184.15923.0077.31837-.0172.46759-.0734.14921-.0561.28536-.1422.40004-.2529l10.55503-8.9992c.1262-.0962.2314-.2172.3093-.3554.0779-.1383.1267-.291.1436-.4488s.0014-.3174-.0454-.469c-.0469-.1516-.1242-.2921-.2272-.4128s-.2295-.2192-.3718-.2894c-.1424-.0702-.2975-.1106-.456-.1188s-.3169.016-.4658.0711c-.1488.0551-.2848.14-.3997.2494z"/><path d="m9.84089 39.0703c-.20076-.2354-.48671-.3814-.79504-.406-.30834-.0247-.61385.074-.84946.2744l-7.834141 6.7391c-.216178.2059-.3452421.4868-.36068488.785-.01544282.2981.08392688.5908.27767388.818.193748.2271.467153.3714.764002.4032.29685.0317.59457-.0515.83198-.2325l7.83414-6.7391c.23462-.2007.38014-.4861.40484-.7939.0246-.3078-.0736-.6128-.27331-.8482z"/></g></svg>