<svg fill="none" height="72" viewBox="0 0 200 72" width="200" xmlns="http://www.w3.org/2000/svg"><path d="m37.53 0v4.389h-8.77v36.611h-9.36v-36.611h-8.92v-4.389zm131.63 35.244c2.72 4.807 6.58 6.649 12.07 6.649 6.78 0 12.02-4.091 12.02-11.1 0-11.048-14.8-9.406-14.8-15.188 0-2.458 1.23-4.19 3.9-4.19 3.34 0 4.88 2.349 6.37 4.907l3.75-2.916c-2.72-4.449-5.91-6.5-11.25-6.5-6.83 0-11.51 4.449-11.51 11.247 0 10.63 14.49 9.356 14.49 15.188 0 2.508-1.65 4.041-4.32 4.041-2.98 0-4.88-2.657-6.06-5.006zm-27.07 5.733h-4.83l11.51-33.134h9.35l12.43 33.134h-10.38l-3.65-9.615h-11.2zm8.58-25.619-3.8 11.506h8.17l-4.26-11.506zm-47.42 25.618h4.93v-20.811h.1l8.83 20.812h1.13l8.78-21.011h.15v21.01h9.35v-33.133h-9.25l-7.19 17.388-7.45-17.388h-9.4v33.133zm-37.91-16.576c-.0466-3.5156.9532-6.9656 2.8724-9.9115s4.671-5.2545 7.9056-6.63241c3.2347-1.3779 6.806-1.76283 10.2599-1.10585 3.454.65699 6.6346 2.32622 9.1374 4.79546 2.5029 2.4693 4.2149 5.627 4.9187 9.0718.703 3.4447.367 7.0209-.9673 10.2738-1.334 3.253-3.6053 6.0358-6.525 7.9946-2.9196 1.9588-6.3558 3.0052-9.8717 3.0061-2.3181.0356-4.6201-.3908-6.7717-1.2543s-4.1097-2.1468-5.7601-3.775-2.9601-3.5688-3.8525-5.7085c-.8925-2.1398-1.35-4.4358-1.3457-6.7542zm10.17 0c0 5.066 1.13 13.5 7.55 13.5s7.55-8.44 7.55-13.5-1.13-13.5-7.55-13.5-7.55 8.44-7.55 13.5zm-31.84 16.576v-14.776h9.97v14.78h9.35v-33.137h-9.35v13.857h-9.97v-13.857h-9.35v33.134h9.35z" fill="#3d505a"/><path d="m194.12 43.973c.212.0056.423-.0315.62-.1091.197-.0777.377-.1942.528-.3428s.271-.3262.352-.522c.081-.1959.122-.4061.12-.6181l-.03-36.438c-.003-.20081-.048-.3988-.131-.58162-.083-.18283-.203-.34658-.352-.48103s-.324-.23672-.515-.30044c-.19-.06372-.392-.08752-.592-.06991l-153.28.02v-4.4600012h153.97c0-.07000003 5.18-.07000023 5.18 4.4590012v39.543c0 4.15-4.31 4.15-4.31 4.15h-191.24c-.5666.0263-1.13272-.0613-1.6649-.2575-.53219-.1962-1.01965-.4971-1.43356-.8849-.413917-.3878-.745894-.8547-.976315-1.373-.23042-.5183-.3546083-1.0775-.365225-1.6446v-39.653c.05-.049.0900002-4.3490012 4.44-4.3490012h2.92v4.4590012h-1.41c-.3803.02931-.73643.19781-1.00026.47327-.26384.27546-.41684.63852-.42974 1.01973l.01 36.537c-.00573.189.0274.3772.09733.5529s.17517.3352.30921.4686c.13405.1334.29404.2378.47009.3069.17604.0691.36438.1013.55337.0946z" fill="#c9252c"/><g fill="#3d505a"><path d="m8.9 65.233c-.1-2.02-.21-4.27-.15-5.992h-.08c-.31 1.7-.69 3.513-1.13 5.315l-1.72 7.177h-1.06l-1.64-6.879c-.48-1.951-.88-3.832-1.18-5.6h-.05c.02 1.792-.08 3.921-.17 6.1l-.27 6.469h-1.45l.84-15.3h1.76l1.64 6.987c.48 2.02.84 3.513 1.13 5.265h.06c.27-1.752.59-3.2 1.05-5.265l1.59-6.987h1.8l.82 15.3h-1.5z"/><path d="m14.46 67.233-.92 4.588h-1.57l3.23-15.3h1.78l3.15 15.3h-1.59l-.92-4.588zm2.92-1.413-.73-3.887c-.21-1.085-.4-2.359-.57-3.494h-.06c-.17 1.155-.38 2.478-.59 3.494l-.73 3.882z"/><path d="m21.91 56.743c.6992-.2151 1.4285-.3164 2.16-.3.6024-.0383 1.2064.0442 1.7765.2425s1.0949.5086 1.5435.9125c1.09 1.025 1.91 3 1.91 6.191 0 3.493-.8 5.4-1.7 6.469-.483.551-1.0853.9844-1.7612 1.2672-.6759.2829-1.4074.4076-2.1388.3648-.5972.0112-1.1939-.0411-1.78-.156v-14.991zm1.59 13.665c.2009.0383.4054.0551.61.05 1.78 0 3.5-1.4 3.5-6.609 0-3.862-1.09-5.972-3.36-5.972-.2564-.0069-.5124.0234-.76.09v12.441z"/><path d="m36.39 64.555h-3.55v5.743h4.03v1.523h-5.64v-15.308h5.39v1.52h-3.78v5.036h3.55z"/><path d="m43.57 56.513v15.3h-1.62v-15.3z"/><path d="m46.15 71.811v-15.298h1.51l2.6 7.176c.59 1.652 1.32 3.673 1.8 5.335h.04c-.13-2.409-.19-4.379-.19-7.037v-5.474h1.45v15.3h-1.51l-2.69-7.355c-.6602-1.7014-1.2277-3.4372-1.7-5.2h-.04c.13 2.04.17 3.991.17 7.266v5.285z"/><path d="m66.13 71.423c-.793.3295-1.6414.5052-2.5.518-.6322.0257-1.2619-.0937-1.8409-.349-.5789-.2554-1.0917-.6398-1.4991-1.124-1.03-1.184-1.72-3.294-1.7-6.1.02-5.972 2.83-7.992 5.33-7.992.689-.0294 1.3741.1179 1.99.428l-.36 1.493c-.499-.26-1.0579-.3835-1.62-.358-1.76 0-3.67 1.523-3.67 6.26 0 4.718 1.66 6.241 3.36 6.241.3401.0291.6817-.0326.99-.179v-5h-1.83v-1.452h3.34v7.614z"/><path d="m73.49 64.555h-3.55v5.743h4.03v1.523h-5.64v-15.308h5.39v1.52h-3.78v5.036h3.55z"/><path d="m75.78 56.743c.7516-.2107 1.5296-.3117 2.31-.3.578-.052 1.1605.0178 1.7099.2046.5495.1869 1.0537.4868 1.4801.8804.6948.8403 1.0482 1.9112.99 3 .0571.8092-.1284 1.617-.5327 2.3203-.4044.7032-1.0092 1.2699-1.7373 1.6277v.05c1.05.338 1.59 1.433 1.89 3.424.1608 1.3087.4352 2.6009.82 3.862h-1.64c-.3631-1.2327-.6174-2.4949-.76-3.772-.31-2.106-.92-2.887-2.31-2.887h-.63v6.649h-1.59zm1.6 7.057h.69c1.53 0 2.56-1.224 2.56-3.066 0-1.772-.67-2.857-2.39-2.886-.2895-.0118-.5792.0185-.86.09z"/><path d="m92.91 65.233c-.1-2.02-.21-4.27-.15-5.992h-.08c-.31 1.7-.69 3.513-1.13 5.315l-1.72 7.177h-1.05l-1.64-6.878c-.48-1.951-.88-3.832-1.18-5.6h-.06c.02 1.792-.08 3.921-.17 6.1l-.27 6.469h-1.45l.84-15.3h1.76l1.64 6.987c.48 2.02.84 3.513 1.13 5.265h.06c.27-1.752.59-3.2 1.05-5.265l1.59-6.987h1.8l.82 15.3h-1.5z"/><path d="m98.47 67.233-.92 4.588h-1.57l3.23-15.3h1.78l3.15 15.3h-1.59l-.92-4.588zm2.92-1.413-.73-3.882c-.21-1.085-.4-2.359-.57-3.494h-.06c-.17 1.155-.38 2.478-.59 3.494l-.73 3.882z"/><path d="m105.92 71.811v-15.298h1.51l2.6 7.176c.59 1.652 1.32 3.673 1.8 5.335h.04c-.13-2.409-.19-4.379-.19-7.037v-5.474h1.45v15.3h-1.51l-2.69-7.355c-.66-1.7014-1.228-3.4372-1.7-5.2h-.04c.13 2.04.17 3.991.17 7.266v5.285z"/><path d="m117.71 71.811v-6.47l-3.13-8.828h1.72l1.26 3.832c.34 1.065.73 2.269 1.05 3.454h.04c.27-1.184.65-2.339 1.03-3.513l1.2-3.772h1.68l-3.23 8.759v6.539z"/><path d="m121.85 70.673c-.019-.157-.005-.316.039-.4678s.118-.2931.218-.4157.223-.2238.363-.2978c.139-.0739.293-.1191.45-.1327.63 0 1.07.518 1.07 1.314s-.4 1.314-1.09 1.314c-.59.004-1.05-.514-1.05-1.314z"/><path d="m129.13 69.791c.599.3888 1.296.6025 2.01.617.333.0097.664-.0523.971-.182.306-.1297.582-.3239.806-.5695.225-.2456.395-.5368.497-.8537s.135-.6521.096-.9828c-.032-.641-.218-1.2647-.544-1.8177s-.781-1.0188-1.326-1.3573c-1.13-.836-2.66-2.269-2.66-4.24-.042-.5142.023-1.0315.192-1.5191.168-.4875.437-.9346.787-1.3129.351-.3782.777-.6792 1.251-.8839.473-.2047.984-.3086 1.5-.3051.699-.0182 1.387.1798 1.97.567l-.38 1.5c-.491-.347-1.079-.5285-1.68-.518-.282-.0028-.561.0526-.82.1627s-.493.2726-.686.4773c-.194.2047-.343.4472-.438.7122s-.135.5468-.116.8278c0 1.523.73 2.11 2.08 3.155.742.4731 1.354 1.1226 1.784 1.8905.429.7678.661 1.63.676 2.5095 0 2.638-1.7 4.29-3.97 4.29-.836.0112-1.659-.2168-2.37-.657z"/><path d="m138.64 56.513v15.3h-1.62v-15.3z"/><path d="m141.22 71.811v-15.298h1.51l2.6 7.176c.59 1.652 1.32 3.673 1.8 5.335h.04c-.13-2.409-.19-4.379-.19-7.037v-5.474h1.45v15.3h-1.51l-2.69-7.355c-.66-1.7014-1.228-3.4372-1.7-5.2h-.04c.13 2.04.17 3.991.17 7.266v5.285z"/><path d="m157.15 71.542c-.637.3001-1.337.4402-2.04.408-2.75 0-4.74-2.409-4.74-7.6 0-6.041 2.77-7.962 5.02-7.962.605-.0411 1.21.0936 1.74.388l-.36 1.473c-.434-.2271-.92-.3367-1.41-.318-1.51 0-3.29 1.592-3.29 6.26s1.59 6.221 3.34 6.221c.507.0006 1.008-.1079 1.47-.318z"/><path d="m163.95 64.555h-3.55v5.743h4.03v1.523h-5.64v-15.308h5.39v1.52h-3.78v5.036h3.55z"/><path d="m172.19 58.831h-.04l-2.27 1.4-.32-1.364 2.87-1.811h1.32v14.755h-1.57v-12.98z"/><path d="m177.73 70.498c.341-.0022.681-.0489 1.01-.139.722-.1961 1.371-.5973 1.87-1.155.927-1.2083 1.479-2.6613 1.59-4.18h-.04c-.249.3676-.582.6705-.972.8834-.389.2129-.824.3297-1.268.3406-1.7 0-2.96-1.7-2.96-4.379 0-2.7 1.34-5 3.44-5 2.33 0 3.42 2.677 3.42 5.922.109 2.4062-.519 4.7882-1.8 6.828-.729 1.1138-1.856 1.9076-3.15 2.22-.369.0937-.749.1404-1.13.139v-1.48zm.82-8.759c0 2.16.76 3.2 1.85 3.2.378-.0308.738-.1717 1.037-.4053.298-.2335.522-.5494.643-.9087.103-.2973.147-.6118.13-.926 0-3.105-.82-4.449-1.91-4.449-.82-.004-1.77.941-1.75 3.489z"/><path d="m191.92 64.416c0 5.375-1.57 7.584-3.55 7.584-2.12 0-3.4-2.727-3.4-7.534 0-4.967 1.36-7.584 3.59-7.584 2.21 0 3.36 2.837 3.36 7.534zm-5.33.02c-.02 3.563.55 6.061 1.89 6.061 1.3 0 1.83-2.518 1.83-6.061 0-3.454-.52-6.061-1.83-6.061s-1.89 2.498-1.89 6.057z"/><path d="m200 64.416c0 5.375-1.57 7.584-3.55 7.584-2.12 0-3.4-2.727-3.4-7.534 0-4.967 1.36-7.584 3.59-7.584 2.21 0 3.36 2.837 3.36 7.534zm-5.33.02c-.02 3.563.55 6.061 1.89 6.061 1.3 0 1.83-2.518 1.83-6.061 0-3.454-.52-6.061-1.83-6.061s-1.89 2.498-1.89 6.057z"/></g></svg>