<svg fill="none" height="49" viewBox="0 0 200 49" width="200" xmlns="http://www.w3.org/2000/svg"><path d="m37.53 0v4.389h-8.77v36.611h-9.36v-36.611h-8.92v-4.389zm131.63 35.244c2.72 4.807 6.58 6.649 12.07 6.649 6.78 0 12.02-4.091 12.02-11.1 0-11.048-14.8-9.406-14.8-15.188 0-2.458 1.23-4.19 3.9-4.19 3.34 0 4.88 2.349 6.37 4.907l3.75-2.916c-2.72-4.449-5.91-6.5-11.25-6.5-6.83 0-11.51 4.449-11.51 11.247 0 10.63 14.49 9.356 14.49 15.188 0 2.508-1.65 4.041-4.32 4.041-2.98 0-4.88-2.657-6.06-5.006zm-27.07 5.733h-4.83l11.51-33.134h9.35l12.43 33.134h-10.38l-3.65-9.615h-11.2zm8.58-25.619-3.8 11.506h8.17l-4.26-11.506zm-47.42 25.618h4.93v-20.811h.1l8.83 20.812h1.13l8.78-21.011h.15v21.01h9.35v-33.133h-9.25l-7.19 17.388-7.45-17.388h-9.4v33.133zm-37.91-16.576c-.0466-3.5156.9532-6.9656 2.8724-9.9115s4.671-5.2545 7.9056-6.63241c3.2347-1.3779 6.806-1.76283 10.2599-1.10585 3.454.65699 6.6346 2.32622 9.1374 4.79546 2.5029 2.4693 4.2149 5.627 4.9187 9.0718.703 3.4447.367 7.0209-.9673 10.2738-1.334 3.253-3.6053 6.0358-6.525 7.9946-2.9196 1.9588-6.3558 3.0052-9.8717 3.0061-2.3181.0356-4.6201-.3908-6.7717-1.2543s-4.1097-2.1468-5.7601-3.775-2.9601-3.5688-3.8525-5.7085c-.8925-2.1398-1.35-4.4358-1.3457-6.7542zm10.17 0c0 5.066 1.13 13.5 7.55 13.5s7.55-8.44 7.55-13.5-1.13-13.5-7.55-13.5-7.55 8.44-7.55 13.5zm-31.84 16.576v-14.776h9.97v14.78h9.35v-33.137h-9.35v13.857h-9.97v-13.857h-9.35v33.134h9.35z" fill="#3d505a"/><path d="m194.12 43.973c.212.0056.423-.0315.62-.1091.197-.0777.377-.1942.528-.3428s.271-.3262.352-.522c.081-.1959.122-.4061.12-.6181l-.03-36.438c-.003-.20081-.048-.3988-.131-.58162-.083-.18283-.203-.34658-.352-.48103s-.324-.23672-.515-.30044c-.19-.06372-.392-.08752-.592-.06991l-153.28.02v-4.4600012h153.97c0-.07000003 5.18-.07000023 5.18 4.4590012v39.543c0 4.15-4.31 4.15-4.31 4.15h-191.24c-.5666.0263-1.13272-.0613-1.6649-.2575-.53219-.1962-1.01965-.4971-1.43356-.8849-.413917-.3878-.745894-.8547-.976315-1.373-.23042-.5183-.3546083-1.0775-.365225-1.6446v-39.653c.05-.049.0900002-4.3490012 4.44-4.3490012h2.92v4.4590012h-1.41c-.3803.02931-.73643.19781-1.00026.47327-.26384.27546-.41684.63852-.42974 1.01973l.01 36.537c-.00573.189.0274.3772.09733.5529s.17517.3352.30921.4686c.13405.1334.29404.2378.47009.3069.17604.0691.36438.1013.55337.0946z" fill="#c9252c"/></svg>