<svg fill="none" height="17" viewBox="0 0 25 17" width="25" xmlns="http://www.w3.org/2000/svg" xmlns:xlink="http://www.w3.org/1999/xlink"><linearGradient id="a" gradientUnits="userSpaceOnUse" x1="12.0038" x2="12.0038" y1="16.2917" y2="0"><stop offset="0" stop-color="#e52d27"/><stop offset="1" stop-color="#bf171d"/></linearGradient><clipPath id="b"><path d="m0 0h24.0077v16.2909h-24.0077z"/></clipPath><g clip-path="url(#b)"><path d="m9.52386 11.1484 6.48624-3.24228-6.48624-3.26501z" fill="#fff"/><path d="m9.52386 4.64111 5.68604 3.664.8002-.39899z" fill="#420000" opacity=".12"/><path d="m23.768 3.51447s-.235-1.59634-.9544-2.29923c-.6363-.619785-1.5003-.972503-2.4046-.981619-3.361-.23362098-8.4005-.233621-8.4005-.233621h-.0093s-5.03951.00000002-8.40058.233621c-.90422.009116-1.76823.361834-2.40455.981619-.719392.70289-.954415 2.29923-.954415 2.29923-.1492744 1.24434-.2292744 2.4955-.239655 3.7481v1.75724c.0103806 1.25259.0903806 2.50379.239655 3.74809 0 0 .235023 1.5963.954415 2.2992.91439.9227 2.11309.8939 2.64673.991 1.92019.1767 8.163.2336 8.163.2336s5.0442-.0069 8.4052-.2438c.9043-.0087 1.7685-.3615 2.4046-.9816.7194-.7029.9544-2.2992.9544-2.2992.1491-1.2441.2291-2.495.2397-3.74729v-1.75724c-.0104-1.2526-.0904-2.50376-.2397-3.7481zm-14.2437 7.63433v-6.50766l6.4863 3.26501z" fill="url(#a)"/></g></svg>