<svg fill="none" height="40" viewBox="0 0 43 40" width="43" xmlns="http://www.w3.org/2000/svg"><g fill="#00e5ff"><path d="m27.3677 3.0623c-.0024-.81143-.3285-1.58893-.9069-2.162697-.5785-.57377-1.3624-.89718331-2.1804-.899603h-5.511c-.8181.00241969-1.6019.325833-2.1803.899603-.5785.573767-.9046 1.351267-.907 2.162697l-4.4105 5.90585h20.508z"/><path d="m2.99627 22.522h37.04873c.7012-.0021 1.3731-.2793 1.8689-.7711s.7753-1.1582.7774-1.8537v-2.1874l-10.9167-6.5621h-2.2529v5.7965h-2.3261v-5.7965h-1.8496v4.0848c-.0013.4637-.1876.9081-.5181 1.2361-.3306.328-.7785.513-1.2461.5144h-4.1167c-.4676-.0012-.9156-.1862-1.2462-.5142-.3307-.328-.5168-.7726-.518-1.2363v-4.0826h-6.4357l-10.912351 6.562v2.1874c.002623.6946.281928 1.3601.777081 1.8514.49515.4912 1.166.7685 1.86634.7713z"/><path d="m.939723 27.5559c1.347327 0 1.983987.7973 2.790677 1.8056.88281 1.105 1.9826 2.4809 4.06191 2.4809 2.07933 0 3.17839-1.3752 4.06189-2.4809.8067-1.009 1.4434-1.8056 2.7907-1.8056s1.984.7973 2.7907 1.8056c.8828 1.105 1.9833 2.4809 4.0619 2.4809s3.1784-1.3752 4.0619-2.4809c.8067-1.009 1.4434-1.8056 2.7907-1.8056s1.984.7973 2.7907 1.8056c.8842 1.105 1.9826 2.4809 4.0633 2.4809 2.0808 0 3.1791-1.3752 4.0627-2.4809.8052-1.009 1.4433-1.8056 2.7906-1.8056.52 0 .9412-.5758.9412-1.2856s-.4219-1.2856-.9412-1.2856c-2.0793 0-3.1791 1.3752-4.0633 2.4809-.8067 1.009-1.4434 1.8056-2.79 1.8056s-1.9847-.7973-2.7914-1.8056c-.8828-1.105-1.9826-2.4809-4.0619-2.4809s-3.1791 1.3752-4.0626 2.4809c-.806 1.009-1.4426 1.8056-2.7893 1.8056-1.3466 0-1.984-.7973-2.7907-1.8056-.8835-1.105-1.9825-2.4809-4.0619-2.4809-2.0793 0-3.1791 1.3752-4.0619 2.4809-.80666 1.009-1.44333 1.8056-2.78995 1.8056s-1.984-.7973-2.79069-1.8056c-.88281-1.105-1.98258-2.4809-4.061903-2.4809-.520013 0-.9411406.5758-.9411406 1.2856s.4182886 1.2856.9390066 1.2856z"/><path d="m42.0567 33.1416c-2.0793 0-3.1791 1.3766-4.0633 2.4816-.8067 1.009-1.4434 1.8056-2.79 1.8056s-1.9847-.7973-2.7914-1.8056c-.8828-1.105-1.9826-2.4816-4.0619-2.4816s-3.1791 1.3766-4.0626 2.4816c-.806 1.009-1.4427 1.8056-2.7893 1.8056s-1.984-.7973-2.7907-1.8056c-.8835-1.105-1.9826-2.4816-4.0619-2.4816s-3.1791 1.3766-4.0619 2.4816c-.80667 1.009-1.44334 1.8056-2.78996 1.8056-1.34663 0-1.98401-.7973-2.7907-1.8056-.88281-1.105-1.98258-2.4816-4.061901-2.4816-.520011 0-.941139.5765-.941139 1.2863s.421839 1.2856.941139 1.2856c1.347331 0 1.984001.7966 2.790691 1.8056.88281 1.105 1.98257 2.4809 4.06191 2.4809 2.07932 0 3.17836-1.3752 4.06186-2.4809.8067-1.0097 1.4434-1.8056 2.7907-1.8056 1.3474 0 1.984.7966 2.7907 1.8056.8828 1.105 1.9833 2.4809 4.0619 2.4809s3.1784-1.3752 4.0619-2.4809c.8067-1.0097 1.4434-1.8056 2.7907-1.8056 1.3474 0 1.984.7973 2.7907 1.8056.8843 1.105 1.9826 2.4809 4.0634 2.4809 2.0807 0 3.1791-1.3752 4.0626-2.4809.8052-1.009 1.4433-1.8056 2.7907-1.8056.52 0 .9411-.5758.9411-1.2856s-.424-1.2863-.9433-1.2863z"/></g></svg>