<svg fill="none" height="43" viewBox="0 0 43 43" width="43" xmlns="http://www.w3.org/2000/svg"><g fill="#3d4f59"><path d="m1.74323 26.5289c.46244-.0002.90588-.184 1.23288-.511.32699-.327.51077-.7704.51092-1.2329v-22.91613c-.00839-.45686-.19576-.892174-.52182-1.212298s-.76475-.499472-1.22169-.499472-.895636.179348-1.221696.499472c-.326059.320124-.51342988.755438-.521824 1.212298v22.91673c.0003118.4623.184072.9055.510922 1.2323.326851.3269.770068.5106 1.232308.511z"/><path d="m7.34721 26.5289c.46244-.0002.90588-.184 1.23288-.511.32699-.327.51076-.7704.51092-1.2329v-22.91613c-.00839-.45686-.19576-.892174-.52182-1.212298s-.76476-.499472-1.2217-.499472-.89561.179348-1.22167.499472-.51345.755438-.52184 1.212298v22.91673c.00015.4623.18386.9056.51074 1.2325.32689.3269.7702.5106 1.23249.5108z"/><path d="m12.9518 26.5289c.4625 0 .906-.1838 1.233-.5108.3271-.327.5108-.7706.5108-1.2331v-22.91613c-.0084-.45686-.1958-.892174-.5218-1.212298-.3261-.320124-.7648-.499472-1.2217-.499472-.457 0-.8957.179348-1.2217.499472-.3261.320124-.5135.755438-.5219 1.212298v22.91673c.0004.4623.1841.9055.511 1.2323.3268.3269.77.5106 1.2323.511z"/><path d="m18.3074 11.21c-.2317-.0042-.4619.0377-.6771.1234-.2153.0857-.4113.2135-.5766.3758-.1654.1623-.2967.356-.3863.5696-.0897.2137-.1359.443-.1359.6747s.0462.4611.1359.6748c.0896.2136.2209.4072.3863.5696.1653.1623.3613.29.5766.3757.2152.0858.4454.1277.6771.1235h22.9168c.4568-.0084.8921-.1958 1.2123-.5219.3201-.326.4994-.7647.4994-1.2217 0-.4569-.1793-.8956-.4994-1.2217-.3202-.326-.7555-.5134-1.2123-.5218z"/><path d="m18.3074 5.60486c-.2317-.00426-.4619.03769-.6771.1234-.2153.08571-.4113.21346-.5766.37578-.1654.16232-.2967.35597-.3863.56962-.0897.21365-.1359.44302-.1359.67472s.0462.46107.1359.67472c.0896.21365.2209.40729.3863.56961.1653.16232.3613.29007.5766.37578.2152.08571.4454.12766.6771.12341h22.9168c.4568-.0084.8921-.19578 1.2123-.52184.3201-.32606.4994-.76474.4994-1.22168s-.1793-.89562-.4994-1.22168c-.3202-.32606-.7555-.51345-1.2123-.52184z"/><path d="m18.3074 3.48733h22.9168c.2316.00425.4618-.03769.6771-.1234.2152-.08571.4112-.21346.5766-.37578.1653-.16232.2966-.35597.3863-.56962.0896-.21365.1358-.44302.1358-.67472s-.0462-.46107-.1358-.67472c-.0897-.213652-.221-.407297-.3863-.569619-.1654-.162323-.3614-.29007-.5766-.375779-.2153-.0857088-.4455-.12765401-.6771-.12339767h-22.9168c-.2317-.00425634-.4619.03768887-.6771.12339767-.2153.085709-.4113.213456-.5766.375779-.1654.162322-.2967.355967-.3863.569619-.0897.21365-.1359.44302-.1359.67472s.0462.46107.1359.67472c.0896.21365.2209.4073.3863.56962.1653.16232.3613.29007.5766.37578.2152.08571.4454.12765.6771.1234z"/><path d="m41.2242 16.4409c-.4625 0-.9061.1837-1.2331.5107-.327.3271-.5107.7706-.5107 1.2331v22.9156c-.0043.2316.0376.4618.1233.6771.0858.2152.2135.4112.3758.5766.1624.1653.356.2966.5696.3863.2137.0896.4431.1358.6748.1358s.461-.0462.6747-.1358c.2136-.0897.4073-.221.5696-.3863.1623-.1654.2901-.3614.3758-.5766.0857-.2153.1276-.4455.1234-.6771v-22.9156c0-.4624-.1837-.9059-.5106-1.2329s-.7703-.5108-1.2326-.5109z"/><path d="m35.6196 16.4409c-.229 0-.4558.0451-.6673.1327-.2116.0876-.4038.2161-.5658.378-.1619.162-.2904.3542-.378.5658-.0876.2115-.1327.4383-.1327.6673v22.9156c-.0043.2316.0377.4618.1234.6771.0857.2152.2134.4112.3758.5766.1623.1653.3559.2966.5696.3863.2136.0896.443.1358.6747.1358s.4611-.0462.6747-.1358c.2137-.0897.4073-.221.5696-.3863.1623-.1654.2901-.3614.3758-.5766.0857-.2153.1277-.4455.1234-.6771v-22.9156c.0001-.229-.0449-.4557-.1325-.6673s-.216-.4038-.3778-.5657c-.1619-.162-.3541-.2904-.5657-.3781-.2115-.0876-.4382-.1327-.6672-.1327z"/><path d="m30.0144 16.4409c-.229 0-.4557.0451-.6673.1327s-.4038.2161-.5657.378c-.162.162-.2904.3542-.378.5658-.0877.2115-.1328.4383-.1328.6673v22.9156c-.0042.2316.0377.4618.1234.6771.0857.2152.2135.4112.3758.5766.1623.1653.356.2966.5696.3863.2137.0896.443.1358.6747.1358s.4611-.0462.6748-.1358c.2136-.0897.4073-.221.5696-.3863.1623-.1654.29-.3614.3757-.5766.0858-.2153.1277-.4455.1235-.6771v-22.9156c0-.229-.045-.4557-.1326-.6673-.0875-.2116-.2159-.4038-.3778-.5657-.1619-.162-.3541-.2904-.5656-.3781-.2116-.0876-.4383-.1327-.6673-.1327z"/><path d="m1.74323 28.2727c-.45686.0084-.892194.1958-1.212318.5218-.320123.3261-.4994632.7648-.4994632 1.2217s.1793402.8956.4994632 1.2217c.320124.326.755458.5134 1.212318.5218h22.91677c.4568-.0084.8922-.1958 1.2123-.5218.3201-.3261.4995-.7648.4995-1.2217s-.1794-.8956-.4995-1.2217c-.3201-.326-.7555-.5134-1.2123-.5218z"/><path d="m1.74323 33.8772c-.45686.0084-.892194.1958-1.212318.5219-.320123.326-.4994632.7647-.4994632 1.2217 0 .4569.1793402.8956.4994632 1.2216.320124.3261.755458.5135 1.212318.5219h22.91677c.4568-.0084.8922-.1958 1.2123-.5219.3201-.326.4995-.7647.4995-1.2216 0-.457-.1794-.8957-.4995-1.2217-.3201-.3261-.7555-.5135-1.2123-.5219z"/><path d="m1.74323 39.4812c-.45686.0084-.892194.1958-1.212318.5219-.320123.326-.4994632.7647-.4994632 1.2216 0 .457.1793402.8957.4994632 1.2217.320124.3261.755458.5135 1.212318.5219h22.91677c.4568-.0084.8922-.1958 1.2123-.5219.3201-.326.4995-.7647.4995-1.2217 0-.4569-.1794-.8956-.4995-1.2216-.3201-.3261-.7555-.5135-1.2123-.5219z"/><path d="m24.1574 16.897h-5.7211c-.9423 0-1.7062.7639-1.7062 1.7061v5.7211c0 .9423.7639 1.7062 1.7062 1.7062h5.7211c.9423 0 1.7061-.7639 1.7061-1.7062v-5.7211c0-.9422-.7638-1.7061-1.7061-1.7061z"/></g></svg>