<svg fill="none" height="46" viewBox="0 0 56 46" width="56" xmlns="http://www.w3.org/2000/svg"><g fill="#3d505a"><path d="m35.7248 3.18959c-.0026-.84515-.3415-1.65497-.9426-2.252593-.6012-.59762-1.4159-.93447309-2.2661-.936997h-10.3129c-.8502.00252391-1.6649.339377-2.2661.936997-.6011.597623-.94 1.407443-.9425 2.252593l-2.2908 6.15133h21.3126z"/><path d="m7.99567 23.4475h38.72883c.7289-.0018 1.4274-.2904 1.943-.8026.5154-.5123.806-1.2066.8081-1.9312v-5.004c-.0021-.7246-.2927-1.4189-.8081-1.9312-.5156-.5122-1.2141-.8008-1.943-.8026l-14.5147-1.0238v2.0875c-.0018.6037-.2438 1.182-.6732 1.6089-.4294.4268-1.0112.6674-1.6184.6692h-5.1171c-.6072-.0018-1.189-.2424-1.6184-.6692-.4294-.4269-.6714-1.0052-.6732-1.6089v-2.0875l-14.51383 1.0255c-.72883.0021-1.42721.2907-1.94266.8029-.51544.5123-.80605 1.2065-.80835 1.9309v5.0041c.00276.7242.29357 1.4178.80897 1.9297.51539.5118 1.21351.8003 1.94204.8023zm28.19633-8.0414c.0012-.3621.1464-.709.4039-.9649.2575-.256.6066-.4004.9708-.4016h.9161c.3643.0012.7132.1456.9707.4016.2575.2559.4028.6028.4039.9649v3.4941c-.0011.362-.1464.7089-.4039.9649s-.6064.4004-.9707.4015h-.9161c-.3642-.0011-.7133-.1455-.9708-.4015s-.4027-.6029-.4039-.9649z"/><path d="m21.4096 27.9984-4.2464 3.5993c-.1689.1446-.2734.3499-.2905.5709s.0545.4397.1992.6084c.1446.1687.3506.2735.5729.2916.2222.0181.4426-.0519.613-.1949l4.2464-3.5993c.169-.1446.2734-.3499.2905-.5709s-.0545-.4398-.1992-.6085c-.1447-.1686-.3506-.2734-.5729-.2915-.2222-.0182-.4426.0519-.613.1949z"/><path d="m16.3424 33.3999c-.1453-.1691-.3522-.2739-.5751-.2913-.2231-.0174-.4439.0539-.614.1983l-9.86315 8.3684c-.16893.1447-.27337.35-.29048.571s.0545.4398.19918.6084c.14468.1687.35066.2735.5729.2916.22222.0182.44265-.052.61305-.1949l9.8631-8.3685c.1703-.1445.2759-.3502.2936-.5721.0177-.2218-.0539-.4415-.1991-.6109z"/><path d="m55.7984 28.0967c-.0719-.0839-.1595-.1528-.2582-.2029-.0986-.0502-.2062-.0806-.3166-.0894s-.2216.0041-.3269.038c-.1055.0339-.2031.0881-.2875.1595l-7.6344 6.4723c-.169.1446-.2734.3499-.2905.5709s.0545.4398.1992.6084c.1446.1687.3506.2735.5729.2916.2222.0182.4426-.0519.613-.1949l7.6345-6.4723c.0842-.0714.1535-.1586.2039-.2566.0504-.0979.0807-.2048.0896-.3145.0087-.1097-.0043-.2201-.0385-.3247-.0342-.1047-.0887-.2017-.1605-.2854z"/><path d="m29.8561 27.9984-5.7165 4.8449c-.1703.1443-.276.3499-.2938.5717-.0179.2217.0537.4414.1989.6108.1451.1693.352.2744.5751.2921s.4441-.0535.6145-.1978l5.7164-4.8457c.085-.0712.1549-.1585.2057-.2567.0509-.0982.0818-.2054.0909-.3155.009-.1101-.0038-.2209-.0379-.326-.0342-.1051-.0889-.2025-.161-.2866s-.1602-.1531-.2592-.2032c-.0991-.0501-.2071-.0803-.3178-.0888-.1109-.0085-.2223.0049-.3279.0394-.1055.0344-.2033.0893-.2874.1614z"/><path d="m23.3224 34.6455c-.1452-.1691-.352-.2741-.5748-.2919-.223-.0177-.4439.0531-.6144.1971l-11.7549 9.9637c-.1689.1447-.2733.3499-.2905.571-.017.221.0545.4397.1993.6084.1446.1686.3506.2735.5728.2915.2223.0181.4427-.0519.6131-.1949l11.7549-9.9619c.0844-.0715.1538-.1588.2042-.257.0505-.0981.0809-.2052.0898-.315.0087-.1099-.0044-.2204-.0386-.3253-.0342-.1048-.0889-.2019-.1609-.2857z"/><path d="m31.6708 35.5658c.2004 0 .3943-.0709.5469-.2001l7.1856-6.0887c.0849-.0712.1549-.1585.2057-.2567.0509-.0982.0818-.2054.0909-.3155.009-.1101-.0038-.2209-.0379-.326-.0342-.1052-.0889-.2025-.161-.2866s-.1602-.1531-.2592-.2032c-.0991-.0501-.2071-.0803-.3179-.0887-.1108-.0085-.2222.0048-.3278.0393-.1055.0344-.2033.0893-.2874.1614l-7.1856 6.0887c-.1321.1111-.2266.2598-.2708.4261-.0441.1662-.0358.342.0239.5034.0596.1614.1678.3007.3098.3989.142.0983.311.1507.484.1503z"/><path d="m30.3014 35.892c-.0718-.0839-.1595-.1529-.2581-.203-.0987-.0502-.2062-.0805-.3166-.0893-.1105-.0088-.2216.0041-.327.038-.1054.0338-.203.088-.2874.1594l-10.2849 8.7173c-.1689.1447-.2733.3499-.2905.571-.017.221.0545.4397.1993.6084.1446.1686.3506.2735.5728.2915.2223.0182.4427-.0519.6131-.1949l10.2848-8.7172c.0843-.0715.1536-.1586.2039-.2565.0504-.0981.0808-.205.0896-.3147.0088-.1096-.0043-.22-.0384-.3247s-.0887-.2017-.1606-.2853z"/><path d="m47.9487 28.0967c-.0719-.0839-.1596-.1528-.2582-.2029-.0987-.0502-.2062-.0806-.3166-.0894-.1105-.0088-.2216.0041-.3269.038-.1055.0339-.2031.0881-.2875.1595l-15.5017 13.1394c-.1689.1446-.2733.3499-.2905.5709-.017.221.0545.4398.1993.6085.1446.1686.3506.2734.5728.2915.2223.0181.4427-.0519.6131-.1949l15.5017-13.1394c.0842-.0714.1535-.1586.2038-.2566.0504-.0979.0808-.2048.0896-.3145s-.0043-.2201-.0384-.3247c-.0341-.1047-.0887-.2017-.1605-.2854z"/><path d="m29.2462 42.8452-1.9679 1.6692c-.1689.1447-.2734.3499-.2905.571-.0171.221.0545.4397.1992.6084.1447.1686.3506.2735.5729.2915.2222.0182.4427-.0519.613-.1949l1.9679-1.6683c.0844-.0714.1538-.1587.2042-.2567.0504-.0982.0809-.2052.0896-.315.0089-.1098-.0042-.2202-.0383-.3251-.0341-.1048-.0887-.2018-.1605-.2857-.0719-.0838-.1596-.1528-.2583-.2029s-.2064-.0804-.3169-.0892c-.1104-.0088-.2215.0042-.327.0381-.1054.0339-.2031.0882-.2874.1596z"/><path d="m44.943 36.192-10.0372 8.3163c-.0873.0698-.1597.1561-.2129.2541-.0533.0978-.0865.2053-.0976.3161-.0111.1107.0001.2226.033.3289.0328.1065.0866.2053.1583.2908s.1598.1561.2592.2074c.0993.0513.2079.0824.3196.0916.1116.0091.2238-.0039.3303-.0384.1065-.0344.205-.0896.2898-.1623l10.039-8.3163c.0851-.0705.1554-.157.2069-.2546.0514-.0975.083-.2041.0931-.3138.0099-.1097-.002-.2203-.0349-.3254-.033-.1051-.0865-.2028-.1575-.2874-.0709-.0845-.1579-.1545-.2561-.2056-.0981-.0511-.2053-.0825-.3157-.0925-.1103-.01-.2215.0018-.3273.0347-.1058.0328-.205.0859-.29.1564z"/><path d="m13.8075 27.9984-7.63446 6.4723c-.08428.0713-.15362.1585-.20403.2564s-.0809.2048-.08975.3145c-.00886.1097.00408.2201.03813.3248.03404.1047.08851.2017.16027.2855.07176.0837.15942.1526.25798.2028.09855.0501.20606.0804.31641.0892.11034.0089.22132-.004.32666-.0379.10532-.0339.20293-.088.28721-.1593l7.63618-6.4723c.085-.0712.1549-.1585.2057-.2567.051-.0982.0819-.2054.091-.3155.009-.1101-.0039-.2209-.038-.326s-.0888-.2025-.1609-.2866-.1602-.1531-.2593-.2032c-.099-.0501-.207-.0803-.3178-.0888-.1109-.0085-.2223.0049-.3278.0394-.1056.0344-.2033.0893-.2875.1614z"/><path d="m7.14955 28.0967c-.07182-.0839-.15954-.1528-.25817-.2029-.09863-.0502-.20622-.0806-.31665-.0894-.11042-.0088-.22151.0041-.32693.038-.1054.0339-.20306.0881-.2874.1595l-5.667434 4.8466c-.168935.1446-.2733725.3499-.29047797.5709-.01710543.221.05449617.4398.19917897.6085.144683.1686.350659.2734.572891.2915.222228.0182.442662-.0519.613052-.1949l5.66743-4.8466c.08426-.0714.15353-.1586.20388-.2566.05036-.0979.08079-.2048.08957-.3145.00877-.1097-.00426-.2201-.03841-.3247-.03413-.1047-.08869-.2017-.16053-.2854z"/></g></svg>