<svg fill="none" height="38" viewBox="0 0 43 38" width="43" xmlns="http://www.w3.org/2000/svg"><path d="m41.0776 6.56314c-.1921-.16035-.42-.27219-.6645-.32611-.2444-.05392-.4982-.04832-.74.0163-1.6518.52903-3.2501.22321-4.8537-.23663-1.0898-.31251-2.2014-.54509-3.2965-.84019-.2678-.08397-.5477-.12291-.8282-.1152l-.9982-.25625-.1969-.30938-.0326.02411c-.2313-.56832-.4585-1.13887-.6951-1.70451-.0879-.27057-.2522-.50992-.4732-.68912-.2209-.1792-.4891-.29061-.7719-.32074-.5101-.09622-1.013-.22749-1.505-.39288-.867.5719-1.6639 1.20897-2.4684 1.81033l-8.2199-2.11747c-.054-.250903-.1085-.500476-.1598-.748252l-.6965-.357148h-.4259c-1.2125.76297-2.4554 1.48444-3.6318 2.29785-2.98429 2.06316-5.94867 4.15474-8.89311 6.27475-.562792.49651-1.074169 1.04841-1.52639 1.6474v1.7027c.953601.4049 1.88935.8625 2.86572 1.2023 1.60719.5589 3.24296 1.0379 4.86355 1.5589.28617.092.55805.2264.85404.3474.03527.3241.06518.596.11161 1.0232-2.64696-.613-5.0707-1.5831-7.6498-2.3719-.03342.2515-.049229.5052-.047314.7589.176344 2.1662.154914 4.3751.603584 6.4846.50225 2.3626.40849 4.7376.66296 7.0984.01003.4176.14886.8219.39748 1.1575.24862.3357.59489.5863.99142.7176 2.4337.8506 4.87425 1.6794 7.32165 2.4862.3686.0771.744.1175 1.1206.1206 1.5893.1785 3.1778.3656 4.6742.5384.1345.174.2564.3573.3648.5487.1299.2802.3208.528.5587.7251.2378.1971.5167.3386.8163.4142 1.3768.4299 2.7572.8482 4.1341 1.2773 1.3942.4352 2.7853.879 4.1778 1.3183h.9933c1.5179-.4429 2.8175-1.3063 4.1425-2.1286.7188-.4465 1.5345-.7362 2.2497-1.1854.9384-.586 1.8434-1.2239 2.7108-1.9107.817-.65 1.554-1.4018 2.3376-2.0961.6129-.5433.7143-1.3098.8482-2.0331.1411-.7549.1464-1.5344.2232-2.3023.1255-1.267.2598-2.5335.4799-3.7737.156-.4561.281-.9222.3742-1.3952.3665-2.738.7044-5.4805 1.0482-8.2217.0013-.1512-.0084-.3024-.029-.4522-.7143.5013-1.346.9375-1.9693 1.3889-3.1992 2.3108-6.3965 4.625-9.5918 6.9426-.4765.3732-1.0315.6335-1.6231.7615-.5915.128-1.2045.1202-1.7926-.0226-2.8983-.6786-5.7931-1.3742-8.6878-2.0657-.1033-.0407-.203-.0898-.2982-.1469-.0148-.2737-.0308-.6023-.0531-1.0407.3723.0603.621.0893.8634.142 2.6057.5872 5.211 1.1768 7.8158 1.7688.7993.2332 1.6466.2466 2.4528.0388.4735-.1355.923-.3441 1.3322-.6183 3.9361-2.8251 7.862-5.664 11.7776-8.5168.2013-.1632.3931-.3377.5745-.52275v-1.41879c-.4916-.78372-1.1477-1.45124-1.9228-1.95632zm-25.3503 22.89846c-.5584.1622-1.1512.163-1.71.0024s-1.0607-.476-1.4478-.9099c-.387-.4338-.6434-.9683-.7394-1.5417-.0961-.5735-.0279-1.1624.1966-1.6987.7072-1.7025 1.5856-3.3288 2.6215-4.8537.0741-.117.1523-.2304.2777-.4188.5299.8728 1.0715 1.6778 1.5233 2.5318.5483.9846 1.0249 2.0076 1.4259 3.0608.1245.3923.1672.8059.1253 1.2153-.0418.4093-.1674.8057-.3687 1.1646-.2014.3589-.4743.6726-.8019.9216-.3276.2491-.7029.4282-1.1025.5263zm1.0223-15.4112c-2.5867 0-4.6845-1.7786-4.6845-3.9733s2.0983-3.97334 4.6845-3.97334c2.5863 0 4.6837 1.77953 4.6837 3.97334 0 2.1938-2.0974 3.9751-4.6832 3.9751z" fill="#3d4f59"/></svg>